<svg xmlns="http://www.w3.org/2000/svg" xmlns:xlink="http://www.w3.org/1999/xlink" width="512" zoomAndPan="magnify" viewBox="0 0 384 383.999986" height="512" preserveAspectRatio="xMidYMid meet" version="1.0"><defs><clipPath id="539623d70c"><path d="M 13 5.042969 L 365 5.042969 L 365 379.292969 L 13 379.292969 Z M 13 5.042969 " clip-rule="nonzero"/></clipPath></defs><path fill="#fff9ec" d="M 148.238281 356.070312 C 144.570312 356.070312 141.589844 355.183594 139.378906 353.429688 L 139.324219 353.386719 L 139.273438 353.339844 C 138.644531 352.730469 138.21875 351.996094 138.007812 351.15625 L 137.90625 350.742188 L 138.046875 350.339844 C 138.292969 349.628906 138.523438 348.914062 138.753906 348.195312 C 139.339844 346.378906 139.941406 344.507812 140.832031 342.707031 L 140.628906 342.5625 C 141.039062 341.785156 141.457031 341.011719 141.875 340.238281 C 143.160156 337.867188 144.484375 335.414062 145.519531 332.910156 C 148.5625 325.917969 148.734375 318.183594 148.464844 310.863281 C 148.453125 310.21875 148.445312 309.597656 148.445312 308.96875 L 148.433594 306.691406 L 148.429688 306.683594 L 148.429688 306.671875 C 148.390625 306.605469 148.167969 306.214844 148.105469 306.089844 L 148.015625 306.003906 L 147.941406 305.785156 C 147.445312 304.839844 147.003906 303.867188 146.574219 302.929688 C 146.359375 302.464844 146.144531 302 145.929688 301.546875 L 145.890625 301.457031 C 143.546875 295.503906 144.601562 289.402344 145.621094 283.503906 C 145.769531 282.660156 145.914062 281.820312 146.050781 280.976562 C 146.519531 278.308594 146.398438 275.550781 145.703125 272.980469 C 145.667969 272.84375 145.632812 272.722656 145.59375 272.597656 C 145.507812 272.300781 145.421875 272.03125 145.328125 271.761719 C 145.324219 271.757812 145.324219 271.753906 145.320312 271.746094 L 141.917969 270.113281 L 140.703125 269.519531 C 140.5625 269.453125 140.414062 269.375 140.261719 269.296875 C 139.945312 269.140625 139.621094 268.976562 139.296875 268.808594 L 138.839844 268.566406 C 138.585938 268.4375 138.316406 268.296875 138.050781 268.148438 C 134.40625 266.199219 131.296875 264.171875 128.558594 261.964844 C 121.839844 256.585938 115.921875 250.167969 110.964844 242.882812 C 110.78125 242.617188 110.59375 242.339844 110.410156 242.066406 L 110.0625 241.535156 C 109.765625 241.082031 109.472656 240.625 109.1875 240.171875 C 103.496094 231.121094 99.554688 221.375 97.472656 211.199219 C 97.292969 210.230469 97.125 209.285156 96.960938 208.34375 C 96.960938 208.34375 96.621094 206.324219 96.550781 205.878906 C 96.246094 203.984375 95.953125 202.082031 95.664062 200.179688 C 94.003906 189.292969 92.285156 178.039062 87.339844 168.011719 C 85.402344 163.941406 83.070312 160.148438 80.835938 156.648438 L 80.015625 155.363281 C 79.808594 155.410156 79.59375 155.457031 79.378906 155.5 C 79.136719 155.554688 78.875 155.605469 78.617188 155.652344 L 78.433594 155.6875 C 77.90625 155.789062 77.371094 155.878906 76.835938 155.960938 C 74.074219 156.375 71.269531 156.5625 68.554688 156.746094 C 66.265625 156.898438 63.898438 157.058594 61.609375 157.351562 C 57.117188 157.8125 52.660156 158.953125 48.347656 160.050781 L 46.632812 160.488281 L 45.433594 160.742188 C 43.058594 161.246094 40.375 161.816406 37.730469 161.867188 L 37.730469 161.929688 L 36.210938 161.835938 C 34.640625 161.738281 33.238281 161.433594 31.921875 160.90625 C 28.867188 159.601562 26.902344 156.144531 26.460938 153.140625 L 24.683594 151.261719 L 24.710938 151.273438 C 22.832031 149.707031 21.480469 147.496094 21.136719 144.582031 L 21.128906 144.5 C 21.042969 143.058594 21.214844 141.570312 21.652344 139.949219 L 22.054688 138.460938 C 21.972656 138.394531 21.917969 138.34375 21.859375 138.292969 C 21.761719 138.207031 21.65625 138.109375 21.554688 138.003906 L 20.722656 137.171875 L 21.382812 136.195312 C 21.554688 135.945312 21.699219 135.480469 21.816406 135.105469 L 21.886719 134.890625 C 22.597656 132.769531 22.582031 131.421875 21.847656 130.757812 L 19.09375 131.402344 L 20.179688 128.824219 C 21.144531 126.570312 22.695312 124.628906 24.195312 122.753906 C 24.640625 122.191406 25.085938 121.632812 25.503906 121.082031 L 25.558594 121.011719 C 31.957031 113.542969 38.035156 105.246094 39.175781 95.214844 C 39.332031 94.019531 39.476562 92.84375 39.617188 91.664062 C 39.710938 90.898438 39.949219 88.96875 39.949219 88.96875 L 39.945312 88.96875 L 40.160156 87.351562 C 40.542969 84.492188 41.113281 80.753906 42.132812 77.128906 C 41.90625 77.230469 41.664062 77.3125 41.40625 77.375 L 39.402344 75.925781 C 38.0625 73.042969 39.679688 68.726562 40.5 66.53125 C 40.5 66.53125 40.5 66.527344 40.503906 66.527344 L 40.363281 66.527344 L 41.3125 64.734375 L 41.558594 64.230469 L 41.578125 64.230469 C 43.417969 60.84375 46.234375 57.769531 50.183594 54.84375 C 50.183594 54.84375 51.25 54.09375 51.578125 53.867188 C 50.765625 53.554688 49.917969 53.125 49.230469 52.410156 L 48.523438 51.683594 L 48.996094 50.746094 L 49.089844 50.578125 L 49.1875 50.460938 C 50.195312 49.273438 51.582031 48.851562 52.808594 48.476562 C 53.183594 48.363281 53.558594 48.25 53.910156 48.109375 L 54.019531 48.070312 C 54.863281 47.816406 55.707031 47.574219 56.554688 47.34375 L 56.667969 47.3125 C 56.375 47.03125 56.125 46.734375 55.917969 46.417969 L 55.078125 45.148438 L 56.394531 44.394531 C 57.703125 43.640625 59.527344 43.277344 61.976562 43.277344 C 65.9375 43.277344 71.46875 44.238281 78.425781 46.140625 C 78.433594 46.09375 78.4375 46.050781 78.445312 46.007812 C 78.457031 45.9375 78.472656 45.863281 78.488281 45.789062 C 78.648438 45.058594 79.3125 43.328125 81.917969 43.328125 C 84.882812 43.328125 89.4375 45.765625 91.269531 47.441406 C 92.917969 48.828125 94.558594 50.511719 96.390625 52.703125 L 96.476562 52.808594 L 96.730469 52.523438 C 101.003906 47.710938 106.15625 42.195312 112.113281 37.597656 L 112.832031 37.042969 L 113.640625 37.460938 C 115.277344 38.308594 116.984375 39.234375 118.859375 40.285156 C 121.09375 41.574219 123.167969 42.964844 125.039062 44.4375 C 127.507812 46.339844 129.566406 48.519531 131.253906 50.402344 C 131.582031 50.757812 131.933594 51.128906 132.289062 51.496094 L 133.496094 52.746094 L 132.035156 53.6875 C 127.734375 56.460938 123.96875 59.71875 120.839844 63.371094 C 120.679688 63.558594 120.523438 63.742188 120.367188 63.929688 L 120.34375 63.960938 L 120.691406 64.445312 C 122.042969 66.316406 123.769531 68.820312 125.136719 71.59375 L 125.566406 72.46875 C 129.699219 70.589844 134.117188 69.460938 138.394531 68.367188 C 140.953125 67.710938 143.601562 67.035156 146.132812 66.207031 C 148.253906 65.511719 150.527344 64.628906 153.277344 63.433594 C 154.316406 63.011719 155.292969 62.542969 156.324219 62.042969 C 158.492188 60.996094 160.734375 59.914062 163.253906 59.5 C 163.734375 59.429688 164.191406 59.398438 164.636719 59.398438 C 167.222656 59.398438 169.609375 60.464844 171.542969 62.480469 C 173.914062 64.953125 175.296875 68.652344 175.148438 72.128906 C 175.03125 76.46875 173.324219 80.933594 169.941406 85.753906 C 161.695312 96.847656 148.714844 103.71875 136.035156 103.722656 C 132.746094 103.722656 129.511719 103.253906 126.425781 102.332031 C 124.835938 101.875 123.382812 101.410156 122.019531 100.921875 C 121.882812 110.417969 124.421875 119.824219 126.652344 126.964844 C 131.636719 143.628906 141.671875 156.3125 154.195312 161.78125 C 157.996094 163.488281 162.027344 164.347656 166.199219 164.347656 C 168.035156 164.347656 169.890625 164.175781 171.722656 163.839844 L 172.515625 163.71875 C 174.269531 163.453125 176.085938 163.175781 177.835938 162.824219 C 178.171875 162.765625 178.476562 162.703125 178.78125 162.644531 C 179.742188 162.457031 180.828125 162.246094 181.914062 162.246094 C 183.066406 162.246094 184.054688 162.480469 184.933594 162.957031 L 185.449219 164.992188 C 184.664062 166.191406 183.730469 167.25 182.667969 168.140625 C 183.289062 168.121094 183.910156 168.09375 184.535156 168.0625 C 185.507812 168.019531 186.511719 167.972656 187.515625 167.972656 C 189.019531 167.972656 190.265625 168.078125 191.429688 168.304688 L 191.539062 168.328125 L 191.644531 168.367188 C 193.285156 168.96875 193.511719 170.050781 193.5 170.644531 C 193.457031 173.070312 189.167969 174.613281 189.125 174.625 C 188.675781 174.773438 188.226562 174.917969 187.777344 175.0625 C 189.757812 175.398438 191.945312 175.570312 194.300781 175.570312 L 194.609375 175.570312 C 209.867188 175.296875 224.507812 169.535156 238.671875 163.960938 L 239.28125 163.71875 C 249.128906 159.535156 258.105469 157.132812 266.6875 156.390625 L 270.515625 156.0625 L 271.164062 155.640625 C 271.554688 155.394531 271.945312 155.148438 272.347656 154.914062 L 272.488281 154.832031 C 275.792969 152.933594 279.707031 151.492188 284.433594 150.4375 L 285.707031 152.882812 C 284.878906 153.640625 284.140625 154.371094 283.460938 155.09375 C 284.640625 155.132812 285.808594 155.21875 286.941406 155.304688 L 288.359375 155.433594 C 291.460938 155.71875 294.667969 156.015625 297.832031 156.527344 L 297.910156 159.332031 C 295.660156 159.828125 293.566406 160.613281 291.800781 161.613281 C 291.964844 161.667969 292.132812 161.71875 292.296875 161.769531 C 292.738281 161.90625 293.179688 162.039062 293.621094 162.171875 L 294.363281 162.414062 C 298.5625 163.777344 302.910156 165.191406 306.769531 167.671875 C 309.257812 169.359375 311.585938 171.445312 314.117188 174.253906 C 314.359375 174.523438 314.601562 174.796875 314.84375 175.074219 L 316.578125 174.621094 C 326.25 172.109375 334.460938 163.457031 336.546875 153.585938 C 337.492188 148.355469 337.53125 142.480469 336.660156 135.136719 L 336.652344 135.0625 L 336.652344 134.988281 C 336.636719 133.859375 337.019531 132.867188 337.753906 132.121094 C 338.59375 131.273438 339.816406 130.808594 341.203125 130.808594 C 341.9375 130.808594 342.679688 130.945312 343.347656 131.203125 C 346.007812 132.25 347.78125 134.40625 349.171875 136.378906 C 354.679688 145.179688 355.375 155.535156 355 162.6875 C 354.875 164.0625 354.65625 165.449219 354.28125 167.234375 C 353.699219 169.992188 352.582031 172.578125 351.398438 175.082031 C 351.617188 174.871094 351.828125 174.652344 352.035156 174.429688 C 353.859375 172.386719 355.277344 169.855469 356.652344 167.40625 L 357.113281 166.589844 C 357.527344 165.878906 357.875 165.128906 358.242188 164.335938 C 358.988281 162.734375 359.753906 161.078125 361.097656 159.714844 L 363.492188 160.347656 C 364.464844 163.992188 363.320312 167.75 362.308594 171.0625 C 362.171875 171.507812 362.039062 171.945312 361.910156 172.378906 C 360.308594 177.207031 357.667969 181.84375 354.042969 186.222656 C 355.699219 185.648438 357.332031 184.910156 358.792969 184.25 L 359.863281 183.769531 L 361.804688 185.492188 C 360.15625 190.832031 354.972656 194.21875 350.640625 196.570312 C 344.972656 199.476562 338.75 201.003906 332.613281 201.003906 C 332.402344 201.003906 332.1875 201 331.972656 201 C 332.796875 203.359375 333.609375 206.023438 334.367188 208.863281 C 337.273438 219.617188 335.914062 231.59375 330.726562 240.894531 C 330.164062 241.855469 329.527344 242.78125 328.765625 243.75 L 327.003906 245.992188 C 327.085938 246.667969 327.179688 247.328125 327.289062 247.972656 L 327.300781 247.992188 L 327.34375 248.296875 C 328.574219 256.648438 332.777344 264.992188 340.191406 273.796875 C 343.636719 278.042969 345.214844 283.769531 344.902344 290.835938 C 344.703125 297.394531 343.808594 303.832031 342.835938 310.394531 C 342.609375 312.023438 342.371094 313.667969 342.132812 315.3125 C 340.921875 323.679688 339.664062 332.335938 340.011719 340.828125 C 340.238281 342.351562 340.007812 343.789062 339.332031 345.101562 C 339.277344 345.210938 339.207031 345.339844 339.128906 345.46875 C 339.082031 345.554688 339.03125 345.636719 338.972656 345.71875 C 338.917969 345.8125 338.816406 345.957031 338.714844 346.09375 C 336.601562 348.957031 332.742188 350.171875 330.625 350.640625 C 330.292969 350.714844 329.941406 350.789062 329.570312 350.871094 C 327.480469 351.335938 324.617188 351.96875 321.964844 351.96875 C 319.257812 351.96875 317.269531 351.328125 315.894531 350.007812 C 315.605469 349.734375 315.34375 349.425781 315.121094 349.09375 L 315.027344 348.960938 L 314.96875 348.8125 C 314.800781 348.378906 314.714844 347.90625 314.714844 347.40625 C 314.714844 347.296875 314.71875 347.1875 314.726562 347.074219 C 314.734375 346.941406 314.761719 346.734375 314.804688 346.523438 C 315.136719 344.695312 316.496094 342.730469 317.699219 340.996094 C 318.289062 340.144531 318.84375 339.34375 319.152344 338.730469 L 319.179688 338.675781 L 319.210938 338.621094 C 320.605469 336.363281 321.640625 334.277344 322.378906 332.246094 C 326.386719 322.046875 324.722656 309.238281 317.933594 297.949219 L 317.097656 296.558594 C 316.972656 296.542969 316.851562 296.523438 316.726562 296.503906 C 316.402344 296.457031 316.066406 296.402344 315.734375 296.34375 C 304.960938 294.535156 295.554688 290.039062 288.535156 283.339844 C 286.539062 281.441406 284.617188 279.328125 282.828125 277.0625 L 282.761719 276.976562 C 282.550781 276.710938 282.328125 276.425781 282.113281 276.140625 L 281.152344 276.699219 C 270.910156 282.707031 260.550781 286.933594 250.367188 289.261719 C 244.222656 290.875 237.519531 291.699219 230.496094 291.699219 C 223.746094 291.699219 216.722656 290.976562 209.03125 289.488281 C 200.671875 287.941406 193.132812 286.121094 186 283.925781 L 185.019531 283.625 C 184.886719 283.980469 184.75 284.339844 184.601562 284.691406 C 183.574219 287.183594 182.183594 289.5 180.476562 291.578125 C 179.871094 292.304688 179.214844 293.035156 178.523438 293.753906 C 178.519531 293.761719 178.476562 293.808594 178.429688 293.851562 C 178.222656 294.070312 177.980469 294.3125 177.738281 294.554688 L 177.648438 294.644531 C 177.398438 294.890625 177.191406 295.09375 176.980469 295.292969 C 176.496094 295.761719 175.988281 296.238281 175.472656 296.710938 L 173.398438 300.695312 C 169.6875 307.828125 166.214844 314.875 164.460938 322.667969 C 163.605469 326.101562 163.105469 329.785156 162.921875 333.957031 C 162.90625 334.761719 162.910156 335.636719 162.910156 336.535156 C 162.914062 343.546875 162.925781 353.148438 153.691406 355.539062 L 153.574219 355.566406 C 151.601562 355.90625 149.855469 356.070312 148.238281 356.070312 Z M 37.980469 131.519531 C 37.554688 131.519531 36.964844 131.765625 36.671875 132.070312 L 36.617188 132.125 C 35.453125 133.195312 33.996094 135.355469 34.753906 136.921875 L 35.0625 137.5625 C 35.433594 137.273438 35.761719 136.992188 36.039062 136.746094 C 37.464844 135.425781 38.660156 133.75 39.664062 131.636719 L 39.175781 131.410156 L 38.253906 131.660156 C 38.230469 131.582031 38.207031 131.554688 38.207031 131.554688 C 38.199219 131.546875 38.125 131.519531 37.980469 131.519531 Z M 86.421875 90.511719 C 82.4375 90.511719 78.8125 93.949219 77.183594 99.269531 L 77.152344 99.367188 C 75.527344 103.574219 75.808594 109.417969 77.808594 112.953125 C 78.816406 114.734375 80.144531 115.78125 81.761719 116.0625 C 82.058594 116.113281 82.375 116.140625 82.695312 116.140625 C 83.144531 116.140625 83.628906 116.085938 84.128906 115.980469 C 84.859375 115.734375 85.605469 115.589844 86.40625 115.539062 C 88 115.261719 89.628906 114.359375 91.003906 112.996094 C 94.730469 109.128906 96.183594 102.242188 94.378906 96.980469 C 92.625 92.867188 89.726562 90.511719 86.421875 90.511719 Z M 86.421875 90.511719 " fill-opacity="1" fill-rule="nonzero"/><path fill="#fff9ec" d="M 255.25 342.191406 C 251.265625 342.191406 248.59375 341.289062 247.085938 339.4375 C 247.015625 339.359375 246.933594 339.253906 246.855469 339.136719 C 246.8125 339.078125 246.769531 339.019531 246.730469 338.957031 C 246.636719 338.816406 246.539062 338.644531 246.445312 338.46875 L 246.367188 338.324219 L 246.328125 338.164062 C 246.214844 337.722656 246.1875 337.265625 246.242188 336.800781 C 246.25 336.71875 246.265625 336.632812 246.28125 336.546875 C 246.308594 336.367188 246.359375 336.152344 246.429688 335.933594 C 246.976562 334.191406 248.515625 332.460938 249.875 330.933594 C 250.535156 330.1875 251.160156 329.484375 251.527344 328.933594 L 251.5625 328.882812 L 251.597656 328.835938 C 253.199219 326.832031 254.4375 324.953125 255.382812 323.09375 C 260.414062 313.777344 260.308594 301.296875 255.117188 289.675781 L 254.269531 287.796875 L 255.839844 287.335938 C 264.289062 284.84375 272.46875 281.304688 280.152344 276.816406 L 282.078125 275.691406 L 282.292969 277.910156 C 282.535156 280.40625 282.414062 283.125 281.9375 285.988281 C 280.976562 292.253906 279.367188 298.335938 277.664062 304.535156 C 277.261719 306.058594 276.84375 307.597656 276.425781 309.140625 C 274.277344 317.042969 272.058594 325.214844 271.398438 333.414062 C 271.433594 334.878906 271.0625 336.210938 270.300781 337.375 L 270.238281 337.464844 C 270.15625 337.585938 270.097656 337.664062 270.035156 337.746094 C 269.980469 337.820312 269.886719 337.9375 269.789062 338.050781 C 269.75 338.105469 269.6875 338.175781 269.617188 338.25 L 269.582031 338.292969 L 269.527344 338.347656 C 267.148438 340.867188 263.285156 341.582031 261.195312 341.785156 C 260.863281 341.816406 260.519531 341.847656 260.15625 341.882812 C 258.753906 342.019531 257.011719 342.191406 255.25 342.191406 Z M 255.25 342.191406 " fill-opacity="1" fill-rule="nonzero"/><path fill="#fff9ec" d="M 110.253906 340.382812 C 106.582031 340.382812 103.601562 339.496094 101.390625 337.742188 L 101.335938 337.699219 L 101.285156 337.652344 C 100.65625 337.042969 100.234375 336.308594 100.023438 335.46875 L 99.917969 335.054688 L 100.058594 334.652344 C 100.308594 333.941406 100.539062 333.222656 100.769531 332.503906 C 101.351562 330.683594 101.957031 328.808594 102.84375 327.011719 L 102.648438 326.867188 C 103.054688 326.097656 103.46875 325.332031 103.882812 324.566406 C 105.167969 322.1875 106.496094 319.730469 107.535156 317.222656 C 110.574219 310.230469 110.746094 302.496094 110.480469 295.175781 C 110.46875 294.609375 110.460938 294.058594 110.457031 293.511719 L 110.441406 291.042969 L 110.285156 290.570312 L 110.28125 290.558594 C 109.941406 289.507812 109.617188 288.394531 109.304688 287.175781 C 107.355469 280.265625 106.777344 272.550781 107.492188 262.929688 C 107.972656 256.433594 108.804688 250.53125 110.027344 244.882812 L 110.714844 241.722656 L 112.585938 244.359375 C 113.859375 246.152344 115.203125 247.90625 116.582031 249.570312 C 124.234375 258.40625 131.527344 264.480469 138.847656 268.113281 L 139.109375 268.113281 L 139.359375 268.363281 C 139.617188 268.488281 139.878906 268.609375 140.136719 268.726562 C 140.535156 268.90625 140.925781 269.078125 141.320312 269.242188 C 141.457031 269.300781 141.542969 269.335938 141.628906 269.371094 L 142.679688 269.789062 L 142.511719 270.910156 C 142.203125 272.957031 141.710938 275.003906 141.050781 277 C 141.007812 277.140625 140.960938 277.28125 140.914062 277.421875 L 140.914062 277.773438 L 140.722656 277.96875 C 140.710938 277.996094 140.488281 278.59375 140.488281 278.59375 C 140.425781 278.753906 140.367188 278.917969 140.300781 279.082031 C 140.1875 279.375 140.0625 279.679688 139.933594 279.980469 L 139.917969 280.023438 L 139.886719 280.089844 L 139.886719 280.386719 L 139.65625 280.621094 L 139.621094 280.695312 C 139.53125 280.898438 139.414062 281.152344 139.296875 281.40625 C 139.296875 281.40625 139.050781 281.921875 138.957031 282.105469 C 138.863281 282.300781 138.757812 282.507812 138.648438 282.714844 C 138.484375 283.035156 138.320312 283.34375 138.148438 283.652344 C 138.066406 283.808594 137.972656 283.96875 137.878906 284.132812 L 137.636719 284.554688 C 137.441406 284.886719 137.257812 285.191406 137.070312 285.496094 C 136.914062 285.75 136.746094 286.007812 136.578125 286.261719 L 136.550781 286.324219 L 136.441406 286.46875 C 136.300781 286.675781 136.160156 286.882812 136.019531 287.089844 L 136.011719 287.109375 C 136.011719 287.109375 135.664062 287.59375 135.558594 287.738281 L 135.558594 287.863281 L 135.21875 288.207031 C 135.03125 288.457031 134.839844 288.703125 134.648438 288.949219 C 134.441406 289.210938 134.242188 289.460938 134.039062 289.707031 L 133.910156 289.871094 L 133.894531 289.882812 C 133.78125 290.015625 133.308594 290.5625 133.308594 290.5625 C 133.140625 290.761719 132.945312 290.972656 132.753906 291.183594 C 132.613281 291.335938 132.464844 291.496094 132.3125 291.65625 L 132.117188 291.867188 C 132.117188 291.867188 131.875 292.109375 131.75 292.234375 L 130.503906 295.085938 C 128.628906 299.375 127.3125 303.265625 126.476562 306.980469 C 125.621094 310.414062 125.117188 314.097656 124.933594 318.269531 C 124.921875 319.074219 124.921875 319.949219 124.921875 320.847656 C 124.929688 327.859375 124.9375 337.457031 115.703125 339.851562 L 115.589844 339.878906 C 113.613281 340.214844 111.867188 340.382812 110.253906 340.382812 Z M 110.253906 340.382812 " fill-opacity="1" fill-rule="nonzero"/><path fill="#ffffff" d="M 86.054688 114.175781 C 89.054688 111.816406 89.847656 106.035156 88.523438 102.632812 C 87.730469 100.53125 85.835938 99.179688 83.695312 99.179688 C 81.828125 99.179688 80.203125 100.191406 79.242188 101.960938 C 78.800781 102.6875 78.488281 103.453125 78.277344 104.289062 L 75.472656 103.808594 C 75.707031 101.3125 76.390625 98.808594 77.398438 96.757812 C 79.269531 92.53125 82.480469 90.074219 86.183594 90.074219 C 86.648438 90.074219 87.117188 90.117188 87.582031 90.195312 C 92.40625 91.039062 95.824219 95.726562 95.898438 101.597656 C 96.03125 107.015625 92.859375 114.308594 87.496094 116.609375 Z M 86.054688 114.175781 " fill-opacity="1" fill-rule="nonzero"/><path fill="#8b8888" d="M 97.761719 362.800781 L 98.480469 361.789062 C 98.207031 361.898438 97.902344 361.976562 97.558594 362.023438 L 97.480469 362.03125 C 97.480469 362.03125 97.039062 362.039062 96.859375 362.039062 C 93.070312 362.039062 90.691406 361.144531 89.589844 359.308594 C 88.507812 357.5 88.808594 355.066406 90.519531 351.867188 C 91.605469 349.898438 92.824219 347.960938 94.003906 346.085938 C 95.78125 343.261719 97.621094 340.34375 98.980469 337.347656 L 99.890625 335.335938 L 101.351562 336.996094 C 103.234375 339.132812 107.328125 339.894531 110.261719 339.894531 C 110.414062 339.894531 110.777344 339.886719 110.777344 339.886719 L 110.835938 339.890625 C 111.128906 339.90625 111.421875 339.910156 111.707031 339.910156 C 114.785156 339.910156 117.523438 339.039062 119.617188 337.382812 L 123.425781 334.382812 L 121.746094 339.285156 C 120.957031 341.890625 120.472656 344.238281 120.273438 346.433594 C 120.140625 347.574219 120.164062 348.722656 120.191406 349.941406 C 120.242188 352.339844 120.296875 354.824219 119.144531 357.210938 C 116.675781 362.136719 109.410156 362.433594 104.105469 362.648438 C 103.179688 362.6875 102.316406 362.722656 101.558594 362.78125 C 101.179688 362.796875 100.851562 362.800781 100.523438 362.800781 Z M 97.761719 362.800781 " fill-opacity="1" fill-rule="nonzero"/><path fill="#8b8888" d="M 135.75 378.488281 L 136.46875 377.480469 C 136.195312 377.589844 135.886719 377.667969 135.546875 377.714844 L 135.46875 377.722656 C 135.46875 377.722656 135.03125 377.730469 134.859375 377.730469 C 131.0625 377.730469 128.683594 376.835938 127.578125 374.996094 C 126.496094 373.1875 126.800781 370.753906 128.511719 367.554688 C 129.59375 365.585938 130.8125 363.648438 131.992188 361.773438 C 133.769531 358.953125 135.609375 356.035156 136.96875 353.039062 L 137.882812 351.03125 L 139.339844 352.683594 C 141.222656 354.824219 145.316406 355.582031 148.246094 355.582031 C 148.402344 355.582031 148.757812 355.574219 148.757812 355.574219 L 148.8125 355.574219 C 149.113281 355.589844 149.40625 355.597656 149.699219 355.597656 C 152.773438 355.597656 155.507812 354.726562 157.605469 353.074219 L 161.40625 350.078125 L 159.726562 354.988281 C 158.945312 357.578125 158.457031 359.925781 158.261719 362.121094 C 158.125 363.261719 158.152344 364.414062 158.179688 365.628906 C 158.234375 368.03125 158.289062 370.515625 157.136719 372.898438 C 154.664062 377.824219 147.398438 378.121094 142.09375 378.335938 C 141.167969 378.375 140.304688 378.410156 139.546875 378.46875 C 139.167969 378.484375 138.84375 378.488281 138.515625 378.488281 Z M 135.75 378.488281 " fill-opacity="1" fill-rule="nonzero"/><path fill="#8b8888" d="M 250.601562 366 C 247.601562 365.816406 245.066406 365.40625 242.847656 364.757812 L 239.265625 363.707031 L 240.21875 363.253906 C 240.058594 363.265625 239.898438 363.269531 239.742188 363.269531 C 239.527344 363.269531 239.316406 363.257812 239.105469 363.238281 C 239.105469 363.238281 238.976562 363.222656 238.917969 363.214844 C 238.8125 363.199219 238.710938 363.183594 238.609375 363.164062 C 238.535156 363.152344 238.398438 363.121094 238.261719 363.085938 C 238.070312 363.027344 237.929688 362.976562 237.785156 362.921875 C 237.679688 362.875 237.613281 362.847656 237.546875 362.816406 C 237.394531 362.753906 237.191406 362.652344 236.988281 362.535156 C 236.9375 362.507812 236.828125 362.449219 236.828125 362.449219 L 236.625 362.316406 C 234.765625 361.117188 233.226562 358.800781 233.96875 356.320312 L 233.992188 356.242188 L 234.027344 356.164062 C 235.183594 353.472656 237.21875 351.46875 239.183594 349.53125 C 240.347656 348.382812 241.445312 347.300781 242.351562 346.101562 L 242.425781 346.011719 C 243.777344 344.492188 244.929688 342.632812 245.941406 340.320312 L 246.699219 338.589844 L 248.15625 339.792969 C 248.878906 340.386719 249.804688 340.855469 250.769531 341.113281 C 251.289062 341.203125 251.824219 341.28125 252.378906 341.351562 C 253.804688 341.523438 255.257812 341.613281 256.695312 341.613281 C 260.53125 341.613281 263.917969 340.988281 266.484375 339.8125 L 269.527344 338.414062 L 268.425781 341.578125 C 267.359375 344.648438 266.769531 347.199219 266.578125 349.609375 C 266.472656 350.863281 266.488281 352.089844 266.503906 353.390625 C 266.523438 354.84375 266.542969 356.34375 266.382812 357.882812 L 266.375 357.953125 L 266.359375 358.019531 C 264.773438 365.839844 254.914062 365.953125 250.707031 366.003906 L 250.652344 366.003906 Z M 250.601562 366 " fill-opacity="1" fill-rule="nonzero"/><path fill="#8b8888" d="M 319.929688 376.902344 C 318.007812 376.902344 316.289062 376.773438 314.679688 376.507812 L 310.996094 375.894531 L 312.039062 375.234375 C 311.636719 375.328125 311.25 375.386719 310.875 375.40625 C 310.777344 375.414062 310.65625 375.417969 310.535156 375.417969 C 310.285156 375.417969 310.039062 375.402344 309.789062 375.367188 C 309.355469 375.289062 308.988281 375.1875 308.625 375.050781 C 308.625 375.050781 308.558594 375.027344 308.496094 375 C 308.382812 374.960938 308.289062 374.917969 308.203125 374.878906 C 308.160156 374.859375 308 374.785156 308 374.785156 C 305.964844 373.792969 304.109375 371.625 304.554688 369.011719 L 304.570312 368.933594 L 304.59375 368.851562 C 305.445312 365.953125 307.277344 363.644531 309.046875 361.414062 C 310.101562 360.089844 311.09375 358.839844 311.878906 357.492188 L 311.941406 357.394531 C 313.140625 355.667969 314.089844 353.609375 314.84375 351.101562 L 315.390625 349.289062 L 316.980469 350.3125 C 317.796875 350.835938 318.8125 351.199219 319.847656 351.347656 C 320.390625 351.375 320.949219 351.386719 321.523438 351.386719 C 324.191406 351.386719 330.925781 351.0625 335.839844 348.042969 L 338.691406 346.289062 L 337.980469 349.5625 C 337.269531 352.84375 336.984375 355.542969 337.085938 358.050781 C 337.136719 359.351562 337.304688 360.609375 337.484375 361.945312 C 337.683594 363.429688 337.890625 364.964844 337.921875 366.5625 L 337.921875 366.632812 L 337.914062 366.699219 C 337.261719 374.878906 327.1875 376.230469 322.886719 376.804688 L 322.78125 376.816406 C 321.773438 376.875 320.839844 376.902344 319.929688 376.902344 Z M 319.929688 376.902344 " fill-opacity="1" fill-rule="nonzero"/><path fill="#cec6b4" d="M 155.722656 43.398438 C 154.964844 41.332031 154.070312 39.382812 153.0625 37.605469 C 150.78125 33.972656 147.960938 30.605469 144.941406 27.917969 L 142.367188 25.632812 L 145.804688 25.425781 C 147.207031 25.34375 148.628906 25.300781 150.03125 25.300781 C 160.503906 25.300781 170.128906 27.546875 177.867188 31.792969 L 177.972656 31.859375 C 178.148438 31.976562 178.53125 32.199219 179.046875 32.5 C 186.230469 36.699219 188.40625 38.6875 187.992188 40.671875 C 187.839844 41.421875 187.234375 42.363281 185.242188 42.601562 L 185.167969 42.613281 L 183.730469 42.632812 C 175 42.75 165.976562 42.871094 157.296875 44.316406 L 156.128906 44.511719 Z M 155.722656 43.398438 " fill-opacity="1" fill-rule="nonzero"/><path fill="#cec6b4" d="M 109.351562 21.667969 C 107.554688 17.621094 104.652344 14.332031 100.476562 11.609375 L 97.980469 9.984375 L 100.8125 9.058594 C 106.246094 7.277344 111.589844 6.375 116.691406 6.375 C 118.003906 6.375 119.300781 6.4375 120.539062 6.554688 L 120.597656 6.5625 L 120.660156 6.574219 C 120.839844 6.605469 121.222656 6.652344 121.734375 6.714844 C 129.125 7.621094 131.621094 8.503906 132 10.351562 C 132.148438 11.066406 131.980469 12.113281 130.363281 13.058594 L 130.296875 13.09375 L 129.078125 13.640625 C 123.152344 16.289062 117.027344 19.023438 111.375 22.320312 L 110 23.121094 Z M 109.351562 21.667969 " fill-opacity="1" fill-rule="nonzero"/><path fill="#afa690" d="M 132.097656 52.179688 C 128.171875 47.335938 123.632812 43.472656 118.609375 40.695312 C 117.230469 39.871094 115.835938 39.152344 114.433594 38.542969 L 112.121094 37.535156 L 114.175781 36.070312 C 117.738281 33.53125 121.261719 31.5625 124.949219 30.042969 C 130.191406 27.871094 136.238281 26.375 142.429688 25.707031 L 143.042969 25.640625 L 143.507812 26.039062 C 148.167969 30.007812 151.625 34.0625 154.078125 38.433594 C 154.921875 39.972656 155.53125 41.527344 156.015625 42.84375 L 156.59375 44.414062 L 154.953125 44.738281 C 153.679688 44.988281 152.40625 45.273438 151.171875 45.582031 C 144.988281 47.066406 139.191406 49.394531 133.933594 52.507812 L 132.875 53.136719 Z M 132.097656 52.179688 " fill-opacity="1" fill-rule="nonzero"/><path fill="#afa690" d="M 94.199219 33.910156 C 90.839844 29.625 85.65625 26.5625 78.792969 24.808594 L 76.296875 24.171875 L 78.160156 22.394531 C 83.503906 17.296875 90.519531 12.929688 97.90625 10.09375 L 98.542969 9.847656 L 99.132812 10.1875 C 103.40625 12.652344 107.191406 16.347656 110.386719 21.167969 L 111.207031 22.40625 L 109.941406 23.175781 C 107.710938 24.53125 105.699219 25.902344 103.789062 27.359375 C 101.113281 29.359375 98.621094 31.59375 96.363281 34.003906 L 95.226562 35.222656 Z M 94.199219 33.910156 " fill-opacity="1" fill-rule="nonzero"/><path fill="#8e846d" d="M 77.71875 46.738281 C 75.929688 46.023438 74.089844 45.46875 72.246094 45.085938 C 70.351562 44.679688 68.414062 44.363281 66.484375 44.148438 L 64.597656 43.941406 L 65.320312 42.1875 C 68.414062 34.703125 71.84375 29.070312 76.121094 24.460938 L 76.691406 23.84375 L 77.507812 24.042969 C 80.300781 24.734375 83.585938 25.652344 86.789062 27.25 C 89.882812 28.90625 92.710938 30.875 95.226562 33.117188 L 96.289062 34.0625 L 95.347656 35.128906 C 92.726562 38.09375 90.496094 41.28125 88.710938 44.597656 L 88.058594 45.8125 L 86.820312 45.199219 C 85.058594 44.324219 83.484375 43.863281 82.269531 43.863281 C 80.84375 43.863281 80.046875 44.453125 79.609375 45.84375 L 79.144531 47.308594 Z M 77.71875 46.738281 " fill-opacity="1" fill-rule="nonzero"/><path fill="#8e846d" d="M 58.746094 191.398438 C 56.867188 186.503906 54.480469 181.929688 51.644531 177.808594 C 50.554688 176.175781 49.363281 174.335938 48.269531 172.363281 C 48.148438 173.382812 48.144531 174.371094 48.257812 175.3125 L 45.757812 176.410156 C 42.914062 173.085938 39.351562 168.605469 37.058594 163.402344 L 36.203125 161.472656 L 38.316406 161.402344 C 41.707031 161.289062 45.292969 160.34375 48.761719 159.433594 C 50.441406 158.992188 52.023438 158.574219 53.570312 158.253906 C 55.390625 157.808594 57.386719 157.445312 59.628906 157.152344 L 60.828125 156.992188 L 61.179688 158.152344 C 61.4375 159.003906 61.707031 159.859375 61.980469 160.714844 C 63.753906 166.339844 65.589844 172.15625 64.613281 178.207031 L 62.460938 179.199219 C 61.628906 178.691406 61.066406 177.980469 60.59375 177.296875 C 61.832031 181.492188 62.792969 186.257812 61.457031 191.253906 Z M 58.746094 191.398438 " fill-opacity="1" fill-rule="nonzero"/><path fill="#fff9ec" d="M 37.921875 89.058594 C 28.09375 89.058594 20.332031 83.671875 16.074219 73.886719 C 14.808594 70.800781 14.210938 67.425781 14.328125 64.105469 C 14.605469 58.777344 16.742188 53.417969 20.898438 53.417969 C 22.46875 53.417969 24.136719 54.222656 25.859375 55.800781 C 30.046875 59.867188 34.558594 63.847656 39.933594 64.253906 L 41.941406 64.40625 L 41.132812 66.246094 C 40.765625 67.09375 40.445312 67.953125 40.183594 68.804688 C 39.453125 71.203125 38.980469 74.34375 39.855469 75.972656 C 40.089844 76.410156 40.40625 76.695312 40.84375 76.863281 C 40.988281 76.863281 41.125 76.851562 41.257812 76.832031 L 43.71875 76.472656 L 42.789062 78.777344 C 41.558594 81.824219 40.980469 85.050781 40.574219 87.808594 L 40.40625 88.972656 L 39.230469 89.027344 C 38.789062 89.046875 38.351562 89.058594 37.921875 89.058594 Z M 37.921875 89.058594 " fill-opacity="1" fill-rule="nonzero"/><path fill="#8e846d" d="M 133.289062 53.34375 C 133.355469 53.992188 132.699219 54.632812 132.125 54.671875 C 130.496094 55.316406 128.933594 56.140625 127.382812 57 C 123.015625 62.785156 116.929688 68.433594 109.382812 66.292969 C 105.453125 65.175781 101.257812 64.125 98.09375 61.402344 C 94.007812 57.800781 94.242188 53.09375 98.765625 50.011719 C 99.007812 49.828125 99.265625 49.632812 99.523438 49.441406 C 103.210938 43.976562 108.421875 38.289062 113.867188 37.617188 C 115.253906 38.019531 116.15625 39.136719 117.023438 40.296875 C 121.128906 42.300781 125.171875 44.777344 128.546875 47.867188 C 129.53125 48.84375 131.023438 49.90625 131.464844 51.269531 C 131.550781 51.335938 131.640625 51.402344 131.730469 51.472656 C 132.359375 51.988281 133.242188 52.429688 133.289062 53.34375 Z M 133.289062 53.34375 " fill-opacity="1" fill-rule="nonzero"/><path fill="#ffcbba" d="M 161.519531 68.628906 C 164.457031 68.957031 166.5 71.785156 166.425781 74.652344 C 166.273438 80.445312 161.925781 85.011719 157.632812 88.421875 C 149.410156 94.941406 138.550781 96.976562 128.261719 97.023438 C 128.085938 96.988281 127.917969 96.957031 127.75 96.925781 C 127.546875 96.882812 127.34375 96.835938 127.140625 96.796875 C 126.917969 96.753906 126.691406 96.714844 126.46875 96.675781 C 126.246094 96.640625 126.023438 96.597656 125.808594 96.546875 C 125.578125 96.492188 125.347656 96.433594 125.121094 96.371094 C 124.710938 96.265625 124.300781 96.167969 123.894531 96.054688 C 123.867188 96.046875 123.84375 96.042969 123.816406 96.035156 C 122.121094 95.027344 120.820312 93.339844 120.375 91.394531 C 120.367188 91.375 120.359375 91.347656 120.355469 91.328125 C 119.542969 89.894531 118.527344 88.667969 116.773438 88.503906 C 116.71875 88.492188 116.660156 88.488281 116.605469 88.476562 C 116.589844 88.476562 116.589844 88.457031 116.605469 88.457031 C 116.777344 88.394531 117.003906 88.339844 117.195312 88.300781 C 118.066406 88.125 118.847656 88.238281 119.546875 88.546875 C 119.507812 88.472656 119.46875 88.371094 119.519531 88.382812 C 119.664062 88.535156 119.886719 88.683594 120.117188 88.640625 C 120.652344 88.371094 121.214844 88.121094 121.796875 87.925781 C 123.089844 87.027344 124.730469 86.609375 126.179688 86.039062 C 128.558594 85.214844 130.882812 84.296875 133.097656 83.109375 C 140.574219 79.460938 146.027344 72.367188 154.238281 70.210938 C 156.601562 69.46875 158.964844 68.265625 161.519531 68.628906 Z M 120.636719 89.007812 L 120.640625 89.003906 C 120.636719 89.003906 120.636719 89.003906 120.632812 89.003906 C 120.632812 89.007812 120.636719 89.007812 120.636719 89.007812 Z M 120.390625 89.035156 C 120.386719 89.035156 120.386719 89.03125 120.386719 89.027344 C 120.386719 89.03125 120.386719 89.03125 120.386719 89.03125 C 120.386719 89.03125 120.386719 89.03125 120.390625 89.035156 Z M 120.390625 89.035156 " fill-opacity="1" fill-rule="nonzero"/><path fill="#000000" d="M 144.179688 76.589844 C 148.996094 73.386719 154.042969 69.566406 160.003906 69.132812 C 166.65625 69.222656 165.195312 77.777344 162.578125 81.59375 C 158.347656 88.085938 150.921875 91.871094 143.648438 93.984375 C 136.472656 95.882812 128.820312 95.832031 121.472656 95.011719 C 124.371094 96.460938 127.753906 97.160156 131 97.566406 C 132.015625 97.65625 133.039062 97.703125 134.070312 97.703125 C 144.472656 97.699219 155.363281 93.25 162.460938 85.714844 C 168.574219 79.484375 170.207031 65.179688 157.914062 66.933594 C 148.871094 69.042969 141.949219 75.734375 134.265625 80.546875 C 130.957031 82.714844 127.429688 84.523438 123.757812 86.007812 C 120.992188 87.023438 118.09375 88.308594 115.132812 88.335938 C 126.042969 90.675781 135.6875 82.359375 144.179688 76.589844 Z M 144.179688 76.589844 " fill-opacity="1" fill-rule="nonzero"/><g clip-path="url(#539623d70c)"><path fill="#000000" d="M 359.089844 160.691406 C 357.765625 163.25 356.445312 165.871094 354.976562 168.394531 C 355.050781 168.089844 355.125 167.789062 355.195312 167.480469 C 355.574219 165.695312 355.890625 163.902344 355.988281 162.070312 C 356.335938 152.808594 354.78125 142.828125 349.410156 135.078125 C 347.441406 132.453125 344.601562 129.792969 341.09375 129.871094 C 339.53125 129.90625 337.898438 130.347656 336.882812 131.625 C 334.910156 134.003906 335.988281 137.121094 336.234375 139.867188 C 336.34375 143.015625 336.378906 146.050781 336.167969 149.214844 C 335.582031 161.679688 326.578125 170.382812 315.5625 174.382812 C 313.257812 171.765625 310.730469 169.359375 307.890625 167.292969 C 304.066406 164.855469 299.074219 162.570312 294.042969 161.445312 C 296.015625 160.769531 298.054688 160.246094 300.035156 159.738281 C 303.402344 158.953125 302.707031 156.441406 299.667969 155.933594 C 295.21875 155.226562 290.074219 154.226562 285.25 154.507812 C 286.96875 153.136719 289.25 151.261719 287.246094 149.695312 C 285.375 148.867188 283.246094 149.746094 281.382812 150.226562 C 278.902344 150.972656 276.417969 151.726562 274.097656 152.902344 C 272.46875 153.617188 270.996094 154.550781 269.59375 155.585938 C 269.21875 155.558594 268.847656 155.539062 268.476562 155.527344 C 254.140625 155.539062 241.140625 162.273438 227.972656 167.082031 C 216.753906 171.109375 205.0625 174.816406 193.019531 174.617188 C 192.53125 174.589844 192.042969 174.566406 191.550781 174.542969 C 192.457031 174.007812 193.261719 173.324219 193.871094 172.421875 C 195.203125 170.578125 194.078125 167.90625 191.882812 167.445312 C 189.691406 166.878906 187.421875 166.996094 185.15625 167.101562 C 185.492188 166.714844 185.808594 166.308594 186.101562 165.878906 C 188.46875 161.765625 182.542969 160.789062 179.671875 161.507812 C 174.601562 162.398438 169.480469 163.613281 164.300781 163.367188 C 156.660156 162.808594 149.601562 159.039062 143.957031 154.003906 C 132.8125 144.21875 127.707031 129.636719 124.59375 115.53125 C 123.617188 111.066406 123.003906 106.328125 122.28125 101.730469 C 126.75 103.820312 131.851562 104.734375 136.71875 104.683594 C 153.6875 104.75 176.59375 88.785156 176.050781 70.570312 C 175.675781 63.691406 169.714844 57.089844 162.453125 58.667969 C 158.332031 59.632812 154.691406 61.957031 150.761719 63.472656 C 142.632812 67.015625 133.417969 67.898438 125.304688 71.542969 C 124.539062 68.699219 123.070312 66.03125 121.105469 63.820312 C 125.148438 60.105469 129.011719 56.863281 133.246094 54.128906 C 133.554688 53.929688 133.867188 53.734375 134.179688 53.542969 C 139.675781 50.136719 145.847656 47.570312 153.867188 45.957031 C 154.589844 45.808594 155.316406 45.675781 156.042969 45.542969 C 156.433594 45.472656 156.824219 45.40625 157.214844 45.339844 C 163.265625 44.316406 169.40625 43.808594 175.542969 43.6875 C 176.457031 43.554688 177.859375 43.617188 179.414062 43.679688 C 183.773438 43.859375 189.363281 44.035156 189.003906 39.949219 C 188.367188 36.390625 183.003906 33.980469 180.191406 32.046875 C 172.335938 27.109375 163.085938 24.996094 153.902344 24.515625 C 150.347656 24.289062 146.769531 24.347656 143.21875 24.671875 C 143.210938 24.667969 143.207031 24.664062 143.203125 24.660156 C 143.054688 24.675781 142.910156 24.699219 142.761719 24.710938 C 142.144531 24.773438 141.53125 24.847656 140.917969 24.925781 C 140.609375 24.964844 140.300781 24.988281 139.992188 25.03125 C 139.996094 25.035156 140 25.039062 140.007812 25.042969 C 130.027344 26.441406 120.402344 30.09375 112.320312 36.179688 C 112.320312 36.179688 112.316406 36.175781 112.3125 36.175781 C 111.734375 36.617188 111.160156 37.066406 110.597656 37.527344 C 110.597656 37.527344 110.601562 37.527344 110.601562 37.53125 C 110.515625 37.601562 110.421875 37.667969 110.332031 37.742188 C 105.46875 41.878906 100.46875 46.449219 96.628906 51.695312 C 95.949219 50.761719 95.210938 49.875 94.410156 49.042969 C 93.433594 47.898438 91.539062 46.3125 89.367188 44.980469 C 91.214844 41.617188 93.28125 38.507812 95.847656 35.550781 C 96.023438 35.34375 96.207031 35.140625 96.394531 34.933594 C 98.996094 32.039062 102.101562 29.289062 106.003906 26.59375 C 107.417969 25.609375 108.867188 24.667969 110.335938 23.765625 C 110.421875 23.710938 110.515625 23.65625 110.605469 23.601562 C 114.523438 21.207031 118.613281 19.078125 122.789062 17.175781 C 125.433594 15.558594 134.738281 13.777344 132.402344 9.445312 C 130.640625 6.777344 125.453125 6.699219 122.496094 6.113281 C 114.570312 4.878906 106.503906 6.316406 99.023438 9.019531 C 98.953125 9.042969 98.882812 9.070312 98.8125 9.09375 C 98.726562 9.128906 98.632812 9.160156 98.542969 9.191406 C 90.398438 12.097656 82.816406 16.75 76.746094 22.878906 C 76.746094 22.878906 76.742188 22.878906 76.742188 22.878906 C 76.5625 23.058594 76.390625 23.253906 76.214844 23.441406 C 75.796875 23.875 75.378906 24.308594 74.976562 24.757812 C 74.941406 24.800781 74.902344 24.835938 74.863281 24.878906 C 74.867188 24.878906 74.871094 24.878906 74.871094 24.878906 C 72.117188 27.972656 69.730469 31.398438 67.824219 35.136719 C 66.648438 37.519531 65.480469 39.992188 64.4375 42.523438 C 64.285156 42.511719 64.132812 42.5 63.984375 42.492188 C 61.683594 42.332031 58.851562 42.09375 56.605469 43.105469 C 55.085938 43.6875 54.214844 45.511719 55.082031 46.933594 C 52.667969 47.339844 50.386719 48.140625 48.644531 49.617188 C 46.996094 51.886719 48.191406 53.289062 50.15625 54.203125 C 45.914062 56.5 42.515625 60.21875 40.359375 64.550781 C 37.847656 63.789062 35.539062 62.523438 33.390625 60.980469 C 28.773438 58.371094 24.796875 50.726562 18.714844 52.859375 C 14.664062 54.851562 13.710938 60.003906 13.378906 64.101562 C 12.898438 76.453125 22.824219 89.40625 35.617188 89.847656 C 35.980469 89.855469 36.351562 89.863281 36.722656 89.863281 C 37.429688 89.863281 38.144531 89.839844 38.863281 89.792969 C 38.0625 95.890625 37.46875 102.046875 34.179688 107.449219 C 30.246094 115.378906 22.835938 121.035156 19.050781 129.023438 C 17.332031 132.90625 18.691406 136.910156 21.613281 139.339844 C 20.890625 140.789062 20.390625 142.324219 20.277344 143.9375 C 20.175781 148 22.757812 151.574219 26.222656 153.503906 C 26.289062 156.734375 28.195312 159.847656 31.125 161.445312 C 32.875 162.3125 34.75 162.714844 36.691406 162.8125 C 37.21875 165.214844 38.152344 167.527344 39.402344 169.664062 C 40.679688 171.796875 42.308594 173.695312 43.863281 175.632812 C 44.777344 176.652344 45.546875 177.902344 46.761719 178.59375 C 47.078125 178.785156 47.410156 178.871094 47.730469 178.871094 C 48.703125 178.871094 49.558594 178.074219 49.398438 176.9375 C 49.335938 176.324219 49.183594 175.800781 49.039062 175.242188 C 50.113281 177.316406 51.390625 179.300781 52.691406 181.195312 C 54.488281 184.082031 55.921875 186.949219 57.234375 190.1875 C 57.726562 191.335938 58.03125 192.679688 59.039062 193.492188 C 59.472656 193.710938 59.859375 193.804688 60.203125 193.804688 C 62.921875 193.804688 63.054688 187.738281 63.023438 185.683594 C 62.980469 183.804688 62.726562 181.957031 62.335938 180.136719 C 62.738281 180.265625 63.097656 180.324219 63.417969 180.324219 C 67.570312 180.324219 65.371094 170.257812 64.917969 167.558594 C 64.269531 164.363281 63.148438 161.289062 61.800781 158.324219 C 67.703125 157.675781 73.710938 157.523438 79.515625 156.421875 C 86.539062 167.617188 91.28125 175.667969 94.179688 196.675781 C 94.851562 201.097656 95.449219 205.550781 96.277344 209.953125 C 96.339844 210.28125 96.402344 210.605469 96.464844 210.933594 C 96.511719 211.171875 96.558594 211.414062 96.609375 211.648438 C 96.664062 211.9375 96.726562 212.230469 96.789062 212.519531 C 96.84375 212.789062 96.902344 213.0625 96.964844 213.335938 C 97.023438 213.617188 97.089844 213.898438 97.152344 214.179688 C 97.214844 214.4375 97.273438 214.695312 97.332031 214.957031 C 97.34375 214.988281 97.347656 215.015625 97.355469 215.046875 C 97.421875 215.316406 97.488281 215.585938 97.558594 215.855469 C 97.625 216.132812 97.695312 216.410156 97.769531 216.691406 C 98.261719 218.578125 98.828125 220.445312 99.492188 222.289062 C 102.058594 229.390625 105.449219 236.222656 109.609375 242.535156 C 108.804688 245.925781 108.136719 249.34375 107.632812 252.792969 C 106.292969 263.667969 104.210938 281.515625 110.71875 291.859375 C 110.703125 291.929688 110.6875 292 110.671875 292.066406 C 110.503906 292.886719 110.351562 293.703125 110.222656 294.527344 C 109.417969 299.265625 109.785156 303.863281 109.007812 308.683594 C 108.046875 314.917969 105.066406 320.507812 102.042969 325.972656 C 100.867188 328.335938 99.382812 330.644531 98.976562 333.292969 C 98.871094 334.074219 98.886719 334.785156 99.019531 335.433594 C 97.917969 337.515625 96.792969 339.597656 95.589844 341.691406 C 93.140625 346.1875 89.5625 350.1875 88.222656 355.210938 C 86.902344 360.144531 90.902344 362.855469 95.394531 362.910156 C 95.921875 362.992188 96.40625 363.03125 96.847656 363.03125 C 97.128906 363.03125 97.394531 363.015625 97.648438 362.984375 C 98.753906 363.285156 99.875 363.503906 101.03125 363.558594 C 101.757812 363.585938 102.570312 363.605469 103.441406 363.605469 C 108.703125 363.605469 116.019531 362.929688 118.929688 359.265625 C 121.984375 355.726562 120.867188 350.808594 121.214844 346.53125 C 121.664062 342.390625 123.085938 338.371094 123.949219 334.296875 C 124.972656 332.328125 125.585938 330.007812 125.730469 327.425781 C 125.929688 321.859375 125.640625 316.257812 126.65625 310.746094 C 127.703125 304.925781 129.632812 299.304688 132.023438 293.855469 C 132.304688 293.199219 132.609375 292.542969 132.933594 291.882812 C 135.054688 290.019531 136.84375 287.753906 138.234375 285.355469 C 140.933594 281.175781 142.769531 276.320312 142.808594 271.355469 C 143.308594 271.53125 143.8125 271.699219 144.316406 271.863281 C 145.449219 275.132812 145.707031 278.546875 144.898438 282.230469 C 143.675781 288.746094 142.417969 296.066406 145.257812 302.398438 C 146.128906 304.199219 147.242188 306.15625 148.664062 307.753906 C 148.488281 308.574219 148.339844 309.390625 148.210938 310.214844 C 147.40625 314.953125 147.769531 319.550781 146.996094 324.371094 C 146.035156 330.605469 143.054688 336.195312 140.03125 341.660156 C 138.855469 344.023438 137.371094 346.332031 136.964844 348.980469 C 136.855469 349.765625 136.875 350.476562 137.007812 351.125 C 135.902344 353.207031 134.777344 355.289062 133.582031 357.378906 C 131.132812 361.878906 127.554688 365.878906 126.214844 370.898438 C 124.890625 375.832031 128.890625 378.542969 133.386719 378.597656 C 134.246094 378.730469 134.992188 378.75 135.632812 378.671875 C 136.738281 378.972656 137.863281 379.191406 139.019531 379.246094 C 139.746094 379.273438 140.5625 379.292969 141.429688 379.292969 C 146.691406 379.292969 154.007812 378.617188 156.917969 374.953125 C 159.976562 371.414062 158.859375 366.496094 159.203125 362.21875 C 159.652344 358.078125 161.074219 354.058594 161.9375 349.980469 C 162.964844 348.011719 163.574219 345.691406 163.71875 343.113281 C 163.914062 337.546875 163.628906 331.945312 164.644531 326.433594 C 165.691406 320.613281 167.617188 314.992188 170.011719 309.542969 C 171.761719 305.453125 174.457031 301.382812 176.175781 297.113281 C 180.25 293.800781 183.628906 289.757812 185.601562 284.890625 C 198.992188 289.046875 214.972656 291.683594 223.4375 292.414062 C 224.78125 292.527344 226.140625 292.605469 227.484375 292.652344 C 236.324219 292.933594 245.484375 291.6875 254.429688 289.222656 C 254.660156 290.011719 254.898438 290.796875 255.132812 291.578125 C 257.195312 297.554688 258.621094 303.863281 258.167969 310.238281 C 257.789062 315.683594 255.917969 321.019531 252.921875 325.582031 C 251.914062 327.046875 250.816406 328.4375 249.679688 329.808594 C 247.941406 332.09375 245.320312 334.285156 245.296875 337.367188 C 245.332031 338.117188 245.570312 338.804688 245.945312 339.417969 C 245.945312 339.417969 245.945312 339.417969 245.945312 339.421875 C 244.59375 341.617188 243.179688 343.769531 241.507812 345.746094 C 238.847656 349.078125 235.046875 351.65625 233.28125 355.613281 C 231.941406 358.859375 234.273438 362.433594 237.308594 363.679688 C 237.910156 363.894531 238.496094 364.03125 239.070312 364.101562 C 239.660156 364.171875 240.238281 364.171875 240.796875 364.105469 C 242.609375 365.230469 244.671875 365.992188 246.679688 366.457031 C 247.039062 366.515625 247.410156 366.566406 247.796875 366.613281 C 254.296875 367.40625 263.589844 366.679688 266.59375 360.242188 C 267.933594 357.21875 267.148438 353.792969 267.394531 350.589844 C 267.519531 347.921875 267.929688 345.199219 268.335938 342.550781 C 268.449219 341.789062 268.558594 341.027344 268.660156 340.261719 C 268.757812 340.199219 268.859375 340.136719 268.953125 340.074219 C 272.578125 337.710938 272.113281 333.464844 272.636719 329.722656 C 273.742188 322.695312 275.53125 315.722656 277.375 308.839844 C 279.523438 300.179688 283.628906 288.601562 283.21875 279.035156 C 290.738281 287.949219 300.695312 294.542969 312.730469 296.671875 C 314.101562 296.914062 315.515625 297.09375 316.941406 297.171875 C 317.34375 298.09375 317.742188 299.011719 318.144531 299.921875 C 321.007812 305.796875 323.257812 312.09375 323.585938 318.691406 C 323.882812 324.324219 322.625 330.039062 320.117188 335.09375 C 319.269531 336.722656 318.316406 338.285156 317.320312 339.835938 C 315.824219 342.398438 313.40625 344.972656 313.765625 348.136719 C 313.898438 348.90625 314.230469 349.585938 314.6875 350.167969 C 313.574219 352.589844 312.394531 354.972656 310.925781 357.210938 C 308.609375 360.960938 305.03125 364.082031 303.714844 368.367188 C 302.746094 371.863281 305.585938 375.238281 308.855469 376.140625 C 310.160156 376.433594 311.375 376.414062 312.488281 376.144531 C 314.484375 377.066406 316.699219 377.597656 318.816406 377.820312 C 325.613281 378.046875 336.066406 376.351562 338.476562 368.953125 C 339.476562 365.683594 338.242188 362.265625 338.09375 358.949219 C 337.890625 356.195312 337.96875 353.351562 338.054688 350.582031 C 338.082031 349.785156 338.097656 348.988281 338.101562 348.191406 C 338.195312 348.117188 338.289062 348.039062 338.382812 347.960938 C 341.808594 345.085938 340.800781 340.78125 340.867188 336.878906 C 341.125 329.53125 342.09375 322.148438 343.125 314.859375 C 344.445312 304.105469 348.027344 288.886719 344.125 278.707031 C 342.421875 274.3125 338.925781 271.066406 336.347656 267.21875 C 331.820312 261.0625 329 253.753906 327.972656 246.179688 C 330.167969 243.617188 332.050781 240.824219 333.425781 237.71875 C 337.894531 226.214844 338.535156 212.402344 332.136719 201.492188 C 332.4375 201.550781 332.742188 201.601562 333.042969 201.652344 C 342.0625 202.363281 353.050781 197.867188 359.339844 191.367188 C 361.140625 189.367188 365.035156 184.492188 361.257812 182.664062 C 359.671875 182.367188 358.28125 183.570312 356.917969 184.191406 C 356.898438 184.199219 356.878906 184.207031 356.859375 184.214844 C 361.378906 178.195312 364.121094 170.65625 364.8125 163.359375 C 365.265625 158.789062 361.941406 155.996094 359.089844 160.691406 Z M 177.179688 33.046875 C 178.492188 33.925781 190.875 40.488281 185.070312 41.1875 C 175.734375 41.316406 166.292969 41.371094 157.058594 42.910156 C 156.296875 40.832031 155.386719 38.816406 154.304688 36.902344 C 152.023438 33.273438 149.179688 29.796875 145.882812 26.859375 C 156.867188 26.203125 168.210938 28.125 177.179688 33.046875 Z M 125.492188 31.363281 C 130.679688 29.214844 136.53125 27.785156 142.574219 27.136719 C 146.625 30.582031 150.242188 34.519531 152.832031 39.132812 C 153.570312 40.480469 154.140625 41.902344 154.671875 43.34375 C 153.386719 43.597656 152.105469 43.875 150.828125 44.195312 C 144.695312 45.667969 138.683594 48.050781 133.210938 51.289062 C 129.347656 46.523438 124.664062 42.410156 119.300781 39.445312 C 117.933594 38.628906 116.488281 37.894531 115.003906 37.242188 C 118.257812 34.925781 121.722656 32.914062 125.492188 31.363281 Z M 102.925781 26.226562 C 100.210938 28.253906 97.664062 30.554688 95.328125 33.054688 C 91.40625 28.042969 85.492188 25.058594 79.15625 23.433594 C 84.390625 18.445312 91.152344 14.222656 98.40625 11.433594 C 102.839844 13.992188 106.386719 17.714844 109.195312 21.960938 C 107.039062 23.273438 104.941406 24.683594 102.925781 26.226562 Z M 116.691406 7.804688 C 117.941406 7.804688 119.179688 7.859375 120.398438 7.976562 C 121.773438 8.230469 134.105469 9.226562 129.644531 11.824219 C 123.234375 14.691406 116.742188 17.542969 110.660156 21.089844 C 108.734375 16.757812 105.597656 13.269531 101.246094 10.425781 C 106.347656 8.757812 111.609375 7.804688 116.691406 7.804688 Z M 77.1875 25.433594 C 80.257812 26.195312 83.269531 27.089844 86.152344 28.527344 C 89.058594 30.082031 91.804688 31.984375 94.277344 34.1875 C 91.640625 37.167969 89.328125 40.433594 87.453125 43.921875 C 83.613281 42.015625 79.515625 41.398438 78.246094 45.414062 C 76.398438 44.675781 74.480469 44.089844 72.535156 43.6875 C 70.589844 43.269531 68.617188 42.953125 66.640625 42.730469 C 69.242188 36.433594 72.519531 30.46875 77.1875 25.433594 Z M 17.382812 73.316406 C 16.203125 70.429688 15.644531 67.28125 15.753906 64.160156 C 16.039062 58.726562 18.742188 51.207031 24.894531 56.851562 C 29.058594 60.894531 33.851562 65.21875 39.835938 65.667969 C 39.445312 66.558594 39.101562 67.464844 38.820312 68.390625 C 37.945312 71.246094 36.828125 77.164062 40.601562 78.289062 C 40.902344 78.300781 41.1875 78.285156 41.464844 78.246094 C 40.261719 81.234375 39.636719 84.386719 39.167969 87.585938 C 28.964844 88.058594 21.46875 82.699219 17.382812 73.316406 Z M 63.203125 177.976562 C 62.234375 177.386719 61.6875 176.3125 61.027344 175.414062 C 60.082031 172.582031 58.910156 169.816406 57.746094 167.105469 C 56.714844 164.863281 55.597656 162.660156 54.355469 160.53125 C 54.753906 162.40625 55.292969 164.402344 55.765625 166.308594 C 56.019531 167.464844 56.339844 168.617188 56.6875 169.773438 C 56.683594 169.769531 56.683594 169.765625 56.679688 169.765625 C 56.710938 169.867188 56.746094 169.964844 56.777344 170.066406 C 57.070312 171.03125 57.382812 171.992188 57.703125 172.957031 C 58.019531 173.910156 58.335938 174.867188 58.640625 175.824219 C 60.21875 180.753906 61.453125 185.734375 60.078125 190.886719 C 58.199219 185.992188 55.789062 181.320312 52.816406 177 C 51.230469 174.617188 49.675781 172.132812 48.414062 169.53125 C 48.273438 169.246094 48.136719 168.957031 48.003906 168.667969 C 47.296875 167.113281 46.699219 165.519531 46.28125 163.875 C 46.109375 166.21875 46.453125 168.46875 47.121094 170.636719 C 46.773438 172.222656 46.644531 173.847656 46.839844 175.480469 C 43.566406 171.65625 40.414062 167.457031 38.367188 162.820312 C 43.578125 162.644531 49.117188 160.636719 53.863281 159.652344 C 55.824219 159.171875 57.8125 158.832031 59.816406 158.566406 C 61.746094 164.925781 64.269531 171.367188 63.203125 177.976562 Z M 120.390625 338.835938 C 119.652344 341.277344 119.082031 343.765625 118.851562 346.308594 C 118.449219 349.71875 119.410156 353.382812 117.859375 356.589844 C 115.378906 361.535156 106.285156 360.984375 101.449219 361.355469 C 101.140625 361.371094 100.832031 361.375 100.523438 361.375 C 101.699219 359.722656 101.785156 357.046875 101.878906 354.386719 C 102.140625 351.242188 102.929688 348.191406 103.914062 345.171875 C 102.542969 347.066406 101.347656 349.285156 100.558594 351.53125 C 100.15625 352.730469 99.84375 353.960938 99.640625 355.207031 C 99.144531 356.972656 99.8125 360.292969 97.375 360.609375 C 91.117188 360.738281 88.5625 358.558594 91.777344 352.539062 C 94.449219 347.6875 97.964844 343.035156 100.277344 337.9375 C 102.59375 340.566406 107.347656 341.40625 110.753906 341.316406 C 111.074219 341.332031 111.394531 341.339844 111.707031 341.339844 C 115.21875 341.339844 118.199219 340.320312 120.503906 338.503906 C 120.464844 338.613281 120.429688 338.726562 120.390625 338.835938 Z M 139.695312 276.550781 C 139.695312 276.558594 139.691406 276.570312 139.6875 276.578125 C 139.628906 276.769531 139.5625 276.960938 139.5 277.148438 C 139.492188 277.15625 139.488281 277.171875 139.488281 277.179688 C 139.488281 277.183594 139.488281 277.183594 139.488281 277.1875 C 139.488281 277.1875 139.488281 277.1875 139.484375 277.191406 C 139.46875 277.234375 139.453125 277.277344 139.4375 277.320312 C 139.414062 277.390625 139.386719 277.464844 139.359375 277.535156 C 139.351562 277.5625 139.339844 277.589844 139.332031 277.621094 C 139.273438 277.777344 139.214844 277.933594 139.15625 278.085938 C 139.097656 278.242188 139.039062 278.398438 138.976562 278.550781 C 138.855469 278.859375 138.726562 279.171875 138.597656 279.476562 C 138.589844 279.496094 138.582031 279.515625 138.574219 279.535156 C 138.558594 279.578125 138.539062 279.617188 138.519531 279.660156 C 138.5 279.703125 138.480469 279.75 138.460938 279.792969 C 138.460938 279.796875 138.457031 279.796875 138.457031 279.800781 C 138.457031 279.804688 138.457031 279.804688 138.457031 279.804688 C 138.441406 279.84375 138.425781 279.878906 138.40625 279.917969 C 138.40625 279.921875 138.402344 279.929688 138.398438 279.9375 C 138.394531 279.953125 138.386719 279.964844 138.378906 279.980469 C 138.367188 280.003906 138.355469 280.03125 138.34375 280.058594 C 138.226562 280.320312 138.105469 280.585938 137.984375 280.847656 C 137.976562 280.855469 137.976562 280.863281 137.972656 280.871094 C 137.875 281.074219 137.78125 281.269531 137.679688 281.46875 C 137.585938 281.667969 137.484375 281.867188 137.378906 282.0625 C 137.222656 282.367188 137.0625 282.667969 136.898438 282.96875 C 136.816406 283.117188 136.734375 283.265625 136.648438 283.414062 C 136.5625 283.5625 136.476562 283.707031 136.394531 283.855469 C 136.21875 284.152344 136.042969 284.445312 135.859375 284.738281 C 135.679688 285.027344 135.496094 285.3125 135.304688 285.597656 C 135.300781 285.613281 135.289062 285.625 135.277344 285.640625 C 135.097656 285.910156 134.914062 286.175781 134.730469 286.445312 C 134.726562 286.453125 134.71875 286.457031 134.714844 286.46875 C 134.523438 286.738281 134.328125 287.007812 134.132812 287.273438 C 134.132812 287.277344 134.128906 287.277344 134.128906 287.28125 C 133.929688 287.550781 133.726562 287.8125 133.523438 288.074219 C 133.3125 288.335938 133.105469 288.597656 132.894531 288.851562 C 132.886719 288.863281 132.878906 288.871094 132.867188 288.882812 L 132.863281 288.886719 C 132.738281 289.039062 132.609375 289.191406 132.480469 289.339844 C 132.402344 289.429688 132.328125 289.523438 132.246094 289.613281 C 132.070312 289.816406 131.886719 290.019531 131.703125 290.214844 C 131.550781 290.382812 131.394531 290.550781 131.238281 290.714844 C 131.234375 290.71875 131.230469 290.722656 131.226562 290.726562 C 131.039062 290.925781 130.847656 291.121094 130.652344 291.316406 L 130.648438 291.320312 C 128.738281 293.230469 126.625 294.914062 124.335938 296.300781 C 126.054688 295.960938 127.679688 295.34375 129.195312 294.515625 C 127.484375 298.433594 126.03125 302.457031 125.082031 306.667969 C 124.140625 310.445312 123.679688 314.324219 123.507812 318.207031 C 123.363281 325.636719 124.558594 336.082031 115.34375 338.472656 C 111.078125 339.207031 105.847656 339.453125 102.277344 336.625 C 101.816406 336.179688 101.542969 335.667969 101.40625 335.125 C 102.355469 332.394531 103.054688 329.585938 104.449219 327.015625 C 104.257812 327.183594 104.078125 327.355469 103.910156 327.535156 C 105.613281 324.308594 107.453125 321.144531 108.851562 317.769531 C 111.953125 310.644531 112.183594 302.773438 111.90625 295.125 C 111.894531 294.589844 111.886719 294.046875 111.882812 293.503906 C 112.625 294.445312 113.460938 295.308594 114.398438 296.070312 C 114.453125 296.101562 114.605469 296.085938 114.523438 296.0625 C 113.945312 295.714844 113.660156 294.96875 113.308594 294.371094 C 112.757812 293.210938 112.285156 292.015625 111.867188 290.804688 C 111.816406 290.648438 111.761719 290.492188 111.710938 290.335938 C 111.707031 290.328125 111.703125 290.320312 111.703125 290.316406 C 111.324219 289.164062 110.988281 287.996094 110.683594 286.816406 C 108.507812 279.085938 108.320312 271.042969 108.917969 263.039062 C 109.359375 257.046875 110.144531 251.070312 111.421875 245.1875 C 112.710938 247.003906 114.0625 248.769531 115.484375 250.480469 C 121.820312 257.800781 129.5625 265.179688 138.515625 269.542969 C 138.515625 269.542969 138.519531 269.542969 138.523438 269.542969 C 138.863281 269.710938 139.207031 269.875 139.550781 270.027344 C 139.957031 270.214844 140.363281 270.390625 140.773438 270.5625 C 140.882812 270.609375 140.992188 270.652344 141.101562 270.695312 C 140.800781 272.671875 140.332031 274.632812 139.695312 276.550781 Z M 158.378906 354.523438 C 157.636719 356.964844 157.066406 359.453125 156.839844 361.996094 C 156.4375 365.40625 157.398438 369.074219 155.851562 372.277344 C 153.371094 377.222656 144.273438 376.671875 139.4375 377.042969 C 139.128906 377.058594 138.824219 377.0625 138.515625 377.0625 C 139.6875 375.410156 139.773438 372.738281 139.867188 370.074219 C 140.128906 366.929688 140.917969 363.878906 141.90625 360.863281 C 140.535156 362.753906 139.335938 364.972656 138.546875 367.21875 C 138.144531 368.417969 137.832031 369.648438 137.632812 370.898438 C 137.136719 372.660156 137.796875 375.980469 135.359375 376.296875 C 129.105469 376.425781 126.554688 374.246094 129.769531 368.226562 C 132.4375 363.382812 135.953125 358.726562 138.269531 353.628906 C 140.582031 356.253906 145.339844 357.09375 148.738281 357.003906 C 152.664062 357.203125 155.976562 356.171875 158.484375 354.195312 C 158.449219 354.304688 158.414062 354.417969 158.378906 354.523438 Z M 265.15625 349.496094 C 264.925781 352.269531 265.25 354.960938 264.960938 357.738281 C 263.679688 364.042969 255.925781 364.515625 250.6875 364.578125 C 248.253906 364.425781 245.675781 364.101562 243.25 363.390625 C 246.933594 361.632812 249.601562 357.171875 250.628906 353.351562 C 248.394531 356.414062 246.113281 359.78125 242.453125 361.261719 C 241.445312 361.644531 240.316406 361.9375 239.230469 361.816406 L 239.226562 361.816406 C 239.191406 361.8125 239.160156 361.808594 239.128906 361.804688 C 239.054688 361.792969 238.984375 361.785156 238.914062 361.769531 C 238.824219 361.753906 238.730469 361.734375 238.640625 361.710938 C 238.53125 361.675781 238.425781 361.640625 238.316406 361.59375 C 238.261719 361.574219 238.207031 361.550781 238.15625 361.527344 C 238 361.460938 237.847656 361.386719 237.695312 361.296875 C 237.648438 361.269531 237.59375 361.242188 237.546875 361.210938 C 237.539062 361.207031 237.53125 361.207031 237.527344 361.203125 C 237.480469 361.171875 237.4375 361.144531 237.394531 361.117188 C 235.921875 360.167969 234.816406 358.464844 235.335938 356.730469 C 237.03125 352.792969 240.949219 350.328125 243.492188 346.960938 C 245.109375 345.144531 246.289062 343.078125 247.246094 340.894531 C 248.1875 341.671875 249.355469 342.222656 250.46875 342.511719 C 251.027344 342.605469 251.605469 342.691406 252.203125 342.765625 C 253.628906 342.941406 255.144531 343.039062 256.695312 343.039062 C 260.292969 343.039062 264.039062 342.503906 267.078125 341.109375 C 266.128906 343.832031 265.382812 346.636719 265.15625 349.496094 Z M 280.527344 285.753906 C 279.574219 291.992188 277.957031 298.085938 276.289062 304.15625 C 273.746094 313.769531 270.757812 323.429688 269.96875 333.378906 C 270.011719 334.648438 269.683594 335.710938 269.105469 336.59375 C 269.078125 336.632812 269.050781 336.675781 269.023438 336.714844 C 268.992188 336.761719 268.957031 336.808594 268.921875 336.855469 C 268.847656 336.949219 268.773438 337.046875 268.695312 337.140625 C 268.65625 337.1875 268.617188 337.230469 268.574219 337.277344 C 268.546875 337.308594 268.515625 337.335938 268.488281 337.367188 C 266.710938 339.253906 263.644531 340.117188 261.058594 340.367188 C 257.546875 340.671875 250.75 341.675781 248.1875 338.535156 C 248.128906 338.464844 248.070312 338.394531 248.023438 338.316406 C 247.988281 338.273438 247.960938 338.230469 247.933594 338.1875 C 247.851562 338.066406 247.777344 337.9375 247.710938 337.808594 C 247.636719 337.53125 247.621094 337.246094 247.664062 336.953125 C 247.664062 336.902344 247.675781 336.847656 247.683594 336.796875 C 247.707031 336.65625 247.742188 336.515625 247.789062 336.367188 C 248.496094 334.109375 251.53125 331.503906 252.714844 329.726562 C 254.210938 327.855469 255.566406 325.882812 256.652344 323.742188 C 262.417969 313.066406 261.265625 299.9375 256.421875 289.09375 C 256.363281 288.964844 256.304688 288.835938 256.246094 288.703125 C 264.839844 286.171875 273.210938 282.523438 280.871094 278.050781 C 281.121094 280.601562 280.953125 283.214844 280.527344 285.753906 Z M 335.660156 358.109375 C 335.769531 360.980469 336.441406 363.703125 336.492188 366.589844 C 335.964844 373.21875 328.0625 374.671875 322.695312 375.390625 C 320.179688 375.539062 317.492188 375.527344 314.914062 375.097656 C 318.476562 372.839844 320.65625 367.929688 321.234375 363.875 C 319.324219 367.300781 317.402344 371.039062 313.832031 373.015625 C 312.898438 373.503906 311.855469 373.921875 310.792969 373.980469 C 310.707031 373.988281 310.621094 373.992188 310.535156 373.992188 C 310.347656 373.992188 310.164062 373.976562 309.976562 373.953125 C 309.691406 373.902344 309.40625 373.820312 309.125 373.714844 C 309.074219 373.699219 309.027344 373.679688 308.980469 373.660156 C 308.914062 373.632812 308.847656 373.605469 308.789062 373.574219 C 308.730469 373.554688 308.679688 373.527344 308.625 373.5 C 306.996094 372.707031 305.648438 371.101562 305.960938 369.253906 C 307.210938 365.003906 310.921875 361.984375 313.109375 358.210938 C 314.546875 356.144531 315.5 353.875 316.210938 351.515625 C 317.273438 352.195312 318.535156 352.613281 319.714844 352.769531 C 324.9375 353.035156 331.847656 352.171875 336.585938 349.257812 C 335.953125 352.171875 335.539062 355.140625 335.660156 358.109375 Z M 360.539062 171.976562 C 358.699219 177.519531 355.546875 182.449219 351.675781 186.785156 C 351.613281 186.855469 351.554688 186.921875 351.496094 186.988281 C 351.335938 187.164062 351.179688 187.335938 351.015625 187.511719 C 350.914062 187.621094 350.8125 187.730469 350.710938 187.839844 C 350.472656 188.09375 350.230469 188.34375 349.988281 188.59375 C 347.847656 190.792969 345.527344 192.828125 343.121094 194.703125 C 347.191406 193.242188 350.746094 190.84375 353.746094 187.824219 C 356.15625 187.070312 358.503906 185.933594 360.441406 185.074219 C 358.953125 189.886719 354.1875 193.019531 349.957031 195.320312 C 344.058594 198.339844 337.507812 199.847656 330.914062 199.539062 C 330.328125 198.636719 329.671875 197.78125 328.816406 197.160156 C 328.757812 197.136719 328.664062 197.082031 328.59375 197.105469 C 328.582031 197.109375 328.582031 197.125 328.59375 197.125 C 328.609375 197.121094 328.617188 197.128906 328.628906 197.128906 C 329.253906 197.757812 329.601562 198.609375 329.90625 199.476562 C 329.976562 199.675781 330.042969 199.875 330.113281 200.074219 C 330.144531 200.164062 330.175781 200.253906 330.207031 200.339844 C 330.296875 200.605469 330.398438 200.867188 330.507812 201.117188 C 330.507812 201.125 330.511719 201.136719 330.515625 201.148438 C 331.433594 203.765625 332.261719 206.519531 332.988281 209.230469 C 335.738281 219.414062 334.640625 230.945312 329.480469 240.203125 C 328.933594 241.132812 328.308594 242.019531 327.640625 242.871094 C 327.550781 241.542969 327.519531 240.207031 327.539062 238.871094 C 327.632812 236.269531 327.476562 233.183594 329.074219 231.003906 C 328.992188 230.941406 328.757812 231.152344 328.714844 231.1875 C 328.160156 231.652344 327.785156 232.296875 327.421875 232.917969 C 325.441406 236.722656 325.089844 241.089844 325.5 245.339844 C 325.523438 245.601562 325.546875 245.855469 325.582031 246.113281 C 325.671875 246.886719 325.785156 247.648438 325.917969 248.410156 C 325.917969 248.414062 325.917969 248.417969 325.917969 248.425781 C 327.367188 258.386719 332.714844 267.132812 339.101562 274.71875 C 342.742188 279.207031 343.726562 285.101562 343.476562 290.773438 C 343.277344 297.289062 342.378906 303.746094 341.421875 310.1875 C 340.015625 320.371094 338.15625 330.65625 338.589844 340.964844 C 338.800781 342.296875 338.578125 343.453125 338.0625 344.445312 C 338.011719 344.554688 337.953125 344.65625 337.890625 344.757812 C 337.863281 344.8125 337.832031 344.859375 337.796875 344.910156 C 337.726562 345.023438 337.648438 345.136719 337.566406 345.246094 C 335.976562 347.402344 332.941406 348.667969 330.316406 349.25 C 326.753906 350.003906 319.90625 351.875 316.878906 348.976562 C 316.664062 348.773438 316.472656 348.542969 316.296875 348.289062 C 316.1875 348.015625 316.140625 347.71875 316.140625 347.40625 C 316.140625 347.34375 316.144531 347.277344 316.148438 347.210938 C 316.15625 347.078125 316.171875 346.941406 316.203125 346.804688 C 316.640625 344.398438 319.433594 341.34375 320.425781 339.371094 C 321.726562 337.261719 322.871094 335.066406 323.722656 332.734375 C 328.308594 321.066406 325.484375 307.738281 319.15625 297.210938 C 321.804688 297.160156 324.433594 296.722656 326.84375 295.71875 C 326.855469 295.714844 326.84375 295.699219 326.835938 295.703125 C 326.808594 295.714844 326.785156 295.730469 326.757812 295.738281 C 326.660156 295.761719 326.535156 295.796875 326.410156 295.800781 C 323.582031 295.800781 320.730469 295.617188 317.90625 295.234375 C 317.585938 295.191406 317.261719 295.144531 316.941406 295.09375 C 316.621094 295.046875 316.296875 294.996094 315.976562 294.9375 C 306.171875 293.292969 296.769531 289.226562 289.519531 282.308594 C 287.53125 280.417969 285.675781 278.367188 283.945312 276.179688 C 283.929688 276.15625 283.914062 276.136719 283.894531 276.109375 C 283.660156 275.816406 283.433594 275.523438 283.207031 275.222656 C 282.984375 274.929688 282.765625 274.632812 282.546875 274.335938 C 282.523438 274.304688 282.5 274.277344 282.480469 274.246094 C 274.078125 262.726562 269.25 247.992188 269.453125 234.027344 C 269.773438 224.921875 271.628906 215.734375 272.324219 206.691406 C 269.617188 212.933594 268.253906 219.613281 267.625 226.359375 C 266.382812 235.925781 267.1875 245.640625 270.207031 254.828125 C 272.480469 262.183594 275.921875 269.265625 280.433594 275.46875 C 270.960938 281.023438 260.820312 285.410156 250.050781 287.871094 C 236.695312 291.378906 222.761719 290.691406 209.300781 288.089844 C 201.585938 286.660156 193.925781 284.875 186.417969 282.5625 C 186.710938 281.570312 186.949219 280.542969 187.125 279.488281 C 188.601562 270.410156 188.679688 261.148438 188.226562 251.984375 C 188.042969 246.316406 186.683594 240.636719 185.492188 235.175781 C 184.734375 242.503906 185.941406 249.855469 186.054688 257.191406 C 186.183594 264.175781 185.96875 271.007812 184.972656 278.039062 C 184.78125 279.324219 184.496094 280.597656 184.113281 281.835938 C 183.875 282.621094 183.597656 283.394531 183.285156 284.144531 C 182.3125 286.492188 180.996094 288.699219 179.375 290.671875 C 178.773438 291.394531 178.144531 292.089844 177.496094 292.765625 C 177.46875 292.792969 177.445312 292.816406 177.421875 292.84375 C 177.195312 293.082031 176.960938 293.3125 176.730469 293.546875 C 176.6875 293.589844 176.644531 293.628906 176.601562 293.671875 C 176.40625 293.867188 176.207031 294.0625 176.003906 294.25 C 175.460938 294.777344 174.90625 295.296875 174.34375 295.804688 C 171.503906 298.375 168.515625 300.789062 165.828125 303.527344 C 167.984375 302.503906 170.105469 301.339844 172.132812 300.039062 C 168.410156 307.1875 164.851562 314.433594 163.070312 322.355469 C 162.128906 326.132812 161.667969 330.011719 161.496094 333.898438 C 161.351562 341.324219 162.546875 351.769531 153.332031 354.160156 C 149.066406 354.894531 143.835938 355.140625 140.265625 352.3125 C 139.800781 351.867188 139.53125 351.355469 139.394531 350.8125 C 140.34375 348.082031 141.042969 345.273438 142.4375 342.707031 C 142.25 342.871094 142.066406 343.050781 141.894531 343.230469 C 143.597656 340 145.4375 336.835938 146.839844 333.457031 C 149.9375 326.332031 150.171875 318.460938 149.890625 310.8125 C 149.878906 310.199219 149.875 309.582031 149.871094 308.960938 C 151.175781 310.09375 152.699219 310.898438 154.476562 311.09375 C 154.84375 311.125 155.363281 311.046875 155.617188 310.847656 C 155.261719 310.9375 154.894531 310.851562 154.554688 310.753906 C 152.433594 309.863281 150.996094 308.203125 149.855469 306.289062 C 149.855469 306.289062 149.855469 306.289062 149.855469 306.285156 C 149.8125 306.210938 149.765625 306.136719 149.726562 306.0625 C 149.664062 305.960938 149.605469 305.855469 149.546875 305.753906 C 149.449219 305.582031 149.351562 305.40625 149.261719 305.226562 C 149.257812 305.226562 149.257812 305.21875 149.253906 305.214844 C 148.511719 303.808594 147.878906 302.324219 147.21875 300.9375 C 144.699219 294.535156 146.394531 287.804688 147.457031 281.207031 C 147.964844 278.328125 147.835938 275.394531 147.082031 272.609375 C 147.042969 272.464844 147.003906 272.324219 146.960938 272.183594 C 146.871094 271.878906 146.777344 271.578125 146.667969 271.277344 C 146.632812 271.175781 146.597656 271.078125 146.558594 270.976562 C 146.511719 270.847656 146.46875 270.722656 146.414062 270.597656 C 146.167969 269.964844 145.882812 269.335938 145.566406 268.726562 C 143.777344 265.042969 141.546875 261.542969 139.640625 257.894531 C 139.636719 257.890625 139.636719 257.890625 139.636719 257.886719 C 139.53125 257.679688 139.421875 257.476562 139.320312 257.265625 C 139.210938 257.058594 139.109375 256.851562 139.007812 256.644531 C 137.933594 254.476562 137.003906 252.242188 136.378906 249.882812 C 135.039062 244.898438 135.363281 239.695312 135.628906 234.582031 C 135.917969 231.050781 135.742188 227.488281 136.320312 223.964844 C 136.679688 222.046875 137.199219 220.175781 138.007812 218.394531 C 136.699219 219.8125 135.675781 221.652344 134.949219 223.480469 C 133.269531 227.847656 133.410156 232.625 133.117188 237.226562 C 132.957031 240.730469 132.890625 244.207031 133.492188 247.691406 C 134.269531 252.722656 136.484375 257.191406 138.929688 261.574219 C 139.324219 262.285156 139.726562 262.992188 140.125 263.695312 C 140.355469 264.101562 140.582031 264.5 140.808594 264.902344 C 141.035156 265.296875 141.261719 265.699219 141.484375 266.097656 C 141.691406 266.472656 141.898438 266.847656 142.105469 267.222656 C 142.183594 267.351562 142.261719 267.480469 142.335938 267.609375 C 142.414062 267.734375 142.484375 267.863281 142.554688 267.988281 C 142.769531 268.367188 142.96875 268.746094 143.164062 269.125 C 143 269.050781 142.839844 268.972656 142.683594 268.898438 C 142.648438 268.878906 142.613281 268.863281 142.582031 268.847656 C 142.265625 268.695312 141.953125 268.542969 141.644531 268.394531 C 141.542969 268.34375 141.441406 268.292969 141.339844 268.242188 C 141.195312 268.171875 141.050781 268.097656 140.90625 268.023438 C 140.585938 267.867188 140.265625 267.703125 139.949219 267.539062 C 139.800781 267.464844 139.652344 267.386719 139.507812 267.308594 C 139.246094 267.175781 138.992188 267.039062 138.738281 266.898438 C 135.476562 265.152344 132.339844 263.183594 129.453125 260.855469 C 122.804688 255.53125 116.960938 249.160156 112.144531 242.082031 C 111.957031 241.8125 111.773438 241.539062 111.59375 241.265625 C 111.480469 241.097656 111.367188 240.921875 111.253906 240.753906 C 110.964844 240.304688 110.675781 239.855469 110.390625 239.410156 C 104.898438 230.675781 100.929688 220.980469 98.871094 210.914062 C 98.695312 209.976562 98.53125 209.039062 98.367188 208.101562 C 98.367188 208.097656 98.367188 208.097656 98.367188 208.09375 C 98.304688 207.722656 98.242188 207.355469 98.179688 206.984375 C 98.105469 206.539062 98.03125 206.09375 97.960938 205.652344 C 95.855469 192.640625 94.523438 179.34375 88.617188 167.382812 C 86.71875 163.390625 84.417969 159.605469 82.039062 155.882812 C 84.101562 155.375 86.132812 154.71875 88.117188 153.847656 C 97.511719 149.835938 111.605469 141.210938 111.96875 129.859375 C 111.945312 129.457031 111.964844 129 111.847656 128.632812 C 111.835938 128.625 111.820312 128.636719 111.824219 128.652344 C 110.710938 134.722656 105.171875 139.765625 100.699219 143.703125 C 94.84375 148.421875 87.980469 151.960938 80.667969 153.746094 C 80.410156 153.808594 80.160156 153.871094 79.90625 153.925781 C 79.636719 153.988281 79.367188 154.046875 79.09375 154.105469 C 78.847656 154.15625 78.601562 154.207031 78.351562 154.253906 C 78.292969 154.265625 78.230469 154.273438 78.171875 154.285156 C 77.660156 154.382812 77.140625 154.472656 76.625 154.550781 C 71.59375 155.308594 66.472656 155.285156 61.425781 155.9375 C 61.183594 155.960938 60.941406 155.996094 60.703125 156.027344 C 60.699219 156.023438 60.699219 156.023438 60.699219 156.023438 C 60.554688 156.039062 60.410156 156.0625 60.265625 156.078125 C 59.914062 156.125 59.5625 156.167969 59.210938 156.21875 C 59.1875 156.222656 59.160156 156.226562 59.136719 156.230469 C 59.140625 156.230469 59.140625 156.230469 59.140625 156.230469 C 54.792969 156.878906 50.542969 158.03125 46.285156 159.105469 C 43.449219 159.691406 40.316406 160.453125 37.265625 160.4375 C 36.980469 160.433594 36.695312 160.429688 36.410156 160.410156 C 35.054688 160.335938 33.722656 160.089844 32.449219 159.582031 C 29.773438 158.4375 27.949219 156.472656 27.09375 153.941406 C 27.910156 154.316406 28.761719 154.601562 29.628906 154.78125 C 37.320312 156.269531 45.039062 152.726562 51.648438 149.105469 C 54.996094 147.105469 58.238281 144.867188 60.949219 142.050781 C 63.210938 139.75 64.851562 137.003906 66.570312 134.296875 C 58.339844 141.914062 49.222656 149.628906 37.890625 152.191406 C 31.65625 154.0625 23.421875 151.742188 22.550781 144.414062 C 22.46875 143.007812 22.667969 141.652344 23.027344 140.324219 C 24.019531 140.894531 25.125 141.300781 26.308594 141.507812 C 30.238281 142.378906 34.121094 140.375 36.988281 137.8125 C 40.320312 134.722656 42.015625 130.363281 43.113281 126.046875 C 42.03125 127.730469 40.894531 129.5625 39.628906 131.324219 C 39.632812 131.3125 39.628906 131.296875 39.628906 131.285156 C 39.125 129.449219 36.667969 130.023438 35.648438 131.074219 C 33.988281 132.601562 32.390625 135.316406 33.46875 137.546875 C 32.171875 138.363281 30.742188 138.96875 29.160156 139.273438 C 27.347656 139.488281 25.382812 138.992188 23.804688 137.980469 C 23.726562 137.933594 23.648438 137.878906 23.574219 137.828125 C 23.554688 137.816406 23.535156 137.800781 23.515625 137.785156 C 23.441406 137.734375 23.371094 137.683594 23.296875 137.628906 C 23.214844 137.566406 23.132812 137.503906 23.058594 137.441406 C 22.980469 137.375 22.898438 137.308594 22.824219 137.242188 C 22.734375 137.160156 22.648438 137.082031 22.5625 136.996094 C 22.894531 136.507812 23.085938 135.820312 23.242188 135.332031 C 23.839844 133.550781 24.382812 131.128906 22.800781 129.699219 C 22.433594 129.378906 21.9375 129.28125 21.488281 129.386719 C 22.664062 126.648438 24.878906 124.28125 26.644531 121.941406 C 33.207031 114.277344 39.421875 105.683594 40.59375 95.375 C 40.847656 93.445312 41.074219 91.496094 41.316406 89.542969 C 41.320312 89.542969 41.320312 89.542969 41.320312 89.542969 C 41.40625 88.878906 41.488281 88.210938 41.578125 87.542969 C 42.035156 84.121094 42.601562 80.710938 43.539062 77.402344 C 45.082031 76.316406 46.179688 74.390625 47.300781 72.625 C 47.296875 74.371094 47.792969 75.996094 49.007812 77.128906 C 51.316406 79.1875 54.96875 78.773438 57.378906 77.097656 C 59.558594 75.6875 61.128906 73.582031 63.015625 71.832031 C 63.203125 71.65625 63.390625 71.484375 63.578125 71.3125 C 63.851562 73.253906 65.007812 74.828125 67.4375 75.199219 C 72.632812 75.089844 76.082031 70.429688 80.261719 67.964844 C 82.605469 66.496094 85.214844 65.515625 87.855469 64.714844 C 90.652344 63.96875 93.445312 62.890625 96.390625 63.128906 C 92.984375 61.445312 85.539062 62.628906 81.378906 64.628906 C 79.105469 65.738281 77.023438 67.210938 75.058594 68.785156 C 72.773438 70.503906 70.324219 72.90625 67.28125 72.785156 C 66.03125 72.308594 65.464844 71.144531 65.339844 69.742188 C 65.328125 69.65625 65.324219 69.570312 65.320312 69.480469 C 65.308594 69.277344 65.304688 69.070312 65.3125 68.859375 C 65.3125 68.78125 65.316406 68.707031 65.320312 68.632812 C 65.324219 68.558594 65.328125 68.480469 65.335938 68.402344 C 65.363281 68.011719 65.417969 67.617188 65.496094 67.21875 C 65.507812 67.152344 65.523438 67.082031 65.539062 67.015625 C 65.550781 66.949219 65.566406 66.882812 65.582031 66.816406 C 65.964844 65.117188 66.703125 63.503906 67.453125 62.625 C 65.792969 63.605469 64.410156 65.773438 63.820312 68.042969 C 63.003906 68.648438 62.21875 69.292969 61.484375 70.003906 C 59.390625 71.921875 57.6875 74.375 55.089844 75.664062 C 50.191406 77.5625 48.984375 73.738281 49.488281 69.738281 C 49.523438 69.464844 49.566406 69.1875 49.617188 68.917969 C 49.632812 68.828125 49.648438 68.734375 49.667969 68.644531 C 49.722656 68.371094 49.785156 68.097656 49.851562 67.832031 C 49.886719 67.691406 49.925781 67.554688 49.964844 67.414062 C 50.007812 67.261719 50.054688 67.113281 50.097656 66.96875 C 50.148438 66.808594 50.203125 66.660156 50.253906 66.507812 C 50.308594 66.359375 50.359375 66.210938 50.414062 66.070312 C 50.796875 65.085938 51.261719 64.222656 51.769531 63.59375 C 50.597656 64.335938 49.5 65.6875 48.691406 67.28125 C 46.75 68.886719 45.449219 71.128906 44.085938 73.210938 C 43.273438 74.269531 42.460938 75.660156 41.078125 75.988281 L 41.097656 75.960938 C 39.335938 73.847656 40.953125 69.390625 41.835938 67.03125 C 42.042969 66.515625 42.273438 66.011719 42.523438 65.515625 C 42.570312 65.417969 42.621094 65.320312 42.675781 65.21875 C 44.609375 61.511719 47.675781 58.480469 51.03125 55.992188 C 51.496094 55.667969 51.96875 55.332031 52.449219 55 C 53.867188 55.382812 55.300781 55.628906 56.226562 55.828125 C 58.539062 56.277344 60.957031 56.730469 63.253906 56.972656 C 60.484375 55.730469 57.675781 54.5625 54.824219 53.511719 C 54.703125 53.46875 54.582031 53.421875 54.457031 53.378906 C 54.34375 53.332031 54.234375 53.285156 54.117188 53.242188 C 54.007812 53.199219 53.898438 53.160156 53.789062 53.121094 C 53.5625 53.039062 53.328125 52.960938 53.089844 52.882812 C 52.054688 52.542969 51 52.191406 50.253906 51.417969 C 50.261719 51.40625 50.265625 51.398438 50.273438 51.386719 C 50.273438 51.386719 50.273438 51.386719 50.273438 51.390625 C 50.273438 51.386719 50.273438 51.386719 50.273438 51.386719 C 51.292969 50.191406 53.039062 49.992188 54.433594 49.4375 C 55.261719 49.1875 56.09375 48.949219 56.929688 48.722656 C 58.753906 49.953125 61.070312 50.515625 63.125 51.226562 C 65.390625 51.894531 67.769531 52.566406 70.054688 52.972656 C 67.234375 51.464844 64.40625 49.988281 61.542969 48.574219 C 61.140625 48.339844 60.691406 48.121094 60.230469 47.894531 C 60.179688 47.871094 60.128906 47.84375 60.082031 47.820312 C 59.976562 47.769531 59.875 47.722656 59.773438 47.667969 C 59.636719 47.601562 59.503906 47.53125 59.371094 47.460938 C 59.277344 47.410156 59.183594 47.359375 59.089844 47.308594 C 58.992188 47.257812 58.902344 47.203125 58.8125 47.144531 C 58.71875 47.09375 58.632812 47.039062 58.542969 46.976562 C 58.453125 46.921875 58.363281 46.863281 58.277344 46.796875 C 58.191406 46.738281 58.109375 46.675781 58.023438 46.609375 C 57.667969 46.328125 57.355469 46.003906 57.109375 45.632812 C 60.921875 43.4375 70.949219 45.554688 78.484375 47.636719 C 79.082031 49.449219 80.578125 51.046875 82.148438 51.945312 C 81.347656 51.136719 80.742188 49.988281 80.28125 48.902344 C 80.175781 48.609375 80.089844 48.332031 80.023438 48.074219 C 80.007812 48.011719 79.992188 47.945312 79.976562 47.878906 C 79.945312 47.753906 79.917969 47.632812 79.898438 47.515625 C 79.886719 47.457031 79.875 47.398438 79.871094 47.339844 C 79.859375 47.285156 79.851562 47.230469 79.847656 47.175781 C 79.839844 47.121094 79.835938 47.066406 79.832031 47.015625 C 79.820312 46.882812 79.816406 46.753906 79.820312 46.636719 C 79.820312 46.558594 79.824219 46.488281 79.828125 46.417969 C 79.835938 46.351562 79.84375 46.289062 79.855469 46.230469 C 79.859375 46.191406 79.871094 46.152344 79.878906 46.109375 C 80.621094 42.742188 88.101562 46.480469 90.304688 48.496094 C 92.140625 50.039062 93.761719 51.785156 95.292969 53.617188 C 93.894531 55.75 92.699219 57.992188 91.792969 60.359375 C 93.328125 58.589844 94.871094 56.804688 96.4375 55.019531 C 96.894531 54.496094 97.355469 53.972656 97.816406 53.449219 C 102.507812 48.167969 107.429688 43.023438 112.976562 38.746094 C 114.71875 39.644531 116.449219 40.570312 118.160156 41.527344 C 120.238281 42.726562 122.265625 44.070312 124.160156 45.558594 C 126.375 47.269531 128.320312 49.273438 130.1875 51.351562 C 130.546875 51.738281 130.917969 52.105469 131.277344 52.484375 C 126.984375 55.253906 123.066406 58.578125 119.753906 62.441406 C 119.589844 62.636719 119.421875 62.832031 119.261719 63.03125 C 119.171875 63.140625 119.082031 63.246094 118.996094 63.355469 C 118.832031 63.550781 118.675781 63.75 118.519531 63.949219 C 116.984375 65.894531 115.601562 67.96875 114.390625 70.164062 C 116.171875 68.464844 117.871094 66.835938 119.53125 65.28125 C 121.136719 67.503906 122.652344 69.785156 123.855469 72.226562 C 123.089844 72.613281 122.328125 73.03125 121.585938 73.476562 C 119.367188 74.753906 117.261719 76.273438 115.417969 78.050781 C 113.910156 79.585938 112.101562 81.402344 111.742188 83.519531 C 114.308594 79.765625 118.9375 77.941406 122.707031 75.570312 C 123.402344 75.152344 124.113281 74.761719 124.828125 74.402344 C 124.882812 74.375 124.929688 74.347656 124.984375 74.324219 C 125.128906 74.25 125.269531 74.183594 125.417969 74.113281 C 125.539062 74.054688 125.660156 74 125.78125 73.941406 C 132.351562 70.867188 139.652344 69.828125 146.574219 67.566406 C 149.046875 66.753906 151.460938 65.777344 153.847656 64.742188 C 157.046875 63.457031 160.042969 61.472656 163.484375 60.910156 C 169.683594 60.019531 173.960938 66.417969 173.722656 72.070312 C 173.59375 76.769531 171.429688 81.152344 168.769531 84.933594 C 159.40625 97.539062 142.394531 105.617188 126.832031 100.964844 C 125.179688 100.488281 123.523438 99.964844 121.894531 99.359375 C 121.480469 99.203125 121.070312 99.042969 120.660156 98.878906 C 118.359375 97.960938 116.132812 96.859375 114.070312 95.503906 C 115.886719 97.714844 118.113281 99.492188 120.59375 100.871094 C 120.457031 109.867188 122.609375 118.808594 125.289062 127.390625 C 129.734375 142.25 138.992188 156.699219 153.625 163.089844 C 159.398438 165.679688 165.742188 166.394531 171.980469 165.246094 C 174.03125 164.929688 176.085938 164.632812 178.117188 164.222656 C 180.105469 163.882812 182.367188 163.1875 184.253906 164.214844 C 183.476562 165.402344 182.574219 166.382812 181.574219 167.191406 C 181.472656 167.273438 181.371094 167.351562 181.265625 167.429688 C 181.175781 167.496094 181.085938 167.5625 181 167.625 C 180.945312 167.664062 180.890625 167.703125 180.832031 167.742188 C 180.75 167.800781 180.664062 167.859375 180.578125 167.910156 C 180.503906 167.964844 180.429688 168.011719 180.351562 168.054688 C 180.117188 168.207031 179.875 168.34375 179.632812 168.472656 C 179.519531 168.535156 179.40625 168.59375 179.292969 168.652344 C 179.191406 168.699219 179.089844 168.75 178.992188 168.796875 C 178.910156 168.835938 178.828125 168.875 178.746094 168.910156 C 178.640625 168.953125 178.539062 169 178.4375 169.042969 C 178.300781 169.101562 178.160156 169.15625 178.023438 169.207031 C 177.875 169.265625 177.730469 169.316406 177.585938 169.371094 C 177.488281 169.402344 177.394531 169.433594 177.292969 169.464844 C 171.355469 171.394531 163.890625 169.859375 158.097656 168.207031 C 161.53125 170.398438 165.523438 172.238281 169.652344 172.683594 C 173.992188 173 178.710938 172.042969 182.355469 169.574219 C 185.292969 169.519531 188.265625 169.140625 191.152344 169.707031 C 193.847656 170.695312 189.894531 172.875 188.683594 173.269531 C 187.710938 173.589844 186.734375 173.898438 185.753906 174.203125 C 185.152344 174.386719 184.546875 174.570312 183.941406 174.746094 C 183.492188 174.878906 183.039062 175.011719 182.582031 175.144531 C 178.96875 176.175781 175.320312 177.074219 171.636719 177.8125 C 176.667969 178.398438 181.75 177.832031 186.601562 176.4375 C 186.699219 176.410156 186.796875 176.378906 186.894531 176.351562 C 189.457031 176.847656 192.097656 177.015625 194.617188 177 C 210.371094 176.714844 225.328125 170.746094 239.804688 165.050781 C 248.417969 161.386719 257.488281 158.621094 266.8125 157.8125 C 264.441406 159.816406 262.144531 161.921875 259.476562 163.523438 C 263.683594 162.621094 267.199219 159.96875 270.78125 157.59375 C 270.96875 157.46875 271.164062 157.34375 271.351562 157.21875 C 271.542969 157.09375 271.730469 156.972656 271.925781 156.851562 C 272.304688 156.609375 272.6875 156.371094 273.074219 156.140625 C 273.105469 156.121094 273.136719 156.105469 273.171875 156.085938 C 276.75 154.027344 280.734375 152.726562 284.742188 151.832031 C 283.664062 152.820312 282.601562 153.878906 281.617188 155 C 279.640625 155.445312 277.769531 156.199219 276.097656 157.394531 C 277.449219 156.898438 278.882812 156.65625 280.339844 156.554688 C 280.351562 156.554688 280.359375 156.554688 280.371094 156.550781 C 280.507812 156.542969 280.648438 156.535156 280.785156 156.527344 C 280.933594 156.519531 281.082031 156.511719 281.230469 156.511719 C 281.347656 156.503906 281.46875 156.5 281.589844 156.5 C 282.023438 156.492188 282.460938 156.496094 282.894531 156.503906 C 284.273438 156.535156 285.652344 156.640625 286.992188 156.738281 C 290.535156 157.070312 294.078125 157.363281 297.601562 157.9375 C 295.058594 158.5 292.523438 159.441406 290.320312 160.839844 C 287.800781 160.585938 285.339844 160.699219 283.085938 161.304688 C 284.921875 161.324219 286.726562 161.671875 288.515625 162.148438 C 288.699219 162.195312 288.882812 162.242188 289.066406 162.296875 C 289.195312 162.328125 289.324219 162.367188 289.453125 162.402344 C 289.691406 162.472656 289.929688 162.542969 290.164062 162.613281 C 290.347656 162.664062 290.527344 162.71875 290.710938 162.777344 C 290.714844 162.777344 290.714844 162.777344 290.714844 162.777344 L 290.71875 162.777344 C 291.554688 163.03125 292.382812 163.292969 293.210938 163.539062 C 297.605469 164.972656 302.082031 166.355469 305.996094 168.875 C 308.652344 170.671875 310.9375 172.855469 313.054688 175.207031 C 313.453125 175.652344 313.84375 176.097656 314.234375 176.550781 C 318.425781 181.441406 322.105469 186.871094 327.03125 191.070312 C 323.992188 185.929688 320.777344 180.683594 316.9375 176.003906 C 327.199219 173.335938 335.757812 164.21875 337.941406 153.878906 C 339.070312 147.640625 338.820312 141.226562 338.078125 134.96875 C 338.042969 132.441406 340.847656 131.765625 342.832031 132.535156 C 345.050781 133.410156 346.652344 135.285156 348.003906 137.203125 C 352.671875 144.660156 354.03125 153.953125 353.574219 162.613281 C 353.441406 164.074219 353.183594 165.511719 352.886719 166.941406 C 352.195312 170.195312 350.691406 173.269531 349.242188 176.28125 C 349.066406 176.640625 348.894531 177 348.722656 177.359375 C 348.328125 178.140625 347.960938 178.929688 347.621094 179.738281 C 346.460938 182.441406 345.582031 185.269531 344.886719 188.125 C 346.980469 184.421875 349.421875 180.789062 351.464844 176.976562 C 352.03125 176.476562 352.570312 175.949219 353.078125 175.40625 C 355.234375 172.992188 356.769531 170.097656 358.355469 167.292969 C 359.625 165.125 360.328125 162.53125 362.113281 160.714844 C 363.101562 164.421875 361.59375 168.394531 360.539062 171.976562 Z M 360.539062 171.976562 " fill-opacity="1" fill-rule="nonzero"/></g><path fill="#000000" d="M 75.820312 98.851562 C 73.269531 105.457031 74.902344 116.3125 81.515625 117.46875 C 81.894531 117.53125 82.285156 117.566406 82.695312 117.566406 C 83.269531 117.566406 83.875 117.496094 84.511719 117.359375 C 85.191406 117.121094 85.871094 116.996094 86.566406 116.957031 C 88.578125 116.628906 90.476562 115.527344 92.011719 114.007812 C 96.195312 109.660156 97.699219 102.191406 95.710938 96.46875 C 91.050781 85.460938 79.394531 87.171875 75.820312 98.851562 Z M 86.933594 115.296875 C 90.390625 112.582031 91.4375 106.183594 89.855469 102.113281 C 88.785156 99.28125 86.25 97.753906 83.699219 97.75 C 81.503906 97.75 79.292969 98.878906 77.988281 101.277344 C 77.503906 102.074219 77.136719 102.980469 76.894531 103.941406 C 77.113281 101.59375 77.75 99.28125 78.679688 97.386719 C 80.746094 92.714844 84.191406 91.054688 87.335938 91.601562 C 91.082031 92.253906 94.402344 96.042969 94.46875 101.613281 C 94.601562 106.933594 91.488281 113.34375 86.933594 115.296875 Z M 86.933594 115.296875 " fill-opacity="1" fill-rule="nonzero"/><path fill="#ffffff" d="M 85.550781 105.859375 C 84.730469 104.996094 84.347656 103.84375 84.441406 102.664062 C 84.542969 101.332031 85.5625 100.191406 86.765625 99.710938 C 87.582031 99.386719 88.445312 99.390625 89.289062 99.5625 C 89.847656 99.675781 90.285156 100.058594 90.542969 100.546875 C 91.097656 100.605469 91.621094 100.875 91.945312 101.359375 C 92.664062 102.441406 92.894531 103.769531 92.40625 105.003906 C 91.902344 106.277344 90.597656 107.183594 89.238281 107.269531 C 89.128906 107.277344 89.023438 107.28125 88.917969 107.28125 C 87.648438 107.28125 86.441406 106.789062 85.550781 105.859375 Z M 85.550781 105.859375 " fill-opacity="1" fill-rule="nonzero"/></svg>