<svg xmlns="http://www.w3.org/2000/svg" xmlns:xlink="http://www.w3.org/1999/xlink" width="512" zoomAndPan="magnify" viewBox="0 0 384 383.999986" height="512" preserveAspectRatio="xMidYMid meet" version="1.0"><defs><clipPath id="eef834f89f"><path d="M 9.691406 73.671875 L 372.441406 73.671875 L 372.441406 308.113281 L 9.691406 308.113281 Z M 9.691406 73.671875 " clip-rule="nonzero"/></clipPath></defs><g clip-path="url(#eef834f89f)"><path fill="#231f20" d="M 78.652344 306.90625 C 163.757812 288.949219 212.394531 253.785156 262.078125 236.160156 C 286.71875 227.421875 308.285156 226.390625 324.957031 226.671875 C 346.394531 227.03125 361.390625 227.449219 370.320312 213.496094 C 377.933594 195.300781 365.125 179.054688 330.683594 169.527344 C 308.792969 157.4375 298.695312 153.019531 278.285156 147.140625 C 278.035156 142.355469 277.941406 123.894531 274.503906 105.957031 C 271.089844 88.152344 263.363281 85.726562 246.574219 80.628906 C 234.800781 77.050781 222.253906 74.859375 208.558594 73.980469 C 190.894531 72.851562 173.320312 74.914062 157.007812 78.738281 C 140.699219 82.5625 125.65625 88.152344 115.078125 98.605469 C 105.628906 107.933594 102.722656 115.511719 99.582031 133.558594 C 95.816406 134.1875 82.796875 136.464844 64.117188 145.261719 C 44.574219 154.460938 31.917969 167.351562 21.882812 186.191406 C 15.664062 197.863281 11.761719 208.976562 10.101562 226.078125 C 5.898438 269.449219 34.246094 316.273438 78.652344 306.90625 " fill-opacity="1" fill-rule="evenodd"/></g><path fill="#734e34" d="M 362.390625 197.011719 C 353.363281 191.359375 348.742188 187.230469 338.886719 183.546875 C 328.070312 179.511719 314.511719 175.777344 300.792969 176.777344 C 290.117188 177.554688 278.035156 182.011719 265.921875 185.574219 C 253.003906 189.363281 247.671875 191.230469 233.664062 197.703125 C 211.210938 208.082031 187.316406 231.777344 168.785156 249.625 C 162.601562 255.578125 154.015625 260.09375 147.492188 266.1875 C 139.144531 273.992188 124.714844 286.320312 113.421875 288.875 C 123.582031 281.417969 136.605469 272.707031 146.996094 262.988281 C 154.234375 256.230469 162.5 252.648438 169.335938 246.089844 C 187.164062 228.996094 203.421875 209.679688 225.078125 199.679688 C 239.074219 193.210938 253.371094 185.050781 266.289062 181.257812 C 293.988281 173.117188 318.269531 173.421875 337.503906 180.613281 C 347.585938 184.378906 355.3125 189.269531 362.390625 197.011719 Z M 80.628906 301.6875 C 162.261719 284.46875 214.175781 247.703125 261.839844 230.796875 C 285.472656 222.414062 306.714844 221.824219 323.265625 221.851562 C 344.546875 221.886719 358.570312 223.109375 365.148438 211.855469 C 373.988281 196.71875 360.664062 182.570312 327.773438 173.429688 C 309.546875 169.882812 287.667969 173.109375 263.75 180.019531 C 257.4375 181.84375 250.488281 183.710938 243.660156 186.785156 C 236.269531 190.117188 228.964844 194.71875 221.566406 198.078125 C 208.710938 203.914062 197.46875 211.226562 186.960938 220.78125 C 178.785156 228.21875 171.152344 237.507812 162.902344 245.316406 C 156.617188 251.265625 149.019531 255.65625 142.386719 261.75 C 134.257812 269.214844 123.046875 277.558594 114.449219 284.433594 C 109.773438 288.171875 99.890625 294.0625 88.960938 297.351562 C 80.605469 299.871094 70.6875 300.617188 61.847656 298.59375 C 56.542969 297.382812 51.703125 295.007812 47.589844 291.867188 C 51.996094 293.570312 57.171875 295.625 62.445312 296.492188 C 68.808594 297.539062 75.332031 297.136719 80.84375 296.050781 C 81.878906 295.84375 86.523438 296.089844 88.714844 295.28125 C 99.421875 291.320312 109.414062 283.253906 114.082031 279.515625 C 122.679688 272.644531 134.511719 264.464844 142.636719 256.996094 C 150.507812 249.765625 158.683594 242.867188 166.382812 235.4375 C 143.105469 236.71875 113.898438 233.910156 97.28125 224.855469 C 91.152344 224.367188 80.929688 227.039062 75.332031 229.402344 C 78.421875 225.574219 90.34375 221.679688 95.449219 219.738281 C 95.835938 207.117188 96.191406 170.378906 98.875 147.058594 C 93.40625 147.117188 88.960938 147.492188 84.628906 148.511719 C 51.3125 154.847656 31.21875 184.800781 24.421875 214.691406 C 22.488281 223.203125 21.089844 232.746094 20.953125 241.265625 C 20.726562 254.269531 22.394531 262.8125 30.558594 273.484375 C 22.230469 267.242188 18.828125 255.574219 18.921875 241.835938 C 18.980469 232.558594 20.320312 222.273438 22.394531 212.960938 C 23.214844 209.28125 24.246094 205.597656 25.464844 201.949219 C 28.148438 193.964844 32.707031 187.707031 37.320312 180.59375 C 41.664062 173.90625 45.953125 166.265625 51.996094 161.136719 C 60.535156 153.898438 68.765625 149.097656 80.703125 146.828125 C 88.703125 145.308594 90.914062 143.527344 98.992188 143.332031 C 99.152344 142.089844 99.570312 140.09375 99.746094 138.167969 C 91.796875 139.394531 67.382812 144.160156 46.84375 161 C 30.871094 174.097656 17.484375 194.496094 14.410156 226.207031 C 10.378906 267.808594 38.027344 310.675781 80.628906 301.6875 " fill-opacity="1" fill-rule="evenodd"/><path fill="#734e34" d="M 270.5 109.402344 C 267.226562 92.320312 261.621094 89.996094 245.515625 85.109375 C 234.21875 81.671875 221.457031 79.574219 208.328125 78.730469 C 191.457031 77.648438 173.449219 80.546875 157.625 84.179688 C 141.667969 87.839844 127.914062 92.296875 117.71875 102.359375 C 109.71875 110.253906 106.597656 117.945312 103.910156 131.542969 C 100.917969 161.734375 99.980469 196.71875 99.933594 210.320312 C 112.496094 216.292969 147.652344 223.878906 182.960938 218.503906 C 191.351562 211.613281 202.777344 200.511719 221.4375 192.039062 C 238.925781 184.101562 256.84375 176.183594 275.652344 171.875 C 274.378906 151.234375 274.410156 129.8125 270.5 109.402344 Z M 116.269531 112.28125 C 114.386719 113.789062 106.820312 126.101562 121.308594 126.710938 C 126.964844 126.945312 133.671875 126.304688 140.554688 124.511719 C 146.632812 122.925781 152.984375 119.945312 158.75 117.84375 C 163.203125 116.222656 167.261719 114.960938 170.898438 113.558594 C 181.5 109.457031 192.492188 105.5 203.183594 103.347656 C 219.859375 99.992188 236.367188 99.578125 253.753906 98.765625 C 245.117188 96.980469 234.878906 98.074219 224.644531 98.972656 C 216.625 99.675781 210.320312 98.714844 202.332031 100.230469 C 189.457031 102.683594 175.230469 108.175781 164.988281 111.890625 C 157.105469 114.75 149.445312 117.875 141.308594 119.980469 C 135.21875 121.558594 128.871094 122.710938 124.339844 122.457031 C 119.046875 122.152344 116.652344 117.65625 116.269531 112.28125 Z M 224.988281 163.359375 C 220.597656 164.113281 201.492188 164.710938 187.882812 158.023438 C 186.800781 157.578125 185.539062 156.671875 184.246094 155.429688 C 183.011719 154.25 181.433594 151.644531 180.300781 150.003906 C 179.15625 148.351562 178.449219 147.671875 177.671875 145.816406 C 174.164062 137.488281 181.464844 126.628906 189.136719 119.171875 C 191.484375 116.890625 193.644531 113.667969 195.816406 112.53125 C 189.535156 124.527344 172.433594 134.472656 183.300781 150.117188 C 187.742188 157.867188 202.554688 158.902344 224.988281 163.359375 " fill-opacity="1" fill-rule="evenodd"/><path fill="#6a432c" d="M 317.785156 167.667969 C 303.679688 160.371094 292.851562 156.042969 278.558594 151.761719 L 279.722656 171.027344 C 293.453125 168.066406 306.085938 166.859375 317.785156 167.667969 " fill-opacity="1" fill-rule="evenodd"/><path fill="#81593b" d="M 41.414062 266.003906 C 50.855469 245.59375 68.675781 235.558594 90.367188 231.332031 C 95.539062 230.328125 100.167969 232.285156 106.066406 234.144531 C 110.953125 235.683594 119.007812 236.550781 123.347656 238.441406 C 128.824219 240.824219 101.699219 240.300781 71.402344 249.820312 C 59.570312 253.535156 57.050781 258.984375 46.183594 266.046875 C 42.71875 268.304688 38.457031 272.394531 41.414062 266.003906 " fill-opacity="1" fill-rule="evenodd"/><path fill="#8f6340" d="M 47.5625 258.054688 C 50.859375 252.683594 56.867188 248.757812 60.058594 246.199219 C 62.871094 243.945312 66.5625 241.582031 70.570312 239.804688 C 82.765625 234.394531 96.355469 232.738281 99.855469 233.0625 C 95.121094 233.832031 73.082031 242.136719 62.105469 247.816406 C 58.183594 249.84375 50.617188 254.886719 47.5625 258.054688 " fill-opacity="1" fill-rule="evenodd"/><path fill="#6a432c" d="M 57.460938 231.945312 C 60.984375 231.242188 64.527344 232.472656 69.214844 230.898438 C 71.015625 230.292969 73.589844 229.617188 75.925781 228.765625 C 79.71875 225.148438 90.628906 221.570312 95.449219 219.738281 C 95.835938 207.117188 96.191406 170.378906 98.875 147.058594 C 93.40625 147.117188 88.960938 147.492188 84.628906 148.511719 C 51.3125 154.847656 31.21875 184.800781 24.421875 214.691406 C 22.488281 223.203125 21.089844 232.746094 20.953125 241.265625 C 20.746094 253.320312 22.164062 261.542969 28.882812 271.183594 C 35.519531 274.757812 33.839844 272.238281 32.527344 268.308594 C 30.007812 260.742188 30.210938 254.84375 35.210938 247.453125 C 40.773438 239.21875 51.292969 233.171875 57.460938 231.945312 " fill-opacity="1" fill-rule="evenodd"/><path fill="#653b23" d="M 41.835938 176.234375 C 47.152344 174.539062 54.023438 174.234375 59.671875 176.484375 C 62.644531 177.660156 69.804688 190.503906 72.410156 192.441406 C 76.644531 195.589844 74.523438 208.792969 73.332031 211.449219 C 72.53125 213.238281 70.253906 226.136719 67.0625 231.449219 C 67.753906 231.324219 68.472656 231.148438 69.214844 230.898438 C 71.015625 230.292969 73.589844 229.617188 75.925781 228.765625 C 79.71875 225.148438 90.628906 221.570312 95.449219 219.738281 C 95.835938 207.117188 96.191406 170.378906 98.875 147.058594 C 93.40625 147.117188 88.960938 147.492188 84.628906 148.511719 C 66.40625 151.972656 52.132812 162.511719 41.835938 176.234375 " fill-opacity="1" fill-rule="evenodd"/><path fill="#59341f" d="M 66.148438 154.996094 C 90.042969 150.46875 89.574219 158.246094 91.0625 159.726562 C 93.195312 161.863281 94.625 202.621094 90.628906 210.730469 C 86.960938 218.183594 84.203125 220.972656 81.652344 225.195312 C 86.355469 222.9375 92.246094 220.953125 95.449219 219.738281 C 95.835938 207.117188 96.191406 170.378906 98.875 147.058594 C 93.40625 147.117188 88.960938 147.492188 84.628906 148.511719 C 77.9375 149.78125 71.773438 152.007812 66.148438 154.996094 " fill-opacity="1" fill-rule="evenodd"/><path fill="#ad7d5b" d="M 26.683594 275.886719 C 23.53125 266.453125 17.3125 257.300781 17.414062 241.320312 C 17.476562 232.3125 19.023438 221.941406 21.03125 212.894531 C 21.820312 209.320312 22.5625 205.734375 23.742188 202.195312 C 26.335938 194.441406 30.75 188.242188 35.214844 181.332031 C 39.410156 174.839844 43.3125 167.667969 49.15625 162.6875 C 57.414062 155.65625 68.636719 148.425781 80.183594 146.222656 C 87.773438 144.773438 90.722656 142.957031 98.273438 142.875 C 98.46875 141.984375 98.875 140.59375 98.5625 138.839844 C 82.035156 140.847656 60.289062 149.925781 47.433594 161.464844 C 42.023438 166.957031 36.355469 172.152344 31.492188 179.035156 C 27.199219 185.105469 24.1875 192.546875 21.511719 199.46875 C 15.433594 215.1875 14.527344 231.890625 15.074219 243.679688 C 15.378906 250.34375 22.546875 273.078125 26.683594 275.886719 " fill-opacity="1" fill-rule="evenodd"/><path fill="#6a432c" d="M 255.023438 227.179688 C 261.316406 224.390625 281.285156 216.335938 295.226562 214.5625 C 310.066406 212.683594 317.238281 211.347656 323.546875 213.519531 C 334.472656 217.285156 344.300781 215.863281 346.070312 209.957031 C 347.84375 204.054688 343.273438 200.832031 336.574219 194.292969 C 330.101562 187.980469 319.917969 183.886719 318.210938 181.933594 C 324.808594 184.96875 334.730469 188.523438 339.765625 193.121094 C 341.035156 194.277344 345.835938 198.632812 346.765625 199.996094 C 345.851562 196.054688 342.042969 193.15625 340.792969 191.484375 C 338.800781 188.816406 335.464844 184.289062 332.421875 181.304688 C 322.898438 178.261719 311.898438 175.96875 300.792969 176.777344 C 290.117188 177.554688 278.035156 182.011719 265.921875 185.574219 C 253.003906 189.363281 247.671875 191.230469 233.664062 197.703125 C 211.210938 208.082031 187.316406 231.777344 168.785156 249.625 C 162.601562 255.578125 154.015625 260.09375 147.492188 266.1875 C 140.496094 272.730469 129.226562 282.445312 119.113281 286.921875 C 134.414062 284.421875 146.3125 277.625 160.992188 272.5 C 174.617188 267.738281 186.457031 262.1875 199.152344 256.328125 C 212.355469 248.980469 225.515625 242.21875 239.328125 236.15625 C 244.320312 233.96875 249.886719 229.300781 255.023438 227.179688 " fill-opacity="1" fill-rule="evenodd"/><path fill="#5f3721" d="M 125.066406 283.800781 C 155.804688 272.21875 175.964844 253.714844 196.988281 236.066406 C 201.472656 232.304688 207.285156 229.492188 212.695312 225.292969 C 217.800781 221.332031 232.800781 212.875 232.800781 212.875 C 229.179688 213.335938 219.066406 217.050781 216.621094 217.699219 C 221.878906 210.539062 234.132812 200.851562 242.980469 193.53125 C 240.261719 194.695312 237.25 196.046875 233.664062 197.703125 C 211.210938 208.082031 187.316406 231.777344 168.785156 249.625 C 162.601562 255.578125 154.015625 260.09375 147.492188 266.1875 C 141.847656 271.464844 133.425781 278.808594 125.066406 283.800781 " fill-opacity="1" fill-rule="evenodd"/><path fill="#ad7d5b" d="M 362.515625 194.75 C 355.058594 188.34375 347.992188 183.835938 338.132812 180.152344 C 327.316406 176.113281 314.511719 173.144531 300.792969 174.140625 C 290.117188 174.917969 278.351562 177.359375 266.234375 180.917969 C 253.316406 184.710938 247.417969 188.34375 233.417969 194.816406 C 222.191406 200 209.28125 206.886719 197.996094 216.082031 C 186.710938 225.28125 177.046875 236.804688 167.777344 245.730469 C 161.601562 251.679688 153.886719 255.566406 147.367188 261.660156 C 139.019531 269.464844 122.078125 283.050781 112.164062 286.863281 C 122.828125 278.148438 136.105469 269.4375 146.496094 259.726562 C 153.726562 252.960938 160.742188 249.125 167.578125 242.570312 C 177.050781 233.492188 184.765625 223.941406 194.695312 215.601562 C 203.453125 208.242188 214.300781 201.855469 224.449219 197.167969 C 238.449219 190.703125 253.375 183.425781 266.289062 179.628906 C 293.988281 171.492188 318.835938 170.027344 338.070312 177.21875 C 348.148438 180.988281 355.4375 187.011719 362.515625 194.75 " fill-opacity="1" fill-rule="evenodd"/><path fill="#6a422b" d="M 257.839844 136.246094 C 258.382812 133.941406 262.210938 131.882812 261.449219 129.9375 C 253.878906 110.609375 253.503906 102.636719 230.339844 106.957031 C 222.160156 108.480469 214.015625 111.367188 209.917969 112.175781 C 205.15625 114.15625 194.308594 115.433594 191.042969 119.570312 C 185.253906 126.90625 178.226562 134.042969 180.074219 142.996094 C 184.664062 145.6875 193.445312 148.207031 200.242188 149.109375 C 214.027344 150.933594 222.734375 142.339844 231.738281 139.671875 C 238.777344 137.589844 247.140625 140.632812 252.9375 140.277344 C 255.335938 140.128906 257.003906 139.8125 257.839844 136.246094 " fill-opacity="1" fill-rule="evenodd"/><path fill="#81593b" d="M 223.917969 163.066406 C 229.277344 161.90625 246.195312 157.050781 248.976562 153.6875 C 250.515625 151.832031 252.53125 149.960938 253.347656 147.964844 C 254.074219 146.1875 255.210938 143.855469 256.167969 142.449219 C 253.953125 142.816406 252.566406 142.300781 245.449219 145.484375 C 242.015625 147.019531 237.027344 149.277344 231.34375 151.132812 C 225.660156 152.992188 218.660156 154.371094 209.964844 154.035156 C 204.558594 153.820312 196.996094 152.800781 189.886719 150.230469 C 186.492188 149.003906 183.6875 146.664062 180.714844 145.242188 C 181.285156 146.808594 182.125 148.429688 183.300781 150.117188 C 186.636719 155.941406 195.84375 157.980469 209.738281 160.519531 C 213.941406 161.210938 218.652344 162.007812 223.917969 163.066406 " fill-opacity="1" fill-rule="evenodd"/><path fill="#81593b" d="M 106.84375 213.003906 C 106.84375 211.765625 106.835938 210.128906 106.785156 209.3125 C 106.023438 197.652344 112.824219 189.09375 114.152344 183.28125 C 115.070312 168.832031 109.820312 162.722656 110.640625 155.179688 C 112.816406 135.125 109.195312 137.855469 109.699219 133.914062 C 110.335938 128.992188 113.164062 131.367188 118.148438 131.949219 C 121.558594 132.351562 126.375 130.355469 130.867188 128.558594 C 127.929688 129.089844 120.808594 128.621094 118.546875 128.253906 C 115.445312 128.246094 112.652344 127.207031 111.851562 124.632812 C 110.828125 121.316406 111.886719 117.027344 111.886719 117.027344 C 111.789062 116.488281 112.089844 112.058594 113.164062 110.210938 C 114.285156 108.296875 118.597656 105.75 120.4375 103.894531 C 126.40625 97.863281 142.976562 93.105469 148.546875 88.789062 C 144.257812 89.4375 139.226562 90.136719 134.636719 91.242188 C 128.28125 94.015625 122.59375 97.542969 117.71875 102.359375 C 109.71875 110.253906 106.597656 117.945312 103.910156 131.542969 C 100.917969 161.734375 99.980469 196.71875 99.933594 210.320312 C 101.777344 211.195312 104.105469 212.101562 106.84375 213.003906 " fill-opacity="1" fill-rule="evenodd"/><path fill="#81593b" d="M 153.992188 120.96875 C 163.21875 116.832031 174.699219 112.371094 184.65625 109.371094 C 185.5625 109.097656 188.058594 108.3125 190.789062 107.496094 C 193.078125 107.265625 207.472656 102.132812 211.757812 104.953125 C 208.628906 105.640625 203.050781 106.59375 199.054688 108.003906 C 193.21875 110.066406 187.949219 113.175781 187.023438 113.808594 C 181.316406 118.265625 183.609375 124.039062 176.035156 128.765625 C 171.023438 131.894531 165.292969 132.570312 159.617188 133.695312 C 149.503906 135.695312 139.5625 136.367188 134.164062 135.335938 C 131.839844 134.886719 126.1875 134.378906 126.664062 132.007812 C 132.070312 132.222656 137.347656 130.839844 143.289062 127.457031 C 147.164062 125.253906 150.1875 123.242188 153.992188 120.96875 " fill-opacity="1" fill-rule="evenodd"/><path fill="#6a422b" d="M 116.347656 113.082031 C 116.902344 118.09375 119.3125 122.167969 124.339844 122.457031 C 128.871094 122.710938 135.21875 121.558594 141.308594 119.980469 C 149.445312 117.875 157.105469 114.75 164.988281 111.890625 C 175.230469 108.175781 189.457031 102.683594 202.332031 100.230469 C 210.320312 98.714844 216.625 99.675781 224.644531 98.972656 C 227.09375 98.757812 229.539062 98.535156 231.964844 98.339844 C 222.496094 95.757812 192.203125 90.582031 173.476562 93.160156 C 162.351562 94.6875 121.167969 102.160156 116.347656 113.082031 " fill-opacity="1" fill-rule="evenodd"/><path fill="#81593b" d="M 216.515625 80.753906 C 221.828125 81.898438 241.886719 81.515625 258.554688 95.515625 C 249.6875 94.003906 251.941406 91.316406 245.578125 89.769531 C 242.140625 88.234375 231.628906 89.875 225.949219 88.019531 C 223.902344 87.355469 222.941406 84 218.636719 83.511719 C 211.460938 82.699219 205.125 84.292969 201.523438 84.023438 C 195.328125 83.566406 178.566406 83.074219 174.421875 82.953125 C 185.378906 79.695312 200.65625 81.757812 216.515625 80.753906 " fill-opacity="1" fill-rule="evenodd"/><path fill="#6a432c" d="M 171.277344 219.832031 C 173.027344 199.960938 169.425781 179.695312 171.78125 159.824219 C 172.699219 152.042969 173.042969 144.828125 174.734375 136.917969 C 175.289062 142.757812 176.242188 147.191406 178.859375 150.871094 C 181.484375 154.558594 186.667969 158.996094 190.871094 160.664062 C 202.496094 166.234375 216.738281 164.546875 227.671875 164.15625 C 233.925781 163.933594 246.378906 169.871094 250.175781 169.230469 C 251.902344 168.9375 253.71875 168.621094 255.164062 168.394531 C 256.417969 168.199219 267 167.980469 275.445312 168.398438 C 275.511719 169.558594 275.578125 170.714844 275.652344 171.875 C 256.84375 176.183594 238.925781 184.101562 221.4375 192.039062 C 202.777344 200.511719 191.351562 211.613281 182.960938 218.503906 C 179.054688 219.097656 175.148438 219.539062 171.277344 219.832031 " fill-opacity="1" fill-rule="evenodd"/><path fill="#ba8256" d="M 173.871094 228.835938 C 156.816406 230.386719 138.71875 229.808594 121.835938 226.613281 C 113.414062 225.019531 105.460938 222.574219 99.050781 219.175781 C 99.0625 218.558594 99.089844 217.667969 99.125 217.046875 C 111.453125 223.664062 143.011719 229.691406 176.875 225.601562 C 175.757812 226.757812 174.984375 227.664062 173.871094 228.835938 " fill-opacity="1" fill-rule="evenodd"/><path fill="#9a6b4b" d="M 173.867188 228.835938 C 169.222656 229.257812 164.503906 229.519531 159.75 229.617188 L 159.835938 226.859375 C 165.398438 226.703125 171.101562 226.300781 176.875 225.601562 C 175.757812 226.757812 174.984375 227.667969 173.867188 228.835938 " fill-opacity="1" fill-rule="evenodd"/><path fill="#ba8256" d="M 172.726562 230.035156 C 138.9375 233.140625 108.691406 226.671875 99.042969 220.109375 C 99.066406 220.800781 99.089844 221.304688 99.175781 221.773438 C 107.632812 226.867188 118.507812 229.523438 129.777344 230.9375 C 143.316406 232.636719 157.464844 233.117188 171.027344 231.886719 L 172.726562 230.035156 " fill-opacity="1" fill-rule="evenodd"/><path fill="#9a6b4b" d="M 172.726562 230.035156 C 167.851562 230.484375 163.054688 230.726562 158.382812 230.804688 L 158.328125 232.550781 C 162.59375 232.480469 166.839844 232.265625 171.027344 231.886719 L 172.726562 230.035156 " fill-opacity="1" fill-rule="evenodd"/><path fill="#e2b78f" d="M 132.773438 229.523438 C 120.871094 228.089844 110.972656 225.632812 104.425781 222.902344 L 104.414062 224.496094 C 111.914062 227.863281 120.714844 229.796875 129.777344 230.9375 C 130.75 231.058594 131.726562 231.175781 132.703125 231.285156 L 132.773438 229.523438 " fill-opacity="1" fill-rule="evenodd"/><path fill="#ba8256" d="M 99.214844 215.691406 C 111.414062 222.464844 144.210938 228.527344 178.484375 224.03125 L 178.488281 224.027344 C 179.175781 223.324219 179.851562 222.628906 180.539062 221.9375 L 180.542969 221.933594 C 170.824219 223.511719 160.671875 224.195312 151.039062 223.992188 C 127.738281 223.503906 108.097656 219.011719 99.425781 213.898438 C 99.347656 214.375 99.273438 214.996094 99.214844 215.691406 " fill-opacity="1" fill-rule="evenodd"/><path fill="#9a6b4b" d="M 158.546875 225.53125 C 165.039062 225.386719 171.738281 224.917969 178.488281 224.03125 L 178.492188 224.023438 C 179.175781 223.324219 179.851562 222.628906 180.539062 221.9375 L 180.542969 221.933594 C 173.339844 223.101562 165.890625 223.777344 158.59375 223.96875 L 158.546875 225.53125 " fill-opacity="1" fill-rule="evenodd"/><path fill="#e2b78f" d="M 104.46875 218.082031 C 111.359375 220.71875 121.296875 223.039062 132.980469 224.375 L 133.046875 222.777344 C 121.269531 221.410156 111.308594 219.054688 104.484375 216.324219 L 104.46875 218.082031 " fill-opacity="1" fill-rule="evenodd"/><path fill="#e2b78f" d="M 103.246094 218.953125 L 103.226562 221.167969 C 108.78125 223.550781 115.160156 225.347656 121.835938 226.613281 C 125.054688 227.222656 128.3125 227.734375 131.605469 228.15625 L 131.710938 225.566406 C 119.914062 224.121094 110 221.671875 103.246094 218.953125 " fill-opacity="1" fill-rule="evenodd"/><path fill="#5f3721" d="M 177.375 219.253906 C 181.269531 215.226562 185.957031 211.0625 190.347656 207.375 C 199.101562 200.015625 209.953125 193.625 220.097656 188.9375 C 229.261719 184.710938 254.1875 173.003906 275.636719 171.632812 L 275.652344 171.875 C 256.84375 176.183594 238.925781 184.101562 221.4375 192.039062 C 202.777344 200.511719 191.351562 211.613281 182.960938 218.503906 C 181.097656 218.789062 179.234375 219.039062 177.375 219.253906 " fill-opacity="1" fill-rule="evenodd"/><path fill="#81593b" d="M 307.582031 165.230469 C 301.960938 162.324219 298.546875 160.695312 295.664062 159.316406 C 291.3125 157.234375 288.078125 155.929688 279.476562 153.359375 C 280.511719 154.714844 281.378906 157.230469 282.699219 158.308594 C 284.910156 160.105469 290.320312 159.859375 293.074219 160.976562 C 298.015625 162.980469 302.390625 164.875 307.582031 165.230469 " fill-opacity="1" fill-rule="evenodd"/></svg>