<svg xmlns="http://www.w3.org/2000/svg" xmlns:xlink="http://www.w3.org/1999/xlink" width="512" zoomAndPan="magnify" viewBox="0 0 384 383.999986" height="512" preserveAspectRatio="xMidYMid meet" version="1.0"><defs><clipPath id="5ccbe7b9c0"><path d="M 0.265625 9.304688 L 278 9.304688 L 278 381.398438 L 0.265625 381.398438 Z M 0.265625 9.304688 " clip-rule="nonzero"/></clipPath><clipPath id="a1e8a0a208"><path d="M 222.054688 32.578125 L 369.800781 32.578125 L 369.800781 285.8125 L 222.054688 285.8125 Z M 222.054688 32.578125 " clip-rule="nonzero"/></clipPath></defs><g clip-path="url(#5ccbe7b9c0)"><path fill="#d80025" d="M 272.621094 274.773438 C 257.484375 315.242188 215.511719 338.851562 215.511719 338.851562 C 233.890625 355.929688 220.640625 361.910156 220.640625 361.910156 C 202.261719 392.65625 96.691406 378.992188 71.476562 374.292969 C 46.257812 369.597656 45.832031 358.492188 50.535156 347.390625 C 55.234375 336.289062 56.089844 335.433594 56.089844 335.433594 C 55.542969 335.121094 54.988281 334.800781 54.425781 334.464844 C 22.585938 315.496094 -29.757812 258.359375 22.324219 173.589844 C 75.324219 87.328125 57.371094 65.546875 57.371094 65.546875 C 54.765625 57.667969 52.292969 51.570312 49.953125 46.835938 C 37.324219 21.277344 28.453125 35.183594 22.324219 21.136719 C 18.488281 12.34375 21.804688 9.859375 25.785156 9.46875 C 29.34375 9.128906 33.4375 10.460938 33.4375 10.460938 C 33.4375 10.460938 50.179688 14.054688 73.601562 18.550781 C 77.941406 19.378906 82.515625 20.242188 87.257812 21.117188 C 97.335938 22.984375 108.15625 24.917969 119.121094 26.738281 C 153.558594 32.46875 189.300781 37.179688 207.199219 35.726562 C 209.59375 35.53125 211.664062 35.226562 213.375 34.800781 C 223.023438 32.394531 228.425781 33.046875 231.300781 35.085938 C 237.589844 39.535156 231.75 50.601562 231.75 50.601562 C 229.996094 60.804688 229.066406 70.183594 228.820312 78.898438 C 228.191406 100.71875 231.832031 118.324219 237.394531 134 C 247.519531 162.539062 264.023438 184.679688 272.777344 214.1875 C 274.570312 220.234375 276.035156 226.585938 277.058594 233.371094 C 279.351562 248.605469 277.226562 262.464844 272.621094 274.773438 " fill-opacity="1" fill-rule="nonzero"/></g><path fill="#ffebec" d="M 22.324219 9.605469 C 22.324219 9.605469 39.421875 1.921875 54.808594 10.460938 C 70.195312 19 81.734375 19 87.289062 19 C 92.847656 19 172.34375 3.628906 229.613281 32.667969 C 229.613281 32.667969 244.179688 44.867188 202.261719 53.59375 C 161.230469 62.132812 103.957031 62.132812 70.195312 41.207031 C 36.429688 20.28125 16.339844 16.011719 22.324219 9.605469 " fill-opacity="1" fill-rule="nonzero"/><path fill="#ce0027" d="M 63.21875 63.199219 C 63.21875 63.199219 78.742188 106.117188 50.535156 139.851562 C 50.535156 139.851562 135.585938 33.519531 199.269531 111.242188 C 199.269531 111.242188 202.6875 85.195312 213.800781 69.394531 C 224.914062 53.59375 231.046875 72.808594 63.21875 63.199219 " fill-opacity="1" fill-rule="nonzero"/><g clip-path="url(#a1e8a0a208)"><path fill="#d80025" d="M 369.800781 109.316406 C 369.800781 110.230469 369.792969 111.136719 369.761719 112.039062 C 369.949219 162.765625 310.453125 203.714844 297.144531 213.300781 C 278.765625 226.539062 286.03125 256.433594 298.429688 261.128906 C 310.824219 265.828125 299.710938 308.105469 268.507812 270.097656 C 245.3125 241.839844 278.355469 203.664062 296.820312 185.9375 C 297.894531 184.910156 298.917969 183.949219 299.878906 183.0625 C 303.484375 179.746094 307.460938 176.867188 311.65625 174.332031 C 314.902344 172.367188 318.820312 169.132812 322.898438 164.976562 C 331.800781 155.910156 341.484375 142.445312 346.789062 128.152344 C 348.152344 124.46875 348.855469 120.566406 348.863281 116.644531 L 348.863281 116.578125 C 348.863281 104.246094 345.21875 92.863281 339.066406 83.703125 C 334.773438 77.308594 328.648438 72.355469 321.53125 69.40625 L 321.507812 69.390625 C 309.601562 64.460938 299.554688 62.484375 291.078125 62.550781 C 272.253906 62.675781 261.171875 72.851562 254.792969 83.023438 C 251.570312 88.164062 249.546875 93.308594 248.332031 97.164062 C 247.582031 99.539062 249.414062 101.867188 251.910156 101.871094 C 252.050781 101.871094 252.195312 101.878906 252.339844 101.890625 C 255.945312 102.144531 259.816406 105.597656 259.105469 119.78125 C 258.78125 126.25 256.226562 130.078125 252.578125 132.1875 C 248.726562 134.421875 243.660156 134.722656 238.734375 134.199219 C 235.867188 133.890625 233.222656 132.9375 230.925781 131.5 C 225.179688 127.902344 221.609375 121.277344 222.167969 114.089844 C 226.316406 60.5625 248.574219 41.585938 272.464844 37.265625 C 274.679688 36.863281 276.882812 36.375 279.03125 35.699219 C 279.191406 35.648438 279.347656 35.601562 279.511719 35.554688 C 285.660156 33.675781 292.148438 32.667969 298.855469 32.667969 C 331.644531 32.667969 359.238281 56.695312 367.371094 89.347656 C 368.957031 95.714844 369.800781 102.410156 369.800781 109.316406 " fill-opacity="1" fill-rule="nonzero"/></g><path fill="#fdfdfd" d="M 87.339844 37.40625 C 84.621094 36.972656 84.8125 33.007812 87.558594 32.835938 C 96.902344 32.25 107.210938 30.984375 115.5 28.394531 C 136.015625 21.992188 205.90625 33.09375 198.742188 39.074219 C 192.167969 44.558594 174.710938 51.480469 87.339844 37.40625 " fill-opacity="1" fill-rule="nonzero"/><path fill="#ab002c" d="M 183.027344 60.425781 C 183.027344 60.425781 212.09375 60.425781 210.71875 74.363281 C 208.410156 97.753906 218.5 117.648438 218.5 117.648438 C 218.5 117.648438 215.621094 68.851562 230.894531 45.90625 C 230.894531 45.90625 223.203125 56.582031 183.027344 60.425781 " fill-opacity="1" fill-rule="nonzero"/><path fill="#cc0035" d="M 68.378906 340.65625 C 86.675781 344.6875 160.652344 359.386719 198.742188 342.816406 C 202.96875 340.976562 207.886719 341.703125 211.289062 344.8125 C 217.363281 350.351562 224.003906 359.074219 212.945312 364.046875 C 196.15625 371.59375 95.675781 383.675781 59.699219 358.617188 C 57.851562 357.332031 56.363281 355.570312 55.546875 353.476562 C 54.417969 350.585938 54.148438 346.46875 58.804688 342.773438 C 61.492188 340.644531 65.03125 339.921875 68.378906 340.65625 " fill-opacity="1" fill-rule="nonzero"/><path fill="#e60026" d="M 39.847656 276.929688 C 39.847656 276.929688 27.882812 159.070312 110.796875 116.367188 C 193.710938 73.660156 310.394531 301.273438 161.230469 306.394531 C 12.066406 311.519531 39.847656 276.929688 39.847656 276.929688 " fill-opacity="1" fill-rule="nonzero"/><path fill="#ac0030" d="M 268.609375 225.375 L 292.445312 202.625 C 292.445312 202.625 263.808594 230.382812 295.863281 265.402344 C 295.863281 265.402344 295.007812 290.167969 277.910156 271.378906 C 260.816406 252.589844 268.609375 225.375 268.609375 225.375 " fill-opacity="1" fill-rule="nonzero"/><path fill="#e8596b" d="M 17.195312 242.769531 C 17.195312 242.769531 24.035156 333.726562 139.007812 340.558594 C 139.007812 340.558594 241.152344 344.828125 254.832031 242.769531 C 254.832031 242.769531 136.011719 375.148438 17.195312 242.769531 " fill-opacity="1" fill-rule="nonzero"/><path fill="#fbf2e1" d="M 76.605469 312.800781 C 76.605469 312.800781 147.125 353.371094 203.972656 302.980469 C 203.972656 302.980469 157.8125 365.328125 76.605469 312.800781 " fill-opacity="1" fill-rule="nonzero"/><path fill="#a10021" d="M 54.808594 36.082031 C 54.808594 36.082031 64.636719 54.019531 66.347656 90.316406 C 66.347656 90.316406 72.332031 55.726562 115.925781 62.984375 C 115.925781 62.984375 80.878906 53.589844 54.808594 36.082031 " fill-opacity="1" fill-rule="nonzero"/><path fill="#fc8b91" d="M 213.800781 96.296875 L 199.269531 117.21875 C 199.269531 117.21875 206.535156 146.257812 243.289062 195.367188 C 280.046875 244.476562 254.832031 285.898438 254.832031 285.898438 C 254.832031 285.898438 295.867188 236.308594 236.300781 159.527344 C 226.664062 147.105469 219.6875 132.804688 216.285156 117.460938 C 214.8125 110.824219 213.800781 103.609375 213.800781 96.296875 " fill-opacity="1" fill-rule="nonzero"/><path fill="#fbeada" d="M 210.808594 122.773438 C 210.808594 122.773438 212.945312 136.007812 221.921875 144.125 C 221.921875 144.125 191.148438 110.816406 210.808594 122.773438 " fill-opacity="1" fill-rule="nonzero"/><path fill="#fbeada" d="M 225.339844 161.203125 C 225.339844 161.203125 245 188.535156 250.984375 193.660156 C 256.96875 198.785156 230.46875 166.328125 230.46875 158.644531 C 230.46875 150.953125 219.359375 153.089844 225.339844 161.203125 " fill-opacity="1" fill-rule="nonzero"/><path fill="#f18a8d" d="M 29.589844 174.015625 C 29.589844 174.015625 15.488281 211.167969 17.195312 231.664062 C 17.195312 231.664062 4.375 199.210938 29.589844 174.015625 " fill-opacity="1" fill-rule="nonzero"/><path fill="#fffcec" d="M 13.777344 261.984375 C 13.777344 261.984375 18.476562 288.886719 34.71875 302.980469 C 34.71875 302.980469 9.503906 285.898438 13.777344 261.984375 " fill-opacity="1" fill-rule="nonzero"/><path fill="#ffa8b0" d="M 76.605469 161.203125 L 63.355469 196.222656 C 63.355469 196.222656 46.6875 185.546875 46.6875 180.847656 C 46.6875 176.152344 62.074219 147.113281 62.074219 147.113281 L 76.605469 161.203125 " fill-opacity="1" fill-rule="nonzero"/><path fill="#ffa8b0" d="M 87.71875 164.195312 C 87.71875 164.195312 70.621094 202.203125 74.894531 203.910156 C 79.167969 205.617188 99.257812 218.429688 99.257812 218.429688 C 99.257812 218.429688 105.667969 183.410156 111.652344 176.152344 L 87.71875 164.195312 " fill-opacity="1" fill-rule="nonzero"/><path fill="#ffa8b0" d="M 42.414062 191.949219 C 42.414062 191.949219 31.300781 237.644531 35.574219 245.328125 C 39.847656 253.015625 55.664062 271.378906 55.664062 271.378906 L 61.21875 206.898438 L 42.414062 191.949219 " fill-opacity="1" fill-rule="nonzero"/><path fill="#ffa8b0" d="M 71.050781 212.449219 C 71.050781 212.449219 57.800781 271.808594 68.910156 276.503906 C 80.023438 281.203125 94.128906 286.324219 94.128906 286.324219 L 96.265625 226.539062 L 71.050781 212.449219 " fill-opacity="1" fill-rule="nonzero"/><path fill="#fc8b91" d="M 230.898438 111.03125 C 230.898438 111.03125 234.316406 78.359375 268.507812 54.445312 C 268.507812 54.445312 236.179688 82.863281 247.925781 110.722656 C 250.410156 116.617188 247.96875 123.558594 242.167969 126.269531 C 237.199219 128.597656 231.964844 126.941406 230.898438 111.03125 " fill-opacity="1" fill-rule="nonzero"/><path fill="#fc8b91" d="M 281.757812 59.140625 C 281.757812 59.140625 359.117188 49.75 350.570312 127.039062 C 350.570312 127.039062 345.441406 153.089844 321.082031 174.015625 C 321.082031 174.015625 383.734375 123.09375 348.863281 78.953125 C 335.859375 62.492188 315.273438 53.921875 294.351562 55.605469 C 285.03125 56.355469 277.246094 57.503906 281.757812 59.140625 " fill-opacity="1" fill-rule="nonzero"/><path fill="#ac0030" d="M 367.371094 89.347656 C 363.199219 85.21875 358.585938 79.824219 353.558594 72.808594 C 336.863281 49.5 302.894531 39.664062 279.507812 35.554688 C 285.660156 33.675781 292.148438 32.667969 298.851562 32.667969 C 331.644531 32.667969 359.238281 56.695312 367.371094 89.347656 " fill-opacity="1" fill-rule="nonzero"/></svg>