<svg xmlns="http://www.w3.org/2000/svg" xmlns:xlink="http://www.w3.org/1999/xlink" width="512" zoomAndPan="magnify" viewBox="0 0 384 383.999986" height="512" preserveAspectRatio="xMidYMid meet" version="1.0"><path fill="#70cb72" d="M 196.996094 111.765625 C 196.867188 84.269531 186.101562 56.960938 167.460938 36.757812 C 147.710938 15.359375 119.300781 2.214844 90.214844 0.957031 C 67.464844 -0.0234375 44.460938 6.144531 25.253906 18.371094 C 22.890625 38.574219 27.886719 59.5625 39.09375 76.535156 C 48.191406 90.316406 61.1875 101.355469 75.828125 108.992188 C 90.464844 116.625 106.722656 120.941406 123.152344 122.5625 C 148.15625 125.035156 173.746094 121.289062 196.996094 111.765625 " fill-opacity="1" fill-rule="nonzero"/><path fill="#d2efd3" d="M 92.234375 7.363281 C 79.023438 6.667969 65.714844 8.199219 53.011719 11.894531 C 51.777344 12.226562 50.734375 13.039062 50.109375 14.148438 C 49.484375 15.257812 49.332031 16.574219 49.683594 17.800781 C 50.042969 19.023438 50.871094 20.050781 51.996094 20.660156 C 53.117188 21.257812 54.4375 21.386719 55.652344 21.007812 C 67.324219 17.617188 79.589844 16.199219 91.730469 16.835938 C 96.578125 17.09375 101.40625 17.675781 106.167969 18.574219 C 107.40625 18.808594 108.6875 18.542969 109.726562 17.832031 C 110.769531 17.121094 111.484375 16.027344 111.71875 14.785156 C 111.949219 13.546875 111.683594 12.265625 110.96875 11.222656 C 110.253906 10.183594 109.160156 9.46875 107.921875 9.242188 C 102.738281 8.261719 97.496094 7.644531 92.234375 7.363281 " fill-opacity="1" fill-rule="nonzero"/><path fill="#4fbf58" d="M 138.648438 14.5 C 147.175781 21.953125 154.519531 30.765625 160.253906 40.53125 C 163.269531 45.664062 165.871094 51.113281 167.128906 56.933594 C 168.386719 62.75 168.238281 68.992188 165.90625 74.46875 C 163.007812 81.289062 156.945312 86.402344 150.183594 89.417969 C 143.421875 92.429688 135.96875 93.535156 128.585938 94.082031 C 99.585938 96.222656 69.023438 89.445312 46.785156 70.699219 C 38.636719 63.835938 31.769531 55.476562 26.546875 46.1875 C 28.792969 56.972656 33.023438 67.34375 39.09375 76.535156 C 48.191406 90.316406 61.1875 101.355469 75.828125 108.992188 C 90.464844 116.628906 106.726562 120.941406 123.152344 122.5625 C 148.15625 125.035156 173.75 121.285156 196.996094 111.761719 C 196.867188 84.269531 186.101562 56.960938 167.460938 36.757812 C 159.1875 27.792969 149.378906 20.300781 138.648438 14.5 " fill-opacity="1" fill-rule="nonzero"/><path fill="#cfedcf" d="M 27.222656 17.167969 C 26.5625 17.566406 25.902344 17.960938 25.25 18.367188 C 25.191406 18.816406 25.171875 19.265625 25.125 19.714844 C 58.53125 36.988281 91.726562 54.683594 124.65625 72.828125 C 148.261719 85.835938 171.738281 99.058594 195.089844 112.515625 C 195.726562 112.261719 196.367188 112.023438 196.996094 111.761719 C 196.996094 111.132812 196.941406 110.507812 196.941406 109.875 C 173.492188 96.363281 149.902344 83.070312 126.199219 70.011719 C 93.445312 51.960938 60.441406 34.355469 27.222656 17.167969 " fill-opacity="1" fill-rule="nonzero"/><path fill="#cfedcf" d="M 66.972656 39.5625 C 57.941406 47.90625 48.007812 55.273438 37.421875 61.515625 C 35.769531 62.484375 34.097656 63.421875 32.421875 64.335938 C 32.863281 65.3125 33.308594 66.285156 33.78125 67.246094 C 35.554688 66.289062 37.320312 65.3125 39.054688 64.289062 C 49.84375 57.933594 59.957031 50.414062 69.152344 41.914062 L 66.972656 39.5625 " fill-opacity="1" fill-rule="nonzero"/><path fill="#cfedcf" d="M 109.050781 62.25 C 101.941406 68.316406 94.410156 73.863281 86.515625 78.859375 C 76.605469 85.136719 66.121094 90.53125 55.25 94.953125 C 56.15625 95.746094 57.070312 96.519531 58.007812 97.285156 C 68.5 92.917969 78.617188 87.667969 88.226562 81.585938 C 96.246094 76.507812 103.917969 70.859375 111.136719 64.695312 L 109.050781 62.25 " fill-opacity="1" fill-rule="nonzero"/><path fill="#cfedcf" d="M 147.332031 83.320312 C 139.554688 90.664062 131.257812 97.457031 122.519531 103.628906 C 115.023438 108.925781 107.183594 113.753906 99.101562 118.105469 C 100.609375 118.523438 102.132812 118.90625 103.65625 119.269531 C 110.78125 115.300781 117.714844 110.972656 124.375 106.265625 C 133.230469 100.007812 141.648438 93.121094 149.535156 85.667969 L 147.332031 83.320312 " fill-opacity="1" fill-rule="nonzero"/><path fill="#b3e3b5" d="M 168.320312 37.742188 C 170.585938 48.40625 171.578125 59.351562 171.238281 70.25 C 170.992188 78.648438 169.957031 87.023438 168.15625 95.230469 L 171.3125 95.921875 C 173.148438 87.515625 174.203125 78.941406 174.46875 70.339844 C 174.746094 61.113281 174.113281 51.863281 172.570312 42.765625 C 171.203125 41.050781 169.792969 39.371094 168.320312 37.742188 " fill-opacity="1" fill-rule="nonzero"/><path fill="#cfedcf" d="M 133.433594 11.847656 C 134.101562 20.222656 134.433594 28.628906 134.335938 37.027344 C 134.207031 49.40625 133.265625 61.785156 131.511719 74.042969 L 134.6875 74.496094 C 136.460938 62.105469 137.40625 49.585938 137.535156 37.074219 L 137.535156 37.050781 C 137.636719 29.195312 137.363281 21.332031 136.796875 13.5 C 135.6875 12.925781 134.558594 12.382812 133.433594 11.847656 " fill-opacity="1" fill-rule="nonzero"/><path fill="#cfedcf" d="M 83.074219 0.902344 C 81.96875 0.925781 80.871094 0.964844 79.769531 1.027344 C 81.644531 7.449219 83.1875 13.96875 84.355469 20.554688 C 86.171875 30.832031 87.183594 41.25 87.183594 51.664062 L 90.40625 51.664062 C 90.40625 41.042969 89.382812 30.429688 87.539062 19.988281 C 86.398438 13.546875 84.886719 7.183594 83.074219 0.902344 " fill-opacity="1" fill-rule="nonzero"/><path fill="#b3e3b5" d="M 155.628906 86.386719 C 154.605469 87.082031 153.550781 87.722656 152.460938 88.300781 C 166.710938 96.289062 180.929688 104.351562 195.085938 112.515625 C 195.722656 112.261719 196.363281 112.023438 196.996094 111.761719 C 196.992188 111.132812 196.9375 110.503906 196.9375 109.875 C 183.214844 101.964844 169.4375 94.144531 155.625 86.386719 L 155.628906 86.386719 " fill-opacity="1" fill-rule="nonzero"/><path fill="#b3e3b5" d="M 142.476562 92.035156 C 140.359375 92.5625 138.203125 92.964844 136.03125 93.28125 C 131.65625 96.894531 127.15625 100.355469 122.519531 103.628906 C 115.023438 108.925781 107.183594 113.753906 99.105469 118.105469 C 100.613281 118.523438 102.132812 118.90625 103.65625 119.269531 C 110.78125 115.300781 117.714844 110.972656 124.375 106.265625 C 130.644531 101.835938 136.679688 97.070312 142.476562 92.035156 " fill-opacity="1" fill-rule="nonzero"/><path fill="#b3e3b5" d="M 73.53125 86.386719 C 67.582031 89.550781 61.484375 92.414062 55.25 94.953125 C 56.148438 95.738281 57.0625 96.507812 57.988281 97.265625 C 57.988281 97.269531 57.988281 97.277344 57.988281 97.285156 C 64.675781 94.5 71.207031 91.359375 77.554688 87.875 C 76.195312 87.40625 74.847656 86.914062 73.511719 86.390625 L 73.53125 86.386719 " fill-opacity="1" fill-rule="nonzero"/><path fill="#b3e3b5" d="M 37.429688 61.507812 C 37.425781 61.511719 37.429688 61.515625 37.429688 61.515625 C 35.777344 62.480469 34.113281 63.417969 32.4375 64.328125 C 32.503906 64.472656 32.5625 64.609375 32.621094 64.746094 C 32.917969 65.40625 33.226562 66.0625 33.539062 66.710938 C 33.625 66.890625 33.71875 67.0625 33.804688 67.238281 C 35.574219 66.285156 37.332031 65.308594 39.0625 64.289062 C 39.261719 64.171875 39.460938 64.046875 39.65625 63.929688 C 38.898438 63.132812 38.15625 62.328125 37.433594 61.507812 L 37.429688 61.507812 " fill-opacity="1" fill-rule="nonzero"/><path fill="#f1faf0" d="M 84.777344 7.234375 C 83.675781 7.242188 82.574219 7.257812 81.472656 7.300781 C 82.273438 10.425781 82.988281 13.570312 83.625 16.734375 C 84.71875 16.707031 85.8125 16.683594 86.902344 16.699219 C 86.277344 13.527344 85.570312 10.371094 84.777344 7.234375 " fill-opacity="1" fill-rule="nonzero"/><path fill="#914d38" d="M 194.355469 121.882812 C 193.570312 106.578125 193.089844 91.261719 192.902344 75.941406 C 192.792969 66.429688 192.792969 56.917969 192.902344 47.410156 L 226.738281 47.410156 C 224.054688 61.339844 221.957031 75.378906 220.453125 89.480469 C 219.292969 100.414062 218.488281 111.382812 218.039062 122.367188 L 194.355469 121.882812 " fill-opacity="1" fill-rule="nonzero"/><path fill="#85432f" d="M 220.496094 47.40625 C 218.628906 54.601562 216.421875 61.699219 213.820312 68.660156 C 211.191406 75.703125 208.105469 82.742188 203.074219 88.324219 C 200.3125 91.386719 196.976562 93.921875 193.324219 95.832031 C 193.574219 104.519531 193.910156 113.203125 194.355469 121.882812 L 218.042969 122.363281 C 218.484375 111.382812 219.292969 100.414062 220.453125 89.480469 C 221.957031 75.378906 224.054688 61.339844 226.738281 47.40625 L 220.496094 47.40625 " fill-opacity="1" fill-rule="nonzero"/><path fill="#f78e21" d="M 239.59375 110.078125 C 269.773438 115.894531 298.320312 130.695312 319.722656 152.769531 C 337.472656 171.082031 350.199219 194.308594 355.585938 219.242188 C 360.96875 244.175781 358.917969 270.738281 349.300781 294.367188 C 339.21875 319.125 321.015625 340.28125 298.789062 355.121094 C 276.5625 369.957031 250.433594 378.59375 223.855469 381.328125 C 198.507812 383.941406 172.53125 381.246094 148.558594 372.617188 C 124.578125 363.996094 102.664062 349.375 86.164062 329.949219 C 67.695312 308.199219 56.261719 280.484375 54.378906 252.003906 C 52.503906 223.523438 60.253906 194.429688 76.359375 170.867188 C 98.941406 137.824219 136.78125 117.050781 176.164062 109.988281 C 197.09375 106.238281 218.710938 106.058594 239.59375 110.078125 " fill-opacity="1" fill-rule="nonzero"/><path fill="#f57c14" d="M 255.996094 114.179688 C 275.050781 131.488281 289.300781 154.121094 296.289062 178.917969 C 302.273438 200.160156 303.042969 222.867188 298.402344 244.441406 C 293.761719 266.019531 283.714844 286.425781 269.359375 303.1875 C 253.277344 321.96875 231.804688 336.078125 208.1875 343.394531 C 184.574219 350.707031 158.886719 351.203125 135.007812 344.804688 C 111.125 338.402344 89.128906 325.125 72.332031 306.976562 C 70.757812 305.277344 69.246094 303.519531 67.769531 301.738281 C 72.710938 311.855469 78.878906 321.371094 86.164062 329.949219 C 102.664062 349.375 124.578125 363.992188 148.554688 372.617188 C 172.53125 381.242188 198.507812 383.941406 223.855469 381.328125 C 250.433594 378.59375 276.5625 369.960938 298.789062 355.121094 C 321.015625 340.28125 339.21875 319.125 349.300781 294.367188 C 358.917969 270.742188 360.96875 244.175781 355.589844 219.242188 C 350.203125 194.308594 337.472656 171.082031 319.722656 152.769531 C 302.246094 134.746094 280 121.574219 255.996094 114.179688 " fill-opacity="1" fill-rule="nonzero"/><path fill="#ca957f" d="M 199.976562 53.71875 C 198.863281 53.730469 197.972656 54.644531 197.992188 55.757812 L 197.992188 70.964844 C 197.992188 72.074219 198.890625 72.972656 200 72.972656 C 201.109375 72.972656 202.003906 72.074219 202.003906 70.964844 L 202.003906 55.757812 C 202.023438 54.625 201.105469 53.703125 199.976562 53.71875 " fill-opacity="1" fill-rule="nonzero"/><path fill="#f14e1c" d="M 97.480469 165.742188 C 97.480469 167.101562 96.378906 168.199219 95.023438 168.199219 C 93.667969 168.199219 92.570312 167.097656 92.570312 165.742188 C 92.570312 164.386719 93.667969 163.289062 95.023438 163.289062 C 96.378906 163.289062 97.480469 164.386719 97.480469 165.742188 " fill-opacity="1" fill-rule="nonzero"/><path fill="#f14e1c" d="M 144.738281 170.175781 C 144.738281 171.222656 143.886719 172.070312 142.839844 172.070312 C 141.792969 172.070312 140.941406 171.222656 140.941406 170.175781 C 140.941406 169.125 141.792969 168.277344 142.839844 168.277344 C 143.886719 168.277344 144.738281 169.125 144.738281 170.175781 " fill-opacity="1" fill-rule="nonzero"/><path fill="#f14e1c" d="M 85.410156 192.582031 C 85.410156 194.578125 83.785156 196.199219 81.789062 196.203125 C 79.785156 196.199219 78.160156 194.578125 78.160156 192.582031 C 78.160156 190.578125 79.785156 188.953125 81.789062 188.953125 C 83.785156 188.953125 85.410156 190.578125 85.410156 192.582031 " fill-opacity="1" fill-rule="nonzero"/><path fill="#f14e1c" d="M 138.007812 206.324219 C 138.007812 208.105469 136.566406 209.546875 134.789062 209.546875 C 133.007812 209.546875 131.566406 208.105469 131.566406 206.324219 C 131.566406 204.542969 133.007812 203.101562 134.789062 203.101562 C 136.566406 203.101562 138.007812 204.542969 138.007812 206.324219 " fill-opacity="1" fill-rule="nonzero"/><path fill="#f14e1c" d="M 121.632812 225.527344 C 121.632812 226.789062 120.613281 227.808594 119.351562 227.808594 C 118.09375 227.808594 117.070312 226.789062 117.070312 225.527344 C 117.070312 224.269531 118.09375 223.246094 119.351562 223.246094 C 120.613281 223.246094 121.632812 224.269531 121.632812 225.527344 " fill-opacity="1" fill-rule="nonzero"/><path fill="#f14e1c" d="M 98.785156 213.722656 C 98.785156 214.503906 98.472656 215.257812 97.917969 215.8125 C 97.367188 216.363281 96.613281 216.671875 95.828125 216.671875 C 94.195312 216.671875 92.875 215.355469 92.875 213.722656 C 92.875 212.9375 93.1875 212.1875 93.742188 211.632812 C 94.296875 211.078125 95.046875 210.769531 95.828125 210.769531 C 96.613281 210.769531 97.367188 211.078125 97.917969 211.632812 C 98.472656 212.1875 98.785156 212.9375 98.785156 213.722656 " fill-opacity="1" fill-rule="nonzero"/><path fill="#f14e1c" d="M 101.976562 243.480469 C 101.976562 244.261719 101.664062 245.011719 101.109375 245.566406 C 100.554688 246.121094 99.804688 246.429688 99.023438 246.429688 C 98.242188 246.429688 97.488281 246.121094 96.933594 245.566406 C 96.382812 245.011719 96.070312 244.261719 96.070312 243.480469 C 96.070312 241.847656 97.390625 240.523438 99.023438 240.523438 C 100.652344 240.523438 101.976562 241.847656 101.976562 243.480469 " fill-opacity="1" fill-rule="nonzero"/><path fill="#f14e1c" d="M 71.664062 253.550781 C 71.664062 254.890625 70.582031 255.96875 69.246094 255.96875 C 67.910156 255.96875 66.832031 254.890625 66.832031 253.550781 C 66.832031 252.21875 67.910156 251.140625 69.246094 251.140625 C 70.582031 251.136719 71.664062 252.21875 71.664062 253.550781 " fill-opacity="1" fill-rule="nonzero"/><path fill="#f14e1c" d="M 92.109375 272.652344 C 92.109375 273.367188 91.824219 274.050781 91.324219 274.554688 C 90.816406 275.058594 90.136719 275.34375 89.421875 275.34375 C 87.941406 275.34375 86.738281 274.140625 86.738281 272.652344 C 86.738281 271.175781 87.941406 269.972656 89.421875 269.972656 C 90.136719 269.972656 90.816406 270.253906 91.324219 270.757812 C 91.824219 271.261719 92.109375 271.941406 92.109375 272.652344 " fill-opacity="1" fill-rule="nonzero"/><path fill="#f14e1c" d="M 123.929688 188.835938 C 123.929688 189.9375 123.039062 190.832031 121.9375 190.832031 C 120.835938 190.832031 119.949219 189.9375 119.949219 188.835938 C 119.949219 187.738281 120.835938 186.84375 121.9375 186.84375 C 123.039062 186.84375 123.929688 187.738281 123.929688 188.835938 " fill-opacity="1" fill-rule="nonzero"/><path fill="#f14e1c" d="M 73.414062 227.964844 C 73.414062 229.152344 72.453125 230.117188 71.265625 230.117188 C 70.082031 230.117188 69.121094 229.152344 69.121094 227.964844 C 69.121094 226.777344 70.082031 225.816406 71.265625 225.816406 C 72.453125 225.816406 73.414062 226.78125 73.414062 227.964844 " fill-opacity="1" fill-rule="nonzero"/><path fill="#f14e1c" d="M 142.582031 136.40625 C 142.582031 137.765625 141.484375 138.863281 140.128906 138.863281 C 138.769531 138.863281 137.671875 137.765625 137.671875 136.40625 C 137.671875 135.054688 138.769531 133.949219 140.128906 133.949219 C 141.484375 133.949219 142.582031 135.054688 142.582031 136.40625 " fill-opacity="1" fill-rule="nonzero"/><path fill="#f14e1c" d="M 117.777344 146.074219 C 117.777344 147.125 116.925781 147.976562 115.878906 147.976562 C 114.828125 147.976562 113.976562 147.125 113.976562 146.074219 C 113.976562 145.023438 114.828125 144.175781 115.878906 144.175781 C 116.925781 144.175781 117.777344 145.023438 117.777344 146.074219 " fill-opacity="1" fill-rule="nonzero"/><path fill="#fab763" d="M 146.679688 140.433594 C 145.628906 140.433594 144.589844 140.625 143.605469 141.007812 C 132.804688 145.039062 122.753906 150.972656 114 158.480469 C 105.515625 165.757812 98.292969 174.472656 92.726562 184.167969 C 91.546875 186.128906 91.207031 188.484375 91.78125 190.695312 C 92.359375 192.910156 93.796875 194.800781 95.78125 195.941406 C 97.765625 197.078125 100.121094 197.375 102.320312 196.753906 C 104.523438 196.132812 106.382812 194.65625 107.480469 192.648438 C 112.078125 184.644531 118.0625 177.40625 125.066406 171.402344 C 132.289062 165.207031 140.640625 160.28125 149.558594 156.957031 C 153.449219 155.554688 155.777344 151.558594 155.066406 147.484375 C 154.359375 143.410156 150.816406 140.429688 146.679688 140.433594 " fill-opacity="1" fill-rule="nonzero"/><path fill="#f5793f" d="M 110.53125 178.800781 C 110.53125 179.773438 109.742188 180.5625 108.765625 180.5625 C 107.792969 180.5625 107.003906 179.773438 107.003906 178.800781 C 107.003906 177.824219 107.792969 177.035156 108.765625 177.035156 C 109.742188 177.035156 110.53125 177.824219 110.53125 178.800781 " fill-opacity="1" fill-rule="nonzero"/><path fill="#f5793f" d="M 130.875 158.371094 C 130.875 159.382812 130.050781 160.210938 129.035156 160.210938 C 128.019531 160.210938 127.195312 159.382812 127.195312 158.371094 C 127.195312 157.355469 128.019531 156.53125 129.035156 156.53125 C 130.050781 156.53125 130.875 157.355469 130.875 158.371094 " fill-opacity="1" fill-rule="nonzero"/><path fill="#393637" d="M 180.457031 233.792969 C 180.457031 239.757812 178.089844 245.484375 173.871094 249.703125 C 169.652344 253.921875 163.933594 256.289062 157.96875 256.289062 C 152.003906 256.289062 146.285156 253.921875 142.066406 249.703125 C 137.847656 245.484375 135.480469 239.757812 135.480469 233.792969 C 135.480469 227.828125 137.847656 222.105469 142.066406 217.886719 C 146.285156 213.667969 152.003906 211.296875 157.96875 211.296875 C 163.933594 211.296875 169.652344 213.667969 173.871094 217.886719 C 178.089844 222.105469 180.457031 227.828125 180.457031 233.792969 " fill-opacity="1" fill-rule="nonzero"/><path fill="#ffffff" d="M 158.269531 227.558594 C 158.269531 231.695312 154.914062 235.050781 150.785156 235.050781 C 146.652344 235.050781 143.296875 231.695312 143.296875 227.558594 C 143.296875 223.425781 146.652344 220.078125 150.785156 220.078125 C 154.914062 220.078125 158.269531 223.425781 158.269531 227.558594 " fill-opacity="1" fill-rule="nonzero"/><path fill="#ffffff" d="M 166.660156 238.679688 C 166.660156 239.851562 166.195312 240.976562 165.359375 241.808594 C 164.535156 242.636719 163.410156 243.105469 162.234375 243.105469 C 159.792969 243.105469 157.8125 241.121094 157.8125 238.679688 C 157.8125 236.234375 159.792969 234.257812 162.234375 234.257812 C 163.410156 234.257812 164.535156 234.722656 165.359375 235.550781 C 166.195312 236.382812 166.660156 237.503906 166.660156 238.679688 " fill-opacity="1" fill-rule="nonzero"/><path fill="#393637" d="M 277.125 233.792969 C 277.125 246.21875 267.058594 256.289062 254.636719 256.289062 C 248.671875 256.289062 242.953125 253.921875 238.734375 249.703125 C 234.515625 245.484375 232.148438 239.757812 232.148438 233.792969 C 232.148438 227.828125 234.515625 222.105469 238.734375 217.886719 C 242.953125 213.667969 248.671875 211.296875 254.636719 211.296875 C 267.058594 211.296875 277.125 221.371094 277.125 233.792969 " fill-opacity="1" fill-rule="nonzero"/><path fill="#ffffff" d="M 254.933594 227.558594 C 254.933594 229.550781 254.148438 231.453125 252.738281 232.855469 C 251.339844 234.261719 249.4375 235.050781 247.449219 235.050781 C 243.316406 235.050781 239.964844 231.695312 239.964844 227.558594 C 239.964844 223.425781 243.316406 220.078125 247.449219 220.078125 C 249.4375 220.078125 251.339844 220.867188 252.738281 222.265625 C 254.148438 223.671875 254.933594 225.578125 254.933594 227.558594 " fill-opacity="1" fill-rule="nonzero"/><path fill="#ffffff" d="M 263.324219 238.679688 C 263.324219 239.851562 262.859375 240.976562 262.027344 241.808594 C 261.199219 242.636719 260.074219 243.105469 258.902344 243.105469 C 257.726562 243.105469 256.605469 242.636719 255.777344 241.808594 C 254.945312 240.976562 254.480469 239.851562 254.480469 238.679688 C 254.480469 237.503906 254.945312 236.382812 255.777344 235.550781 C 256.605469 234.722656 257.726562 234.257812 258.902344 234.257812 C 260.074219 234.257812 261.199219 234.722656 262.027344 235.550781 C 262.859375 236.382812 263.324219 237.503906 263.324219 238.679688 " fill-opacity="1" fill-rule="nonzero"/><path fill="#f3637a" d="M 168.386719 268.871094 C 168.386719 271.027344 167.003906 273.089844 164.539062 274.613281 C 162.078125 276.140625 158.738281 276.992188 155.253906 276.992188 C 148.003906 276.992188 142.125 273.359375 142.125 268.871094 C 142.125 264.386719 148.003906 260.753906 155.253906 260.753906 C 158.738281 260.753906 162.078125 261.609375 164.539062 263.132812 C 167.003906 264.652344 168.386719 266.71875 168.386719 268.871094 " fill-opacity="1" fill-rule="nonzero"/><path fill="#f3637a" d="M 277.125 268.871094 C 277.125 271.027344 275.742188 273.089844 273.28125 274.613281 C 270.816406 276.140625 267.476562 276.992188 263.996094 276.992188 C 260.511719 276.992188 257.171875 276.140625 254.707031 274.613281 C 252.242188 273.089844 250.863281 271.027344 250.863281 268.871094 C 250.863281 266.71875 252.242188 264.652344 254.707031 263.132812 C 257.171875 261.609375 260.511719 260.753906 263.996094 260.753906 C 267.476562 260.753906 270.816406 261.609375 273.28125 263.132812 C 275.742188 264.652344 277.125 266.71875 277.125 268.871094 " fill-opacity="1" fill-rule="nonzero"/><path fill="#393637" d="M 225.339844 256.472656 C 223.777344 256.492188 222.40625 257.53125 221.957031 259.03125 C 219.816406 265.953125 213.421875 270.960938 205.726562 270.960938 C 198.058594 270.960938 191.695312 265.996094 189.527344 259.121094 C 189.269531 258.1875 188.640625 257.398438 187.789062 256.9375 C 186.9375 256.476562 185.9375 256.382812 185.011719 256.671875 C 184.09375 256.964844 183.324219 257.617188 182.890625 258.480469 C 182.457031 259.347656 182.394531 260.351562 182.714844 261.265625 C 185.800781 271.054688 194.953125 278.105469 205.726562 278.105469 C 216.539062 278.105469 225.734375 271.003906 228.785156 261.15625 C 229.140625 260.054688 228.949219 258.855469 228.265625 257.929688 C 227.585938 256.996094 226.492188 256.457031 225.339844 256.472656 " fill-opacity="1" fill-rule="nonzero"/><path fill="#302c2d" d="M 162.386719 211.738281 C 163.828125 213.089844 165.101562 214.628906 166.140625 216.304688 C 168.164062 219.554688 169.347656 223.316406 169.558594 227.140625 C 169.78125 231.328125 168.832031 235.578125 166.835938 239.269531 C 164.835938 242.957031 161.796875 246.074219 158.167969 248.171875 C 154.535156 250.265625 150.320312 251.335938 146.125 251.222656 C 145.234375 251.199219 144.34375 251.109375 143.457031 250.980469 C 147.515625 254.410156 152.65625 256.289062 157.96875 256.289062 C 163.933594 256.289062 169.652344 253.921875 173.871094 249.703125 C 178.089844 245.484375 180.457031 239.757812 180.457031 233.792969 C 180.457031 223.070312 172.894531 213.839844 162.386719 211.738281 " fill-opacity="1" fill-rule="nonzero"/><path fill="#ebebeb" d="M 152.871094 220.378906 C 153.382812 221.007812 153.804688 221.703125 154.09375 222.460938 C 154.617188 223.828125 154.753906 225.347656 154.46875 226.785156 C 154.191406 228.199219 153.5 229.527344 152.519531 230.578125 C 151.53125 231.625 150.253906 232.390625 148.867188 232.765625 C 147.789062 233.054688 146.65625 233.09375 145.558594 232.914062 C 146.957031 234.28125 148.828125 235.042969 150.785156 235.046875 C 154.917969 235.050781 158.269531 231.699219 158.269531 227.5625 C 158.269531 224.238281 156.066406 221.308594 152.875 220.378906 L 152.871094 220.378906 " fill-opacity="1" fill-rule="nonzero"/><path fill="#ebebeb" d="M 164.289062 234.769531 C 164.746094 236.035156 164.746094 237.46875 164.21875 238.707031 C 163.808594 239.664062 163.117188 240.488281 162.246094 241.0625 C 161.382812 241.632812 160.351562 241.941406 159.316406 241.941406 L 159.253906 241.9375 C 160.070312 242.6875 161.132812 243.101562 162.238281 243.109375 C 164.679688 243.109375 166.660156 241.125 166.660156 238.683594 C 166.660156 237.039062 165.746094 235.53125 164.292969 234.769531 L 164.289062 234.769531 " fill-opacity="1" fill-rule="nonzero"/><path fill="#302c2d" d="M 259.050781 211.738281 C 260.492188 213.089844 261.765625 214.628906 262.8125 216.304688 C 264.828125 219.554688 266.015625 223.316406 266.226562 227.140625 C 266.445312 231.328125 265.496094 235.578125 263.5 239.269531 C 261.503906 242.957031 258.464844 246.074219 254.835938 248.171875 C 251.203125 250.265625 246.988281 251.335938 242.792969 251.222656 C 241.902344 251.199219 241.011719 251.109375 240.125 250.980469 C 244.183594 254.410156 249.320312 256.289062 254.636719 256.289062 C 260.601562 256.289062 266.320312 253.921875 270.535156 249.703125 C 274.757812 245.484375 277.125 239.757812 277.125 233.792969 C 277.125 223.070312 269.5625 213.839844 259.050781 211.738281 " fill-opacity="1" fill-rule="nonzero"/><path fill="#ebebeb" d="M 249.539062 220.378906 C 250.046875 221.007812 250.46875 221.703125 250.757812 222.460938 C 251.289062 223.828125 251.421875 225.347656 251.136719 226.785156 C 250.855469 228.199219 250.171875 229.527344 249.1875 230.578125 C 248.199219 231.625 246.921875 232.390625 245.53125 232.765625 C 244.457031 233.054688 243.324219 233.09375 242.226562 232.914062 C 243.625 234.28125 245.496094 235.042969 247.453125 235.046875 C 251.582031 235.050781 254.9375 231.699219 254.9375 227.5625 C 254.933594 224.238281 252.734375 221.308594 249.542969 220.378906 L 249.539062 220.378906 " fill-opacity="1" fill-rule="nonzero"/><path fill="#ebebeb" d="M 260.957031 234.769531 C 261.414062 236.035156 261.414062 237.46875 260.890625 238.707031 C 260.476562 239.664062 259.789062 240.488281 258.921875 241.0625 C 258.054688 241.632812 257.019531 241.941406 255.984375 241.941406 L 255.925781 241.9375 C 256.738281 242.6875 257.804688 243.101562 258.90625 243.109375 C 261.351562 243.109375 263.332031 241.125 263.332031 238.683594 C 263.328125 237.039062 262.417969 235.53125 260.964844 234.769531 L 260.957031 234.769531 " fill-opacity="1" fill-rule="nonzero"/></svg>