<svg xmlns="http://www.w3.org/2000/svg" xmlns:xlink="http://www.w3.org/1999/xlink" width="512" zoomAndPan="magnify" viewBox="0 0 384 383.999986" height="512" preserveAspectRatio="xMidYMid meet" version="1.0"><defs><clipPath id="1675494d8e"><path d="M 256 65.058594 L 378 65.058594 L 378 176 L 256 176 Z M 256 65.058594 " clip-rule="nonzero"/></clipPath><clipPath id="47d9219031"><path d="M 330 65.058594 L 378 65.058594 L 378 115 L 330 115 Z M 330 65.058594 " clip-rule="nonzero"/></clipPath><clipPath id="e0e58f3d2f"><path d="M 3 218 L 304 218 L 304 319.308594 L 3 319.308594 Z M 3 218 " clip-rule="nonzero"/></clipPath><clipPath id="93214292d6"><path d="M 6 236 L 144 236 L 144 319.308594 L 6 319.308594 Z M 6 236 " clip-rule="nonzero"/></clipPath><clipPath id="8ed02a70e1"><path d="M 130 308 L 229 308 L 229 319.308594 L 130 319.308594 Z M 130 308 " clip-rule="nonzero"/></clipPath><clipPath id="edb99d6d49"><path d="M 45 290 L 144 290 L 144 319.308594 L 45 319.308594 Z M 45 290 " clip-rule="nonzero"/></clipPath><clipPath id="869c1f42ac"><path d="M 2.183594 152 L 304 152 L 304 290 L 2.183594 290 Z M 2.183594 152 " clip-rule="nonzero"/></clipPath></defs><path fill="#33434a" d="M 374.371094 70.066406 C 369.054688 65.144531 359.515625 73.003906 353.542969 79.03125 C 303.554688 94.15625 254.835938 163.953125 254.835938 163.953125 L 294.023438 189.210938 C 312.644531 157.148438 320.4375 123.039062 374.847656 90.636719 C 381.167969 86.871094 380.425781 75.675781 374.371094 70.066406 " fill-opacity="1" fill-rule="nonzero"/><path fill="#3f535c" d="M 256.148438 158.230469 L 254.375 167.277344 L 294.011719 188.941406 L 293.980469 175.472656 L 256.148438 158.230469 " fill-opacity="1" fill-rule="nonzero"/><g clip-path="url(#1675494d8e)"><path fill="#455a64" d="M 377.238281 76.480469 C 377.238281 76.628906 377.226562 76.785156 377.226562 76.925781 C 377.144531 77.933594 376.835938 78.902344 376.261719 79.792969 C 375.996094 80.242188 375.65625 80.660156 375.25 81.054688 C 375.136719 81.167969 374.992188 81.296875 374.859375 81.417969 C 374.652344 81.585938 374.429688 81.757812 374.195312 81.925781 C 374.039062 82.027344 373.871094 82.148438 373.6875 82.25 C 366.503906 86.53125 360.117188 90.78125 354.425781 95.019531 C 353.707031 95.546875 350.191406 98.242188 349.171875 99.050781 C 348.636719 99.484375 345.503906 102.058594 344.496094 102.914062 C 343.726562 103.5625 340.738281 106.21875 340.003906 106.898438 C 339.328125 107.527344 338.644531 108.15625 337.980469 108.796875 C 337.234375 109.503906 336.503906 110.222656 335.789062 110.929688 C 335.105469 111.597656 334.4375 112.265625 333.804688 112.933594 C 333.148438 113.601562 330.679688 116.242188 330.09375 116.898438 C 328.707031 118.429688 327.390625 119.957031 326.132812 121.476562 C 325.625 122.089844 325.128906 122.707031 324.632812 123.332031 C 323.511719 124.734375 322.4375 126.121094 321.421875 127.503906 C 320.925781 128.175781 320.4375 128.855469 319.972656 129.519531 C 319.5 130.179688 319.042969 130.828125 318.585938 131.488281 C 317.113281 133.628906 315.738281 135.75 314.429688 137.859375 C 313.832031 138.824219 313.257812 139.792969 312.695312 140.746094 C 311.835938 142.1875 311.011719 143.628906 310.230469 145.039062 C 309.773438 145.855469 309.332031 146.652344 308.898438 147.453125 C 308.601562 148.015625 308.28125 148.585938 307.996094 149.144531 C 307.941406 149.238281 307.890625 149.328125 307.855469 149.410156 C 307.378906 150.296875 298.8125 166.96875 298.40625 167.6875 C 297.574219 169.257812 296.722656 170.785156 295.847656 172.304688 C 295.25 173.378906 294.621094 174.421875 293.980469 175.472656 L 256.148438 158.230469 C 264.503906 148.863281 275.636719 134.730469 288.003906 120.289062 C 291.164062 116.570312 307.132812 100.933594 311.503906 96.589844 L 311.71875 96.382812 C 326.175781 81.925781 340.671875 69.769531 353.746094 66.367188 C 358.617188 65.097656 363.289062 65.046875 367.707031 66.539062 C 368.019531 66.644531 368.34375 66.761719 368.660156 66.894531 C 369.023438 67.039062 369.378906 67.183594 369.742188 67.351562 C 370.222656 67.574219 370.695312 67.804688 371.164062 68.070312 C 371.621094 68.332031 372.058594 68.589844 372.464844 68.875 L 372.515625 68.898438 C 372.753906 69.054688 372.980469 69.234375 373.191406 69.40625 C 374.011719 70.027344 374.703125 70.726562 375.28125 71.441406 C 375.578125 71.796875 375.824219 72.164062 376.050781 72.542969 C 376.167969 72.726562 376.273438 72.90625 376.359375 73.105469 C 376.558594 73.472656 376.730469 73.851562 376.847656 74.230469 C 376.910156 74.425781 376.960938 74.613281 377.015625 74.804688 C 377.070312 74.988281 377.109375 75.1875 377.132812 75.367188 C 377.214844 75.75 377.238281 76.113281 377.238281 76.480469 " fill-opacity="1" fill-rule="nonzero"/></g><path fill="#48606d" d="M 293.980469 175.472656 L 292.992188 175.023438 C 292.992188 175.023438 292.992188 175.019531 292.992188 175.019531 L 293.980469 175.472656 " fill-opacity="1" fill-rule="nonzero"/><path fill="#3a4e58" d="M 307.226562 150.621094 C 307.5625 149.964844 307.785156 149.535156 307.855469 149.410156 C 307.890625 149.328125 307.941406 149.238281 307.996094 149.144531 C 308.28125 148.585938 308.601562 148.015625 308.898438 147.453125 C 309.332031 146.652344 309.773438 145.855469 310.230469 145.039062 C 311.011719 143.628906 311.835938 142.1875 312.695312 140.746094 C 313.257812 139.792969 313.832031 138.824219 314.429688 137.859375 C 315.738281 135.75 317.113281 133.628906 318.585938 131.488281 C 317.113281 133.628906 315.738281 135.75 314.429688 137.859375 C 313.847656 138.824219 313.257812 139.792969 312.695312 140.746094 C 311.835938 142.1875 311.011719 143.628906 310.230469 145.039062 C 309.664062 146.046875 308.175781 148.835938 307.226562 150.621094 M 319.234375 130.5625 C 319.476562 130.214844 319.722656 129.867188 319.972656 129.519531 C 320.4375 128.855469 320.925781 128.175781 321.421875 127.503906 C 322.4375 126.121094 323.511719 124.734375 324.632812 123.332031 C 323.511719 124.734375 322.4375 126.121094 321.421875 127.503906 C 321.0625 127.996094 319.976562 129.511719 319.234375 130.5625 M 326.132812 121.476562 C 327.390625 119.957031 328.707031 118.429688 330.09375 116.898438 C 330.097656 116.894531 330.097656 116.890625 330.101562 116.886719 C 330.097656 116.890625 330.097656 116.894531 330.09375 116.898438 C 328.707031 118.429688 327.390625 119.957031 326.132812 121.476562 M 340.003906 106.898438 C 340.003906 106.898438 340.007812 106.898438 340.011719 106.898438 C 340.007812 106.898438 340.003906 106.898438 340.003906 106.898438 M 344.488281 102.917969 C 344.488281 102.914062 344.492188 102.914062 344.496094 102.914062 C 344.492188 102.914062 344.488281 102.914062 344.488281 102.917969 M 374.195312 81.925781 C 374.429688 81.757812 374.652344 81.585938 374.859375 81.417969 C 374.652344 81.597656 374.429688 81.765625 374.195312 81.925781 M 375.25 81.054688 C 375.3125 80.996094 375.371094 80.9375 375.429688 80.875 C 375.371094 80.9375 375.3125 80.996094 375.25 81.054688 M 376.121094 80.011719 C 376.167969 79.9375 376.214844 79.867188 376.261719 79.792969 C 376.355469 79.644531 376.441406 79.496094 376.519531 79.351562 C 376.402344 79.574219 376.273438 79.796875 376.121094 80.011719 " fill-opacity="1" fill-rule="nonzero"/><path fill="#939598" d="M 369.742188 67.351562 C 369.378906 67.183594 369.023438 67.039062 368.660156 66.894531 C 368.34375 66.761719 368.019531 66.644531 367.707031 66.539062 C 368.398438 66.761719 369.074219 67.039062 369.742188 67.351562 " fill-opacity="1" fill-rule="nonzero"/><path fill="#4f6977" d="M 304.976562 154.941406 C 306.234375 152.480469 307.527344 149.984375 308.898438 147.453125 C 308.601562 148.015625 308.28125 148.585938 307.996094 149.144531 C 307.941406 149.238281 307.890625 149.328125 307.855469 149.410156 C 307.785156 149.535156 307.5625 149.964844 307.226562 150.621094 C 306.867188 151.289062 306.59375 151.8125 306.464844 152.050781 C 306.195312 152.574219 305.652344 153.621094 304.976562 154.941406 M 308.898438 147.453125 C 308.414062 146.816406 307.925781 146.179688 307.4375 145.546875 C 312.953125 135.425781 319.816406 124.734375 330.433594 113.71875 C 330.917969 114.136719 331.398438 114.542969 331.898438 114.933594 C 331.28125 115.585938 330.683594 116.234375 330.101562 116.886719 C 330.097656 116.890625 330.097656 116.894531 330.09375 116.898438 C 328.707031 118.429688 327.390625 119.957031 326.132812 121.476562 C 325.625 122.089844 325.117188 122.71875 324.632812 123.332031 C 323.511719 124.734375 322.4375 126.121094 321.421875 127.503906 C 320.925781 128.175781 320.4375 128.855469 319.972656 129.519531 C 319.722656 129.867188 319.476562 130.214844 319.234375 130.5625 C 318.945312 130.96875 318.707031 131.304688 318.585938 131.488281 C 317.113281 133.628906 315.738281 135.75 314.429688 137.859375 C 313.832031 138.824219 313.257812 139.792969 312.695312 140.746094 C 311.835938 142.1875 311.011719 143.628906 310.230469 145.039062 C 309.773438 145.855469 309.332031 146.652344 308.898438 147.453125 " fill-opacity="1" fill-rule="nonzero"/><path fill="#34454c" d="M 292.992188 175.023438 L 284.242188 171.035156 L 292.988281 175.019531 L 292.992188 175.023438 " fill-opacity="1" fill-rule="nonzero"/><path fill="#3b4f5b" d="M 292.992188 175.023438 L 292.988281 175.019531 L 292.992188 175.019531 C 292.992188 175.019531 292.992188 175.023438 292.992188 175.023438 " fill-opacity="1" fill-rule="nonzero"/><path fill="#90a4ae" d="M 362.015625 70.136719 C 366.007812 71.683594 363.945312 77.480469 355.320312 82.285156 C 346.695312 87.09375 340.691406 85.785156 341.484375 81.574219 C 342.027344 78.703125 345.777344 75.054688 350 72.703125 C 354.222656 70.351562 359.285156 69.082031 362.015625 70.136719 " fill-opacity="1" fill-rule="nonzero"/><path fill="#33434a" d="M 359.0625 72.457031 C 361.792969 73.515625 360.382812 77.484375 354.480469 80.777344 C 348.578125 84.0625 344.46875 83.171875 345.015625 80.289062 C 345.382812 78.320312 347.957031 75.828125 350.84375 74.222656 C 353.730469 72.609375 357.191406 71.742188 359.0625 72.457031 " fill-opacity="1" fill-rule="nonzero"/><path fill="#bac8ce" d="M 288.996094 175.148438 L 266.101562 196.375 L 236.910156 180.9375 L 239.140625 177.265625 L 258.078125 161.746094 L 288.996094 175.148438 " fill-opacity="1" fill-rule="nonzero"/><path fill="#78909c" d="M 291.269531 183.671875 L 270.125 206.933594 L 266.101562 196.375 L 288.996094 175.148438 L 291.269531 183.671875 " fill-opacity="1" fill-rule="nonzero"/><path fill="#3a4e58" d="M 333.792969 112.9375 C 333.792969 112.9375 333.796875 112.933594 333.796875 112.933594 C 333.800781 112.933594 333.800781 112.933594 333.804688 112.933594 C 334.4375 112.265625 335.105469 111.597656 335.789062 110.929688 C 336.503906 110.222656 337.234375 109.503906 337.980469 108.796875 C 338.644531 108.15625 339.328125 107.527344 340.003906 106.898438 C 339.328125 107.527344 338.644531 108.15625 337.980469 108.796875 C 337.234375 109.503906 336.503906 110.222656 335.789062 110.929688 C 335.105469 111.597656 334.4375 112.265625 333.804688 112.933594 C 333.800781 112.933594 333.796875 112.933594 333.792969 112.9375 " fill-opacity="1" fill-rule="nonzero"/><path fill="#4f6977" d="M 331.898438 114.933594 C 332.503906 114.265625 333.144531 113.605469 333.796875 112.933594 C 333.796875 112.933594 333.792969 112.9375 333.792969 112.9375 C 333.140625 113.605469 332.519531 114.265625 331.898438 114.933594 M 330.433594 113.71875 C 325.261719 109.398438 320.484375 104.414062 315.542969 99.808594 C 314.277344 98.632812 313.011719 97.480469 311.71875 96.382812 C 326.175781 81.925781 340.671875 69.769531 353.746094 66.367188 C 354.855469 66.238281 355.957031 66.171875 357.042969 66.171875 C 360.875 66.171875 364.539062 67.003906 367.976562 68.851562 L 368.109375 68.921875 C 375.109375 72.6875 376.347656 79.648438 370.628906 82.984375 C 352.890625 93.371094 340.109375 103.679688 330.433594 113.71875 M 359.667969 69.761719 C 356.882812 69.761719 353.199219 70.921875 350 72.703125 C 345.777344 75.054688 342.027344 78.703125 341.484375 81.574219 C 341.042969 83.914062 342.695312 85.351562 345.726562 85.351562 C 348.160156 85.351562 351.484375 84.425781 355.320312 82.285156 C 363.945312 77.480469 366.007812 71.683594 362.015625 70.136719 C 361.351562 69.878906 360.554688 69.761719 359.667969 69.761719 M 337.980469 108.796875 C 338.644531 108.15625 339.3125 107.527344 340.003906 106.898438 C 339.328125 107.527344 338.644531 108.15625 337.980469 108.796875 M 340.011719 106.898438 C 340.738281 106.214844 341.480469 105.539062 342.25 104.871094 C 342.976562 104.21875 343.722656 103.570312 344.488281 102.917969 C 343.707031 103.578125 340.75 106.207031 340.011719 106.898438 M 344.5 102.90625 C 345.515625 102.046875 348.640625 99.46875 349.171875 99.050781 C 348.640625 99.484375 345.515625 102.046875 344.5 102.90625 M 375.429688 80.875 C 375.585938 80.707031 375.734375 80.53125 375.871094 80.355469 C 375.957031 80.242188 376.042969 80.125 376.121094 80.011719 C 375.925781 80.3125 375.691406 80.601562 375.429688 80.875 M 376.519531 79.351562 C 376.644531 79.113281 376.75 78.871094 376.835938 78.621094 C 376.882812 78.511719 376.921875 78.402344 376.957031 78.292969 C 377.003906 78.140625 377.046875 77.988281 377.082031 77.832031 C 377.148438 77.535156 377.199219 77.230469 377.226562 76.925781 C 377.15625 77.769531 376.929688 78.585938 376.519531 79.351562 M 377.238281 76.480469 C 377.238281 76.113281 377.199219 75.75 377.132812 75.367188 C 377.214844 75.75 377.238281 76.113281 377.238281 76.480469 M 376.847656 74.230469 C 376.714844 73.851562 376.558594 73.472656 376.359375 73.105469 C 376.558594 73.472656 376.730469 73.851562 376.847656 74.230469 M 376.050781 72.542969 C 375.824219 72.164062 375.566406 71.808594 375.28125 71.441406 C 375.578125 71.796875 375.824219 72.164062 376.050781 72.542969 M 373.191406 69.40625 C 372.953125 69.21875 372.714844 69.046875 372.464844 68.875 L 372.515625 68.898438 C 372.753906 69.054688 372.980469 69.234375 373.191406 69.40625 " fill-opacity="1" fill-rule="nonzero"/><path fill="#425b68" d="M 333.796875 112.933594 C 333.800781 112.933594 333.800781 112.933594 333.804688 112.933594 C 334.4375 112.265625 335.105469 111.597656 335.789062 110.929688 C 336.503906 110.222656 337.234375 109.503906 337.980469 108.796875 C 337.234375 109.503906 336.503906 110.222656 335.789062 110.929688 C 335.105469 111.597656 334.4375 112.265625 333.804688 112.933594 C 333.800781 112.933594 333.800781 112.933594 333.796875 112.933594 " fill-opacity="1" fill-rule="nonzero"/><g clip-path="url(#47d9219031)"><path fill="#5b7a8d" d="M 331.898438 114.933594 C 331.398438 114.542969 330.917969 114.136719 330.433594 113.71875 C 340.109375 103.679688 352.890625 93.371094 370.628906 82.984375 C 376.347656 79.648438 375.109375 72.6875 368.109375 68.921875 L 367.976562 68.851562 C 364.539062 67.003906 360.875 66.171875 357.042969 66.171875 C 355.957031 66.171875 354.855469 66.238281 353.746094 66.367188 C 356.125 65.746094 358.464844 65.417969 360.742188 65.417969 C 363.125 65.417969 365.449219 65.777344 367.707031 66.539062 C 368.019531 66.644531 368.34375 66.761719 368.660156 66.894531 C 369.023438 67.039062 369.378906 67.183594 369.742188 67.351562 C 370.222656 67.574219 370.695312 67.804688 371.164062 68.070312 C 371.621094 68.332031 372.058594 68.589844 372.464844 68.875 C 372.714844 69.046875 372.953125 69.21875 373.191406 69.40625 C 374.011719 70.027344 374.703125 70.726562 375.28125 71.441406 C 375.566406 71.808594 375.824219 72.164062 376.050781 72.542969 C 376.167969 72.726562 376.273438 72.90625 376.359375 73.105469 C 376.558594 73.472656 376.714844 73.851562 376.847656 74.230469 C 376.910156 74.425781 376.960938 74.613281 377.015625 74.804688 C 377.070312 74.988281 377.109375 75.1875 377.132812 75.367188 C 377.199219 75.75 377.238281 76.113281 377.238281 76.480469 C 377.238281 76.628906 377.226562 76.785156 377.226562 76.925781 C 377.199219 77.230469 377.148438 77.535156 377.082031 77.832031 C 377.046875 77.988281 377.003906 78.140625 376.957031 78.292969 C 376.921875 78.402344 376.882812 78.511719 376.835938 78.621094 C 376.75 78.871094 376.644531 79.113281 376.519531 79.351562 C 376.441406 79.496094 376.355469 79.644531 376.261719 79.792969 C 376.214844 79.867188 376.167969 79.9375 376.121094 80.011719 C 376.042969 80.125 375.957031 80.242188 375.871094 80.355469 C 375.734375 80.53125 375.585938 80.707031 375.429688 80.875 C 375.371094 80.9375 375.3125 80.996094 375.25 81.054688 C 375.136719 81.167969 374.992188 81.296875 374.859375 81.417969 C 374.652344 81.585938 374.429688 81.757812 374.195312 81.925781 C 374.039062 82.027344 373.871094 82.148438 373.6875 82.25 C 366.503906 86.53125 360.117188 90.78125 354.425781 95.019531 C 353.707031 95.546875 350.191406 98.242188 349.171875 99.050781 C 348.640625 99.46875 345.515625 102.046875 344.5 102.90625 C 344.5 102.910156 344.5 102.910156 344.496094 102.914062 C 344.492188 102.914062 344.488281 102.914062 344.488281 102.917969 C 343.722656 103.570312 342.976562 104.21875 342.25 104.871094 C 341.480469 105.539062 340.738281 106.214844 340.011719 106.898438 C 340.007812 106.898438 340.003906 106.898438 340.003906 106.898438 C 339.3125 107.527344 338.644531 108.15625 337.980469 108.796875 C 337.234375 109.503906 336.503906 110.222656 335.789062 110.929688 C 335.105469 111.597656 334.4375 112.265625 333.804688 112.933594 C 333.800781 112.933594 333.800781 112.933594 333.796875 112.933594 C 333.144531 113.605469 332.503906 114.265625 331.898438 114.933594 " fill-opacity="1" fill-rule="nonzero"/></g><path fill="#a1b4be" d="M 345.726562 85.351562 C 342.695312 85.351562 341.042969 83.914062 341.484375 81.574219 C 342.027344 78.703125 345.777344 75.054688 350 72.703125 C 353.199219 70.921875 356.882812 69.761719 359.667969 69.761719 C 360.554688 69.761719 361.351562 69.878906 362.015625 70.136719 C 366.007812 71.683594 363.945312 77.480469 355.320312 82.285156 C 351.484375 84.425781 348.160156 85.351562 345.726562 85.351562 M 357.460938 72.203125 C 355.558594 72.203125 353.03125 73 350.84375 74.222656 C 347.957031 75.828125 345.382812 78.320312 345.015625 80.289062 C 344.710938 81.886719 345.84375 82.875 347.917969 82.875 C 349.582031 82.875 351.851562 82.238281 354.480469 80.777344 C 360.382812 77.484375 361.792969 73.515625 359.0625 72.457031 C 358.609375 72.285156 358.066406 72.203125 357.460938 72.203125 " fill-opacity="1" fill-rule="nonzero"/><path fill="#3a4e58" d="M 347.917969 82.875 C 345.84375 82.875 344.710938 81.886719 345.015625 80.289062 C 345.382812 78.320312 347.957031 75.828125 350.84375 74.222656 C 353.03125 73 355.558594 72.203125 357.460938 72.203125 C 358.066406 72.203125 358.609375 72.285156 359.0625 72.457031 C 361.792969 73.515625 360.382812 77.484375 354.480469 80.777344 C 351.851562 82.238281 349.582031 82.875 347.917969 82.875 " fill-opacity="1" fill-rule="nonzero"/><path fill="#d1d3d4" d="M 265.917969 146.785156 C 272.472656 138.894531 279.976562 129.652344 288.003906 120.289062 C 279.980469 129.65625 272.480469 138.894531 265.917969 146.785156 " fill-opacity="1" fill-rule="nonzero"/><path fill="#2a373e" d="M 293.980469 175.472656 C 294.621094 174.421875 295.25 173.378906 295.847656 172.304688 C 296.722656 170.785156 297.574219 169.257812 298.40625 167.6875 C 298.453125 167.601562 298.589844 167.34375 298.792969 166.953125 C 299.601562 165.40625 301.503906 161.722656 303.359375 158.121094 C 300.277344 164.191406 297.347656 169.996094 293.980469 175.472656 " fill-opacity="1" fill-rule="nonzero"/><path fill="#394a53" d="M 284.242188 171.035156 L 256.148438 158.230469 C 259.085938 154.9375 262.363281 151.058594 265.917969 146.785156 C 272.480469 138.894531 279.980469 129.65625 288.003906 120.289062 C 294.480469 128.707031 300.957031 137.128906 307.4375 145.546875 C 302.734375 154.171875 299.007812 162.382812 294.773438 170.027344 C 295.488281 167.878906 296.144531 165.707031 296.738281 163.523438 C 298.476562 157.246094 299.539062 149.832031 295.429688 144.769531 C 292.925781 141.714844 289.007812 140.347656 285.015625 140.347656 C 282.859375 140.347656 280.679688 140.746094 278.6875 141.496094 C 272.992188 143.636719 268.492188 148.003906 264.179688 152.304688 C 261.96875 154.511719 259.71875 156.765625 257.285156 158.742188 L 284.242188 171.035156 M 298.792969 166.953125 C 299.898438 164.832031 303.015625 158.753906 304.976562 154.941406 C 304.429688 156.007812 303.894531 157.066406 303.359375 158.121094 C 301.503906 161.722656 299.601562 165.40625 298.792969 166.953125 " fill-opacity="1" fill-rule="nonzero"/><path fill="#304149" d="M 293.980469 175.472656 C 294.621094 174.421875 295.25 173.378906 295.847656 172.304688 C 296.722656 170.785156 297.574219 169.257812 298.40625 167.6875 C 298.453125 167.609375 298.585938 167.351562 298.792969 166.953125 C 298.589844 167.34375 298.453125 167.601562 298.40625 167.6875 C 297.574219 169.257812 296.722656 170.785156 295.847656 172.304688 C 295.25 173.378906 294.621094 174.421875 293.980469 175.472656 " fill-opacity="1" fill-rule="nonzero"/><path fill="#415763" d="M 293.980469 175.472656 L 292.992188 175.019531 C 293.617188 173.371094 294.214844 171.707031 294.773438 170.027344 C 299.007812 162.382812 302.734375 154.171875 307.4375 145.546875 C 307.925781 146.179688 308.414062 146.816406 308.898438 147.453125 C 307.527344 149.984375 306.234375 152.480469 304.976562 154.941406 C 303.015625 158.753906 299.898438 164.832031 298.792969 166.953125 C 298.585938 167.351562 298.453125 167.609375 298.40625 167.6875 C 297.574219 169.257812 296.722656 170.785156 295.847656 172.304688 C 295.25 173.378906 294.621094 174.421875 293.980469 175.472656 " fill-opacity="1" fill-rule="nonzero"/><path fill="#2f3d45" d="M 292.988281 175.019531 L 284.242188 171.035156 L 257.285156 158.742188 C 259.71875 156.765625 261.96875 154.511719 264.179688 152.304688 C 268.492188 148.003906 272.992188 143.636719 278.6875 141.496094 C 280.679688 140.746094 282.859375 140.347656 285.015625 140.347656 C 289.007812 140.347656 292.925781 141.714844 295.429688 144.769531 C 299.539062 149.832031 298.476562 157.246094 296.738281 163.523438 C 296.144531 165.707031 295.488281 167.878906 294.773438 170.027344 C 293.972656 171.46875 293.152344 172.894531 292.308594 174.296875 L 292.988281 175.019531 " fill-opacity="1" fill-rule="nonzero"/><path fill="#354852" d="M 292.992188 175.019531 L 292.988281 175.019531 L 292.308594 174.296875 C 293.152344 172.894531 293.972656 171.46875 294.773438 170.027344 C 294.214844 171.707031 293.617188 173.371094 292.992188 175.019531 " fill-opacity="1" fill-rule="nonzero"/><path fill="#98a5ab" d="M 282.882812 180.8125 C 273.351562 174.582031 262.894531 169.835938 251.925781 166.789062 L 258.078125 161.746094 L 288.996094 175.148438 L 282.882812 180.8125 " fill-opacity="1" fill-rule="nonzero"/><path fill="#627782" d="M 289.585938 185.507812 C 287.40625 183.855469 285.191406 182.292969 282.890625 180.816406 C 282.886719 180.816406 282.886719 180.8125 282.882812 180.8125 L 288.996094 175.148438 L 291.269531 183.671875 L 289.585938 185.507812 " fill-opacity="1" fill-rule="nonzero"/><g clip-path="url(#e0e58f3d2f)"><path fill="#f02222" d="M 303.082031 218.964844 C 298.289062 255.863281 276.824219 290.828125 228.34375 308.050781 C 208.851562 314.980469 185 319.050781 156.113281 319.246094 C 151.839844 319.269531 147.671875 319.226562 143.605469 319.070312 C 99.960938 317.613281 67.921875 306.886719 45.503906 290.804688 C 19.695312 272.3125 6.65625 246.734375 3.300781 220.039062 L 303.082031 218.964844 " fill-opacity="1" fill-rule="nonzero"/></g><g clip-path="url(#93214292d6)"><path fill="#db8383" d="M 143.605469 319.070312 C 60.488281 316.292969 19.460938 279.910156 6.816406 236.964844 C 6.816406 236.96875 6.816406 236.972656 6.816406 236.976562 C 12.824219 257.367188 25.222656 276.273438 45.503906 290.804688 C 67.921875 306.886719 99.960938 317.613281 143.605469 319.070312 " fill-opacity="1" fill-rule="nonzero"/></g><path fill="#ce1111" d="M 130.15625 311.832031 C 106.296875 309.53125 82.757812 304.628906 60.160156 296.578125 C 55.222656 294.832031 50.324219 292.914062 45.503906 290.804688 C 25.222656 276.273438 12.824219 257.367188 6.816406 236.976562 C 9.910156 242.90625 14.679688 248.542969 20.878906 253.777344 C 37.269531 267.59375 63.65625 278.554688 95.605469 284.609375 C 98.683594 287.765625 101.886719 290.804688 105.207031 293.710938 C 112.953125 300.507812 121.320312 306.5625 130.15625 311.832031 " fill-opacity="1" fill-rule="nonzero"/><g clip-path="url(#8ed02a70e1)"><path fill="#ce1111" d="M 154.101562 319.253906 C 150.527344 319.253906 147.03125 319.199219 143.605469 319.070312 C 139.023438 316.855469 134.53125 314.4375 130.15625 311.832031 C 141.230469 312.894531 152.378906 313.402344 163.527344 313.402344 C 180.058594 313.402344 196.605469 312.289062 212.972656 310.246094 C 218.109375 309.605469 223.230469 308.871094 228.34375 308.050781 C 208.851562 314.980469 185 319.050781 156.113281 319.246094 C 155.441406 319.25 154.769531 319.253906 154.101562 319.253906 " fill-opacity="1" fill-rule="nonzero"/></g><g clip-path="url(#edb99d6d49)"><path fill="#b10909" d="M 143.605469 319.070312 C 99.960938 317.613281 67.921875 306.886719 45.503906 290.804688 C 50.324219 292.914062 55.222656 294.832031 60.160156 296.578125 C 82.757812 304.628906 106.296875 309.53125 130.15625 311.832031 C 134.53125 314.4375 139.023438 316.855469 143.605469 319.070312 " fill-opacity="1" fill-rule="nonzero"/></g><g clip-path="url(#869c1f42ac)"><path fill="#90a4ae" d="M 303.578125 220.949219 C 303.578125 243.226562 280.472656 263.035156 244.652344 275.628906 C 225.246094 282.449219 202.105469 287.167969 176.851562 288.980469 C 169.140625 289.554688 161.207031 289.835938 153.148438 289.835938 C 137.976562 289.835938 123.339844 288.804688 109.546875 286.890625 C 71.355469 281.613281 39.597656 269.558594 20.878906 253.777344 C 9.296875 244.003906 2.71875 232.832031 2.71875 220.949219 C 2.71875 203.058594 17.589844 186.757812 41.984375 174.527344 C 69.488281 160.707031 109.117188 152.050781 153.148438 152.050781 C 186.007812 152.050781 216.394531 156.878906 241.128906 165.058594 C 278.953125 177.566406 303.578125 197.929688 303.578125 220.949219 " fill-opacity="1" fill-rule="nonzero"/></g><path fill="#c5d1d7" d="M 176.851562 288.980469 C 175.808594 286.628906 174.765625 284.28125 173.726562 281.933594 C 176.011719 281.789062 178.28125 281.625 180.53125 281.441406 C 180.605469 281.4375 180.679688 281.429688 180.757812 281.417969 C 181.261719 281.378906 181.765625 281.335938 182.269531 281.289062 C 182.535156 281.269531 182.804688 281.246094 183.070312 281.21875 C 186.71875 280.886719 190.324219 280.492188 193.863281 280.042969 C 194.894531 279.914062 195.921875 279.777344 196.941406 279.636719 C 199.550781 279.277344 202.125 278.886719 204.667969 278.464844 C 205.097656 278.402344 205.523438 278.328125 205.953125 278.25 C 212.699219 277.105469 219.203125 275.742188 225.414062 274.1875 C 226.109375 274.015625 226.796875 273.839844 227.484375 273.660156 C 231.917969 272.507812 236.199219 271.253906 240.3125 269.90625 C 240.460938 269.859375 240.601562 269.8125 240.722656 269.777344 C 240.722656 269.773438 240.722656 269.773438 240.726562 269.773438 C 240.746094 269.765625 240.769531 269.757812 240.796875 269.746094 C 242.574219 269.160156 244.320312 268.554688 246.03125 267.933594 C 245.570312 270.5 245.109375 273.0625 244.652344 275.628906 C 225.246094 282.449219 202.105469 287.167969 176.851562 288.980469 M 109.546875 286.890625 C 104.796875 286.230469 100.140625 285.472656 95.605469 284.609375 C 63.65625 278.554688 37.269531 267.59375 20.878906 253.777344 C 21.535156 251.675781 22.363281 249.632812 23.355469 247.667969 C 26.984375 250.820312 31.199219 253.816406 35.945312 256.640625 C 36.695312 257.089844 37.472656 257.546875 38.265625 258 C 38.84375 258.316406 39.449219 258.660156 40.046875 258.964844 C 41.1875 259.585938 42.347656 260.214844 43.527344 260.792969 C 43.640625 260.835938 43.765625 260.90625 43.871094 260.945312 C 44.070312 261.054688 44.28125 261.140625 44.5 261.246094 C 46.324219 262.15625 48.21875 263.015625 50.148438 263.875 C 51.03125 264.265625 51.933594 264.652344 52.835938 265.035156 C 70.171875 272.273438 91.628906 277.640625 115.511719 280.421875 C 113.523438 282.578125 111.535156 284.730469 109.546875 286.890625 " fill-opacity="1" fill-rule="nonzero"/><path fill="#455a64" d="M 298.203125 219.503906 C 298.203125 231.324219 290.703125 242.410156 277.683594 251.820312 C 277.078125 252.292969 276.457031 252.746094 275.8125 253.175781 C 275.015625 253.734375 274.199219 254.273438 273.363281 254.808594 C 272.308594 255.480469 271.253906 256.125 270.183594 256.75 C 269.515625 257.179688 268.824219 257.570312 268.121094 257.953125 C 267.109375 258.515625 266.097656 259.070312 265.046875 259.613281 C 263.023438 260.710938 260.894531 261.746094 258.707031 262.753906 C 258.382812 262.902344 258.0625 263.054688 257.742188 263.207031 C 255.503906 264.199219 253.183594 265.210938 250.777344 266.132812 C 225.011719 276.339844 190.734375 282.5625 153.148438 282.5625 C 114.230469 282.5625 78.882812 275.910156 52.835938 265.035156 C 51.933594 264.652344 51.03125 264.265625 50.148438 263.875 C 48.21875 263.015625 46.324219 262.15625 44.5 261.246094 C 44.28125 261.140625 44.070312 261.054688 43.871094 260.945312 C 43.765625 260.90625 43.640625 260.835938 43.527344 260.792969 C 42.347656 260.214844 41.1875 259.585938 40.046875 258.964844 C 39.449219 258.660156 38.84375 258.316406 38.265625 258 C 37.472656 257.546875 36.695312 257.089844 35.945312 256.640625 C 18.429688 246.21875 8.089844 233.386719 8.089844 219.503906 C 8.089844 184.671875 73.054688 156.449219 153.148438 156.449219 C 195.851562 156.449219 234.226562 164.476562 260.792969 177.242188 C 284.042969 188.414062 298.203125 203.226562 298.203125 219.503906 " fill-opacity="1" fill-rule="nonzero"/><path fill="#394a53" d="M 260.085938 262.109375 C 261.792969 261.296875 263.449219 260.472656 265.046875 259.613281 C 263.453125 260.476562 261.792969 261.304688 260.085938 262.109375 M 277.683594 251.820312 C 277.769531 251.109375 277.789062 250.375 277.789062 249.648438 C 277.789062 236.054688 266.949219 223.613281 248.988281 214.003906 C 252.921875 201.75 256.855469 189.496094 260.792969 177.242188 C 284.042969 188.414062 298.203125 203.226562 298.203125 219.503906 C 298.203125 231.324219 290.703125 242.410156 277.683594 251.820312 " fill-opacity="1" fill-rule="nonzero"/><path fill="#939598" d="M 50.625 170.527344 C 50.628906 170.527344 50.632812 170.523438 50.636719 170.519531 C 50.632812 170.523438 50.628906 170.523438 50.625 170.527344 M 50.648438 170.519531 C 59.191406 166.871094 68.660156 163.667969 78.882812 161.011719 C 100.328125 155.433594 125.0625 152.179688 151.429688 152.050781 L 153.148438 152.050781 C 152.574219 152.050781 152 152.054688 151.429688 152.058594 C 151.429688 152.054688 151.429688 152.054688 151.429688 152.050781 C 125.0625 152.179688 100.328125 155.433594 78.882812 161.011719 C 78.882812 161.015625 78.882812 161.015625 78.882812 161.015625 C 68.660156 163.679688 59.191406 166.871094 50.648438 170.519531 " fill-opacity="1" fill-rule="nonzero"/><path fill="#a1b4be" d="M 43.035156 178.453125 C 42.667969 177.15625 42.324219 175.84375 41.984375 174.527344 C 44.746094 173.144531 47.628906 171.804688 50.625 170.527344 C 50.628906 170.523438 50.632812 170.523438 50.636719 170.519531 C 50.640625 170.519531 50.644531 170.519531 50.648438 170.519531 C 59.191406 166.871094 68.660156 163.679688 78.882812 161.015625 C 79.242188 162.367188 79.632812 163.714844 80.027344 165.035156 C 66.035156 168.589844 53.535156 173.136719 43.035156 178.453125 M 240.484375 169.160156 C 216.179688 161.183594 185.941406 156.449219 153.148438 156.449219 C 152.582031 156.449219 152.019531 156.449219 151.453125 156.453125 C 151.445312 154.988281 151.4375 153.523438 151.429688 152.058594 C 152 152.054688 152.574219 152.050781 153.148438 152.050781 C 186.007812 152.050781 216.394531 156.878906 241.128906 165.058594 C 241.21875 165.335938 240.964844 166.828125 240.484375 169.160156 " fill-opacity="1" fill-rule="nonzero"/><path fill="#4f6977" d="M 58.09375 217.277344 C 51.84375 204.855469 46.796875 191.839844 43.035156 178.453125 C 53.535156 173.136719 66.035156 168.589844 80.027344 165.035156 C 81.195312 168.921875 82.410156 172.578125 83.003906 175.390625 C 85.03125 184.847656 87.054688 194.304688 89.070312 203.761719 C 77.066406 207.402344 66.566406 211.984375 58.09375 217.277344 M 232.078125 206.550781 C 211.316406 199.023438 185 194.527344 156.371094 194.527344 C 156.324219 194.527344 156.273438 194.527344 156.21875 194.527344 C 156.199219 194.527344 156.171875 194.527344 156.148438 194.527344 C 156.121094 194.527344 156.097656 194.527344 156.074219 194.527344 C 156.039062 194.527344 156.003906 194.527344 155.976562 194.53125 C 155.953125 194.53125 155.9375 194.53125 155.917969 194.53125 C 155.882812 194.53125 155.839844 194.53125 155.800781 194.53125 C 155.789062 194.53125 155.78125 194.53125 155.773438 194.53125 C 155.726562 194.53125 155.679688 194.53125 155.632812 194.53125 C 155.632812 194.53125 155.625 194.53125 155.625 194.53125 C 154.296875 194.535156 152.976562 194.546875 151.664062 194.570312 C 151.59375 181.863281 151.523438 169.160156 151.453125 156.453125 C 152.019531 156.449219 152.582031 156.449219 153.148438 156.449219 C 185.941406 156.449219 216.179688 161.183594 240.484375 169.160156 C 238.863281 176.976562 234.652344 194.199219 232.078125 206.550781 " fill-opacity="1" fill-rule="nonzero"/><path fill="#a4a7ac" d="M 78.882812 161.015625 C 78.882812 161.015625 78.882812 161.015625 78.882812 161.011719 C 100.328125 155.433594 125.0625 152.179688 151.429688 152.050781 C 151.429688 152.054688 151.429688 152.054688 151.429688 152.058594 C 125.066406 152.191406 100.328125 155.433594 78.882812 161.015625 " fill-opacity="1" fill-rule="nonzero"/><path fill="#b0c1cb" d="M 80.027344 165.035156 C 79.632812 163.714844 79.242188 162.367188 78.882812 161.015625 C 100.328125 155.433594 125.066406 152.191406 151.429688 152.058594 C 151.4375 153.523438 151.445312 154.988281 151.453125 156.453125 C 125.429688 156.582031 101.042969 159.691406 80.027344 165.035156 " fill-opacity="1" fill-rule="nonzero"/><path fill="#5b7a8d" d="M 89.070312 203.761719 C 87.054688 194.304688 85.03125 184.847656 83.003906 175.390625 C 82.410156 172.578125 81.195312 168.921875 80.027344 165.035156 C 101.042969 159.691406 125.429688 156.582031 151.453125 156.453125 C 151.523438 169.160156 151.59375 181.863281 151.664062 194.570312 C 140.085938 194.773438 128.925781 195.710938 118.402344 197.265625 C 107.921875 198.832031 98.074219 201.03125 89.070312 203.761719 " fill-opacity="1" fill-rule="nonzero"/><path fill="#90a4ae" d="M 277.789062 249.648438 C 277.789062 250.375 277.769531 251.109375 277.683594 251.820312 C 277.078125 252.292969 276.457031 252.746094 275.8125 253.175781 C 275.015625 253.734375 274.199219 254.273438 273.363281 254.808594 C 272.308594 255.480469 271.253906 256.125 270.183594 256.75 C 269.515625 257.179688 268.824219 257.570312 268.121094 257.953125 C 267.109375 258.515625 266.097656 259.070312 265.046875 259.613281 C 262.726562 260.859375 260.277344 262.042969 257.742188 263.207031 C 255.503906 264.199219 253.183594 265.210938 250.777344 266.132812 C 248.929688 266.867188 247.035156 267.578125 245.101562 268.265625 C 243.945312 268.671875 241.019531 269.667969 240.722656 269.777344 C 239.410156 270.207031 235.863281 271.304688 235.410156 271.433594 C 234.082031 271.839844 232.726562 272.226562 231.367188 272.597656 C 228.152344 273.496094 224.839844 274.335938 221.441406 275.132812 L 221.398438 275.15625 C 219.722656 275.542969 212.808594 276.984375 211.019531 277.328125 C 209.496094 277.613281 207.945312 277.890625 206.398438 278.167969 C 205.601562 278.320312 204.835938 278.453125 204.039062 278.558594 C 199.117188 279.375 194.066406 280.066406 188.90625 280.625 C 187.429688 280.792969 185.917969 280.949219 184.417969 281.074219 C 183.300781 281.203125 182.160156 281.3125 181.019531 281.378906 C 180.808594 281.417969 180.613281 281.441406 180.421875 281.441406 C 178.421875 281.613281 176.421875 281.765625 174.402344 281.875 C 173.992188 281.914062 173.585938 281.9375 173.195312 281.957031 C 171.886719 282.042969 170.574219 282.105469 169.265625 282.171875 C 168.214844 282.238281 167.160156 282.28125 166.085938 282.304688 C 165.246094 282.34375 164.410156 282.367188 163.570312 282.390625 C 162.152344 282.449219 160.710938 282.472656 159.292969 282.496094 C 157.253906 282.539062 155.210938 282.5625 153.148438 282.5625 C 143.371094 282.5625 133.832031 282.152344 124.585938 281.335938 C 97.058594 278.945312 72.347656 273.171875 52.835938 265.035156 C 51.933594 264.652344 51.03125 264.265625 50.148438 263.875 C 48.21875 263.015625 46.324219 262.15625 44.5 261.246094 C 44.28125 261.140625 44.070312 261.054688 43.871094 260.945312 C 43.765625 260.90625 43.640625 260.835938 43.527344 260.792969 C 42.347656 260.214844 41.1875 259.585938 40.046875 258.964844 C 39.449219 258.660156 38.84375 258.316406 38.265625 258 C 37.472656 257.546875 36.695312 257.089844 35.945312 256.640625 C 35.277344 254.339844 34.957031 252.011719 34.957031 249.648438 C 34.957031 225.230469 69.941406 204.519531 118.402344 197.265625 C 118.875 197.199219 119.34375 197.132812 119.820312 197.066406 C 131.359375 195.433594 143.628906 194.527344 156.371094 194.527344 C 223.421875 194.527344 277.789062 219.199219 277.789062 249.648438 " fill-opacity="1" fill-rule="nonzero"/><path fill="#455a64" d="M 271.339844 249.648438 C 271.339844 252.054688 270.957031 254.445312 270.183594 256.75 C 269.515625 257.179688 268.824219 257.570312 268.121094 257.953125 C 267.109375 258.515625 266.097656 259.070312 265.046875 259.613281 C 262.726562 260.859375 260.277344 262.042969 257.742188 263.207031 C 255.503906 264.199219 253.183594 265.210938 250.777344 266.132812 C 248.929688 266.867188 247.035156 267.578125 245.101562 268.265625 C 243.945312 268.671875 242.78125 269.082031 241.578125 269.472656 C 241.300781 269.578125 241.019531 269.667969 240.722656 269.777344 C 239.410156 270.207031 235.863281 271.304688 235.410156 271.433594 C 234.082031 271.839844 232.726562 272.226562 231.367188 272.597656 C 228.152344 273.519531 224.839844 274.359375 221.441406 275.132812 L 221.398438 275.15625 C 219.722656 275.542969 212.808594 276.984375 211.019531 277.328125 C 209.496094 277.613281 207.945312 277.890625 206.398438 278.167969 C 205.601562 278.320312 204.835938 278.453125 204.039062 278.558594 C 199.117188 279.375 194.066406 280.066406 188.90625 280.625 C 187.429688 280.792969 185.917969 280.949219 184.417969 281.074219 C 183.300781 281.203125 182.160156 281.3125 181.019531 281.378906 C 180.808594 281.417969 180.613281 281.441406 180.421875 281.441406 C 178.421875 281.613281 176.421875 281.765625 174.402344 281.875 C 173.992188 281.914062 173.585938 281.9375 173.195312 281.957031 C 171.886719 282.042969 170.574219 282.105469 169.265625 282.171875 C 168.214844 282.238281 167.160156 282.28125 166.085938 282.304688 C 165.246094 282.34375 164.410156 282.367188 163.570312 282.390625 C 162.152344 282.449219 160.710938 282.472656 159.292969 282.496094 C 157.253906 282.539062 155.210938 282.5625 153.148438 282.5625 C 143.371094 282.5625 133.832031 282.152344 124.585938 281.335938 C 97.058594 278.945312 72.347656 273.171875 52.835938 265.035156 C 51.933594 264.652344 51.03125 264.265625 50.148438 263.875 C 48.21875 263.015625 46.324219 262.15625 44.5 261.246094 C 42.476562 257.523438 41.402344 253.644531 41.402344 249.648438 C 41.402344 229.730469 67.921875 212.503906 106.367188 204.390625 C 121.472656 201.183594 138.453125 199.394531 156.371094 199.394531 C 219.855469 199.394531 271.339844 221.894531 271.339844 249.648438 " fill-opacity="1" fill-rule="nonzero"/><path fill="#394a53" d="M 241.257812 269.589844 C 241.460938 269.519531 241.710938 269.433594 241.988281 269.339844 C 243.046875 268.992188 244.078125 268.625 245.101562 268.265625 C 245.164062 268.242188 245.222656 268.222656 245.285156 268.203125 C 243.960938 268.671875 242.613281 269.136719 241.257812 269.589844 " fill-opacity="1" fill-rule="nonzero"/><path fill="#415763" d="M 151.664062 194.570312 C 152.976562 194.546875 154.296875 194.535156 155.625 194.53125 C 154.296875 194.535156 152.976562 194.546875 151.664062 194.570312 " fill-opacity="1" fill-rule="nonzero"/><path fill="#4b6575" d="M 118.402344 197.265625 C 128.925781 195.710938 140.085938 194.773438 151.664062 194.570312 C 140.601562 194.761719 129.933594 195.636719 119.820312 197.066406 C 119.34375 197.132812 118.875 197.199219 118.402344 197.265625 " fill-opacity="1" fill-rule="nonzero"/><path fill="#415763" d="M 155.632812 194.53125 C 155.679688 194.53125 155.726562 194.53125 155.773438 194.53125 C 155.726562 194.53125 155.679688 194.53125 155.632812 194.53125 M 155.800781 194.53125 C 155.839844 194.53125 155.882812 194.53125 155.917969 194.53125 C 155.882812 194.53125 155.839844 194.53125 155.800781 194.53125 M 155.976562 194.53125 C 156.003906 194.527344 156.039062 194.527344 156.074219 194.527344 C 156.039062 194.527344 156.003906 194.527344 155.976562 194.53125 M 156.148438 194.527344 C 156.171875 194.527344 156.199219 194.527344 156.21875 194.527344 C 156.195312 194.527344 156.171875 194.527344 156.148438 194.527344 " fill-opacity="1" fill-rule="nonzero"/><path fill="#768891" d="M 241.191406 269.609375 C 241.320312 269.566406 241.449219 269.519531 241.578125 269.472656 C 241.71875 269.425781 241.851562 269.382812 241.988281 269.339844 C 241.710938 269.433594 241.460938 269.519531 241.257812 269.589844 C 241.234375 269.597656 241.210938 269.601562 241.191406 269.609375 M 270.183594 256.75 C 270.957031 254.445312 271.339844 252.054688 271.339844 249.648438 C 271.339844 221.894531 219.855469 199.394531 156.371094 199.394531 C 151.589844 199.394531 146.871094 199.523438 142.238281 199.769531 C 134.609375 198.34375 126.863281 197.511719 119.101562 197.285156 C 119.339844 197.210938 119.582031 197.140625 119.820312 197.066406 C 119.34375 197.132812 118.875 197.199219 118.402344 197.265625 C 118.875 197.199219 119.34375 197.132812 119.820312 197.066406 C 129.933594 195.636719 140.601562 194.761719 151.664062 194.570312 C 152.976562 194.546875 154.296875 194.535156 155.625 194.53125 C 155.628906 194.53125 155.628906 194.53125 155.632812 194.53125 C 155.679688 194.53125 155.726562 194.53125 155.773438 194.53125 C 155.78125 194.53125 155.792969 194.53125 155.800781 194.53125 C 155.839844 194.53125 155.882812 194.53125 155.917969 194.53125 C 155.941406 194.53125 155.953125 194.53125 155.976562 194.53125 C 156.003906 194.527344 156.039062 194.527344 156.074219 194.527344 C 156.097656 194.527344 156.121094 194.527344 156.148438 194.527344 C 156.171875 194.527344 156.195312 194.527344 156.21875 194.527344 C 156.273438 194.527344 156.324219 194.527344 156.371094 194.527344 C 223.421875 194.527344 277.789062 219.199219 277.789062 249.648438 C 277.789062 250.375 277.769531 251.109375 277.683594 251.820312 C 277.078125 252.292969 276.457031 252.746094 275.8125 253.175781 C 275.015625 253.734375 274.199219 254.273438 273.363281 254.808594 C 272.308594 255.480469 271.253906 256.125 270.183594 256.75 " fill-opacity="1" fill-rule="nonzero"/><path fill="#394a53" d="M 240.761719 269.75 C 227.03125 246.261719 206.894531 226.519531 182.847656 213.820312 C 170.113281 207.105469 156.375 202.414062 142.238281 199.769531 C 146.871094 199.523438 151.589844 199.394531 156.371094 199.394531 C 219.855469 199.394531 271.339844 221.894531 271.339844 249.648438 C 271.339844 252.054688 270.957031 254.445312 270.183594 256.75 C 269.515625 257.179688 268.824219 257.570312 268.121094 257.953125 C 267.109375 258.515625 266.097656 259.070312 265.046875 259.613281 C 262.726562 260.859375 260.277344 262.042969 257.742188 263.207031 C 255.503906 264.199219 253.183594 265.210938 250.777344 266.132812 C 248.988281 266.84375 247.152344 267.53125 245.285156 268.203125 C 245.222656 268.222656 245.164062 268.242188 245.101562 268.265625 C 244.078125 268.625 243.046875 268.992188 241.988281 269.339844 C 241.851562 269.382812 241.71875 269.425781 241.578125 269.472656 C 241.449219 269.519531 241.320312 269.566406 241.191406 269.609375 C 241.050781 269.65625 240.90625 269.703125 240.761719 269.75 " fill-opacity="1" fill-rule="nonzero"/><path fill="#a1b4be" d="M 44.5 261.246094 C 44.28125 261.140625 44.070312 261.054688 43.871094 260.945312 C 43.765625 260.90625 43.640625 260.835938 43.527344 260.792969 C 42.347656 260.214844 41.1875 259.585938 40.046875 258.964844 C 39.449219 258.660156 38.84375 258.316406 38.265625 258 C 37.472656 257.546875 36.695312 257.089844 35.945312 256.640625 C 35.277344 254.339844 34.957031 252.011719 34.957031 249.648438 C 34.957031 225.230469 69.941406 204.519531 118.402344 197.265625 C 118.636719 197.273438 118.867188 197.277344 119.101562 197.285156 C 114.449219 198.738281 110.085938 201.175781 106.367188 204.390625 C 67.921875 212.503906 41.402344 229.730469 41.402344 249.648438 C 41.402344 253.644531 42.476562 257.523438 44.5 261.246094 " fill-opacity="1" fill-rule="nonzero"/><path fill="#4f6977" d="M 124.585938 281.335938 C 97.058594 278.945312 72.347656 273.171875 52.835938 265.035156 C 51.933594 264.652344 51.03125 264.265625 50.148438 263.875 C 48.21875 263.015625 46.324219 262.15625 44.5 261.246094 C 42.476562 257.523438 41.402344 253.644531 41.402344 249.648438 C 41.402344 229.730469 67.921875 212.503906 106.367188 204.390625 C 102.347656 207.773438 99.058594 212.054688 96.933594 216.917969 C 91.796875 228.589844 93.601562 243.058594 101.46875 253.089844 C 109.050781 262.796875 122.226562 269.859375 124.585938 281.335938 " fill-opacity="1" fill-rule="nonzero"/><path fill="#889da7" d="M 119.101562 197.285156 C 118.867188 197.277344 118.636719 197.273438 118.402344 197.265625 C 118.875 197.199219 119.34375 197.132812 119.820312 197.066406 C 119.582031 197.140625 119.339844 197.210938 119.101562 197.285156 " fill-opacity="1" fill-rule="nonzero"/></svg>