<svg xmlns="http://www.w3.org/2000/svg" xmlns:xlink="http://www.w3.org/1999/xlink" width="512" zoomAndPan="magnify" viewBox="0 0 384 383.999986" height="512" preserveAspectRatio="xMidYMid meet" version="1.0"><path fill="#f36d17" d="M 12.648438 176.269531 C 18.464844 173.882812 23.683594 170.066406 27.722656 165.253906 C 30.023438 162.519531 31.949219 159.449219 33.140625 156.085938 C 34.332031 152.722656 34.765625 149.054688 34.101562 145.546875 C 33.035156 139.863281 29.273438 135.121094 25.839844 130.464844 C 24.121094 128.136719 22.453125 125.757812 21.179688 123.160156 C 19.90625 120.558594 19.042969 117.722656 19.027344 114.828125 C 19.007812 111.40625 20.203125 108.027344 22.136719 105.203125 C 24.078125 102.378906 26.734375 100.09375 29.679688 98.34375 C 35.5625 94.847656 42.449219 93.5 49.179688 92.222656 C 52.402344 91.613281 55.648438 90.992188 58.703125 89.792969 C 61.757812 88.589844 64.636719 86.757812 66.574219 84.109375 C 68.488281 81.492188 69.363281 78.238281 69.597656 75 C 69.824219 71.769531 69.441406 68.527344 69.050781 65.3125 C 68.660156 62.09375 68.25 58.859375 68.421875 55.621094 C 68.597656 52.386719 69.390625 49.113281 71.210938 46.4375 C 73.234375 43.464844 76.414062 41.402344 79.835938 40.316406 C 83.253906 39.230469 86.914062 39.0625 90.492188 39.347656 C 97.652344 39.917969 104.617188 42.253906 111.800781 42.375 C 116.046875 42.449219 120.332031 41.730469 124.207031 40 C 128.082031 38.269531 131.53125 35.511719 133.835938 31.941406 C 136.648438 27.589844 137.617188 22.34375 139.347656 17.457031 C 140.210938 15.011719 141.289062 12.621094 142.847656 10.550781 C 144.402344 8.476562 146.46875 6.730469 148.910156 5.859375 C 151.761719 4.84375 154.957031 5.082031 157.8125 6.089844 C 160.664062 7.09375 163.214844 8.832031 165.535156 10.773438 C 170.175781 14.660156 174.164062 19.523438 179.640625 22.089844 C 184.871094 24.539062 190.992188 24.609375 196.582031 23.179688 C 202.171875 21.75 207.304688 18.910156 212.113281 15.714844 C 216.351562 12.894531 220.4375 9.757812 225.117188 7.746094 C 227.457031 6.742188 229.9375 6.027344 232.476562 5.839844 C 235.015625 5.644531 237.617188 5.992188 239.945312 7.023438 C 243.191406 8.457031 245.757812 11.152344 247.609375 14.179688 C 249.457031 17.210938 250.65625 20.585938 251.785156 23.957031 C 252.910156 27.316406 253.996094 30.726562 255.636719 33.875 C 257.277344 37.019531 259.53125 39.9375 262.554688 41.796875 C 265.371094 43.53125 268.710938 44.253906 272.015625 44.363281 C 275.316406 44.472656 278.605469 43.980469 281.863281 43.433594 C 285.125 42.882812 288.378906 42.265625 291.679688 42.109375 C 294.980469 41.953125 298.351562 42.273438 301.40625 43.539062 C 303.996094 44.605469 306.292969 46.332031 308.15625 48.421875 C 310.027344 50.511719 311.472656 52.953125 312.554688 55.539062 C 314.722656 60.707031 315.433594 66.355469 315.902344 71.9375 C 316.253906 76.132812 316.484375 80.359375 317.40625 84.46875 C 318.328125 88.578125 319.992188 92.617188 322.859375 95.699219 C 325.617188 98.667969 329.328125 100.589844 333.152344 101.921875 C 336.980469 103.246094 340.96875 104.035156 344.875 105.085938 C 348.789062 106.136719 352.683594 107.488281 356.007812 109.796875 C 359.332031 112.109375 362.058594 115.5 362.871094 119.464844 C 363.3125 121.628906 363.171875 123.878906 362.714844 126.03125 C 362.261719 128.191406 361.492188 130.273438 360.671875 132.320312 C 359.03125 136.414062 357.136719 140.554688 357.070312 144.96875 C 357.003906 149.605469 358.988281 154.0625 361.683594 157.832031 C 364.382812 161.605469 367.78125 164.808594 370.988281 168.15625 C 374.894531 172.238281 378.597656 176.640625 380.902344 181.804688 C 383.207031 186.960938 383.996094 193.003906 382.003906 198.292969 C 380.96875 201.046875 379.234375 203.484375 377.214844 205.625 C 375.199219 207.761719 372.894531 209.605469 370.574219 211.402344 C 365.929688 215.003906 361.011719 218.621094 358.234375 223.792969 C 355.875 228.175781 355.277344 233.367188 355.996094 238.289062 C 356.722656 243.203125 358.703125 247.875 361.234375 252.15625 C 363.816406 256.515625 367.011719 260.582031 368.683594 265.367188 C 369.527344 267.757812 369.960938 270.320312 369.6875 272.84375 C 369.402344 275.355469 368.367188 277.828125 366.566406 279.609375 C 364.753906 281.398438 362.292969 282.398438 359.800781 282.914062 C 357.308594 283.433594 354.75 283.511719 352.214844 283.710938 C 346.953125 284.128906 341.703125 285.105469 336.800781 287.058594 C 331.898438 289.015625 327.34375 291.988281 323.921875 296.007812 C 318.761719 302.074219 316.480469 310.179688 316.132812 318.140625 C 315.945312 322.480469 316.285156 326.847656 315.746094 331.160156 C 315.480469 333.316406 314.988281 335.457031 314.128906 337.453125 C 313.269531 339.445312 312.03125 341.300781 310.394531 342.730469 C 308.804688 344.121094 306.863281 345.085938 304.828125 345.65625 C 302.796875 346.21875 300.65625 346.390625 298.546875 346.289062 C 294.328125 346.085938 290.238281 344.8125 286.203125 343.546875 C 282.347656 342.339844 278.445312 341.132812 274.410156 340.832031 C 270.382812 340.535156 266.144531 341.226562 262.832031 343.546875 C 260.558594 345.144531 258.828125 347.429688 257.546875 349.898438 C 256.273438 352.363281 255.417969 355.03125 254.632812 357.695312 C 253.847656 360.363281 253.117188 363.054688 252.066406 365.628906 C 251.011719 368.199219 249.621094 370.671875 247.664062 372.648438 C 244.574219 375.761719 240.214844 377.453125 235.832031 377.71875 C 231.453125 377.992188 227.0625 376.914062 223.0625 375.105469 C 216.585938 372.175781 211.085938 367.386719 204.613281 364.453125 C 200.414062 362.546875 195.824219 361.449219 191.214844 361.457031 C 186.601562 361.460938 181.96875 362.582031 177.964844 364.859375 C 173.769531 367.246094 170.382812 370.796875 166.574219 373.757812 C 164.667969 375.238281 162.636719 376.585938 160.417969 377.527344 C 158.195312 378.46875 155.769531 378.992188 153.363281 378.796875 C 150.523438 378.5625 147.816406 377.328125 145.578125 375.566406 C 143.339844 373.800781 141.539062 371.53125 140.054688 369.09375 C 137.085938 364.234375 135.320312 358.71875 132.453125 353.792969 C 130.632812 350.667969 128.355469 347.78125 125.558594 345.488281 C 122.757812 343.191406 119.425781 341.503906 115.859375 340.878906 C 112.21875 340.238281 108.460938 340.707031 104.882812 341.636719 C 101.308594 342.5625 97.863281 343.9375 94.367188 345.140625 C 90.875 346.347656 87.285156 347.386719 83.597656 347.609375 C 79.90625 347.835938 76.082031 347.191406 72.953125 345.226562 C 69.46875 343.039062 67.089844 339.359375 65.917969 335.421875 C 64.746094 331.484375 64.699219 327.289062 65.125 323.199219 C 65.457031 320.046875 66.066406 316.921875 66.324219 313.761719 C 66.585938 310.601562 66.476562 307.351562 65.414062 304.363281 C 64.476562 301.734375 62.820312 299.386719 60.792969 297.464844 C 58.761719 295.546875 56.367188 294.042969 53.839844 292.851562 C 48.789062 290.464844 43.257812 289.335938 37.875 287.84375 C 34.734375 286.972656 31.605469 285.96875 28.761719 284.390625 C 25.917969 282.804688 23.347656 280.605469 21.753906 277.765625 C 19.957031 274.574219 19.5 270.75 19.941406 267.117188 C 20.382812 263.476562 21.671875 259.996094 23.1875 256.660156 C 24.984375 252.710938 27.117188 248.90625 28.628906 244.832031 C 30.140625 240.765625 31.007812 236.324219 30.15625 232.070312 C 29.347656 228.027344 27.027344 224.414062 24.203125 221.410156 C 21.378906 218.410156 18.050781 215.9375 14.785156 213.421875 C 11.695312 211.046875 8.632812 208.589844 6.078125 205.652344 C 3.523438 202.707031 1.488281 199.222656 0.761719 195.394531 C -0.0351562 191.175781 0.855469 186.660156 3.230469 183.078125 C 5.414062 179.777344 8.828125 177.304688 12.648438 176.269531 " fill-opacity="1" fill-rule="nonzero"/><path fill="#f38713" d="M 46.964844 240.855469 C 46.277344 237.613281 46.363281 234.261719 46.34375 230.949219 C 46.328125 227.636719 46.1875 224.257812 45.085938 221.132812 C 43.636719 217.019531 40.644531 213.667969 37.84375 210.324219 C 35.042969 206.976562 32.285156 203.351562 31.464844 199.0625 C 30.613281 194.617188 31.988281 189.988281 34.210938 186.039062 C 36.433594 182.09375 39.464844 178.679688 42.269531 175.117188 C 45.613281 170.867188 48.664062 166.335938 50.785156 161.359375 C 52.90625 156.378906 54.070312 150.917969 53.542969 145.535156 C 53.085938 140.914062 51.421875 136.515625 50.226562 132.027344 C 49.035156 127.539062 48.328125 122.710938 49.785156 118.304688 C 50.570312 115.917969 51.964844 113.757812 53.6875 111.921875 C 55.40625 110.09375 57.449219 108.582031 59.613281 107.296875 C 63.929688 104.730469 68.722656 103.066406 73.269531 100.929688 C 84.59375 95.605469 94.578125 87.054688 100.511719 76.042969 C 101.941406 73.382812 103.140625 70.597656 104.699219 68.011719 C 106.253906 65.425781 108.234375 63.003906 110.84375 61.492188 C 112.839844 60.332031 115.128906 59.75 117.429688 59.554688 C 119.726562 59.359375 122.039062 59.535156 124.332031 59.816406 C 128.910156 60.375 133.546875 61.332031 138.089844 60.550781 C 143.667969 59.585938 148.453125 56.109375 152.890625 52.589844 C 157.328125 49.070312 161.800781 45.324219 167.210938 43.644531 C 170.578125 42.601562 174.171875 42.417969 177.683594 42.753906 C 181.191406 43.089844 184.628906 43.9375 188.015625 44.929688 C 194.785156 46.910156 201.503906 49.480469 208.546875 49.75 C 214.917969 49.992188 221.1875 48.332031 227.5 47.445312 C 230.65625 47.003906 233.859375 46.753906 237.03125 47.035156 C 240.210938 47.316406 243.371094 48.148438 246.125 49.75 C 249.6875 51.824219 252.390625 55.0625 255.027344 58.230469 C 257.664062 61.394531 260.386719 64.621094 263.976562 66.652344 C 267.886719 68.871094 272.46875 69.480469 276.925781 70.078125 C 281.378906 70.679688 285.96875 71.363281 289.808594 73.699219 C 292.535156 75.351562 294.742188 77.769531 296.472656 80.445312 C 298.207031 83.117188 299.492188 86.0625 300.648438 89.03125 C 302.96875 94.972656 304.910156 101.257812 309.066406 106.097656 C 312.359375 109.921875 316.789062 112.546875 320.992188 115.347656 C 325.1875 118.15625 329.359375 121.355469 331.683594 125.839844 C 333.984375 130.273438 334.214844 135.46875 334.09375 140.464844 C 333.964844 145.453125 333.539062 150.523438 334.671875 155.386719 C 335.957031 160.890625 339.152344 165.734375 342.410156 170.355469 C 345.664062 174.980469 349.089844 179.601562 350.949219 184.9375 C 352.144531 188.375 352.65625 192.070312 352.300781 195.691406 C 351.941406 199.316406 350.710938 202.867188 348.621094 205.851562 C 346.421875 209.007812 343.355469 211.445312 340.734375 214.265625 C 339.425781 215.675781 338.21875 217.195312 337.320312 218.898438 C 336.421875 220.601562 335.839844 222.496094 335.839844 224.417969 C 335.839844 226.433594 336.472656 228.410156 337.414062 230.191406 C 338.355469 231.972656 339.601562 233.574219 340.898438 235.117188 C 343.488281 238.203125 346.390625 241.230469 347.582031 245.078125 C 348.382812 247.648438 348.34375 250.441406 347.675781 253.046875 C 347.007812 255.652344 345.726562 258.078125 344.113281 260.234375 C 340.894531 264.542969 336.429688 267.734375 332.085938 270.902344 C 319.945312 279.75 307.617188 289.5625 301.550781 303.300781 C 300.554688 305.5625 299.738281 307.902344 298.734375 310.160156 C 297.726562 312.417969 296.511719 314.613281 294.816406 316.414062 C 292.519531 318.851562 289.4375 320.453125 286.207031 321.351562 C 282.980469 322.253906 279.609375 322.496094 276.257812 322.515625 C 269.558594 322.554688 262.691406 321.746094 256.289062 323.71875 C 250.65625 325.453125 245.898438 329.183594 241.191406 332.734375 C 236.488281 336.277344 231.503906 339.800781 225.734375 340.984375 C 221.671875 341.820312 217.4375 341.433594 213.417969 340.425781 C 209.398438 339.425781 205.5625 337.808594 201.757812 336.167969 C 197.953125 334.523438 194.152344 332.839844 190.179688 331.667969 C 186.203125 330.5 182.015625 329.859375 177.902344 330.363281 C 172.59375 331.003906 167.71875 333.492188 162.824219 335.640625 C 157.929688 337.789062 152.648438 339.667969 147.347656 338.992188 C 143.921875 338.558594 140.691406 337.066406 137.871094 335.078125 C 135.046875 333.09375 132.605469 330.621094 130.300781 328.042969 C 125.703125 322.898438 121.457031 317.175781 115.460938 313.757812 C 110.425781 310.890625 104.582031 309.902344 98.992188 308.363281 C 96.199219 307.59375 93.429688 306.675781 90.871094 305.320312 C 88.3125 303.960938 85.957031 302.148438 84.242188 299.816406 C 82.148438 296.976562 81.09375 293.523438 80.296875 290.09375 C 79.496094 286.664062 78.90625 283.164062 77.597656 279.894531 C 76 275.921875 73.394531 272.425781 70.445312 269.320312 C 67.496094 266.21875 64.195312 263.46875 60.992188 260.636719 C 57.902344 257.910156 54.878906 255.085938 52.359375 251.835938 C 49.835938 248.585938 47.8125 244.878906 46.964844 240.851562 L 46.964844 240.855469 " fill-opacity="1" fill-rule="nonzero"/><path fill="#f0ca0d" d="M 69.628906 183.957031 C 71.429688 160.851562 78.589844 137.960938 91.769531 118.898438 C 103 102.652344 118.496094 89.386719 136.265625 80.757812 C 154.035156 72.128906 174.03125 68.148438 193.753906 69.265625 C 216.0625 70.527344 237.882812 78.296875 256.273438 90.96875 C 274.667969 103.636719 289.621094 121.136719 299.769531 141.03125 C 309.46875 160.050781 314.820312 181.386719 314.402344 202.734375 C 313.980469 224.078125 307.6875 245.398438 295.742188 263.101562 C 285.042969 278.953125 269.972656 291.707031 252.921875 300.382812 C 235.875 309.0625 216.886719 313.714844 197.78125 314.742188 C 179.515625 315.722656 160.992188 313.394531 143.789062 307.167969 C 126.589844 300.945312 110.734375 290.769531 98.480469 277.183594 C 76.078125 252.339844 67.027344 217.296875 69.628906 183.957031 " fill-opacity="1" fill-rule="nonzero"/><path fill="#f2b20d" d="M 234.808594 79.109375 C 255.296875 93.855469 271.164062 115.101562 278.601562 139.242188 C 284.820312 159.40625 285.382812 181.363281 279.644531 201.671875 C 273.910156 221.984375 261.832031 240.539062 245.21875 253.566406 C 222.113281 271.691406 192.167969 278.28125 166.238281 292.078125 C 158.191406 296.355469 150.5625 301.390625 143.386719 307.003906 C 143.519531 307.050781 143.652344 307.121094 143.785156 307.167969 C 160.992188 313.394531 179.515625 315.726562 197.785156 314.746094 C 216.886719 313.71875 235.871094 309.0625 252.921875 300.382812 C 269.96875 291.707031 285.039062 278.953125 295.734375 263.101562 C 307.683594 245.398438 313.976562 224.078125 314.398438 202.730469 C 314.820312 181.386719 309.464844 160.050781 299.765625 141.03125 C 289.617188 121.140625 274.667969 103.644531 256.273438 90.972656 C 249.53125 86.328125 242.324219 82.359375 234.808594 79.109375 " fill-opacity="1" fill-rule="nonzero"/><path fill="#f6e45c" d="M 108.886719 116.75 C 118.300781 104.988281 130.476562 95.488281 144.074219 88.976562 C 148.253906 86.96875 152.605469 85.238281 157.164062 84.363281 C 161.722656 83.488281 166.511719 83.511719 170.921875 84.964844 C 173.726562 85.886719 176.367188 87.402344 178.363281 89.578125 C 180.363281 91.75 181.675781 94.605469 181.726562 97.558594 C 181.773438 100.1875 180.835938 102.765625 179.421875 104.980469 C 178.003906 107.195312 176.125 109.078125 174.152344 110.8125 C 167.582031 116.609375 159.878906 120.960938 152.902344 126.257812 C 142.628906 134.058594 134.039062 143.8125 124.808594 152.828125 C 122.738281 154.847656 120.621094 156.847656 118.148438 158.347656 C 115.679688 159.851562 112.8125 160.835938 109.929688 160.648438 C 107.824219 160.511719 105.773438 159.746094 104.039062 158.542969 C 102.300781 157.34375 100.875 155.71875 99.828125 153.886719 C 97.722656 150.226562 97.152344 145.847656 97.492188 141.636719 C 98.238281 132.40625 103.097656 123.980469 108.886719 116.75 " fill-opacity="1" fill-rule="nonzero"/><path fill="#231f20" d="M 176.171875 201.675781 C 175.398438 201.703125 174.675781 202.082031 174.203125 202.695312 C 173.734375 203.316406 173.566406 204.113281 173.746094 204.871094 C 174.414062 207.886719 175.867188 210.695312 177.929688 212.992188 C 180 215.289062 182.636719 217.023438 185.566406 218.007812 C 190.746094 219.75 196.5 219.007812 201.144531 216.269531 C 205.359375 213.785156 208.542969 209.761719 209.996094 205.085938 C 210.242188 204.421875 210.207031 203.679688 209.886719 203.042969 C 209.574219 202.40625 209.007812 201.921875 208.328125 201.714844 C 207.648438 201.5 206.914062 201.574219 206.292969 201.925781 C 205.671875 202.273438 205.21875 202.859375 205.042969 203.550781 C 203.988281 206.953125 201.578125 210.003906 198.507812 211.808594 C 195.148438 213.789062 190.847656 214.3125 187.222656 213.09375 C 185.152344 212.398438 183.242188 211.136719 181.78125 209.515625 C 180.324219 207.890625 179.28125 205.867188 178.8125 203.738281 C 178.550781 202.5 177.441406 201.632812 176.171875 201.675781 " fill-opacity="1" fill-rule="nonzero"/><path fill="#231f20" d="M 234.796875 197.5625 C 233.46875 197.546875 232.367188 196.527344 232.246094 195.199219 C 231.960938 192.46875 232.457031 189.699219 233.699219 187.246094 C 234.9375 184.792969 236.871094 182.75 239.242188 181.355469 C 243.066406 179.101562 247.808594 178.753906 251.929688 180.425781 C 254.796875 181.59375 257.226562 183.675781 258.820312 186.335938 C 260.410156 188.996094 261.105469 192.132812 260.777344 195.21875 C 260.707031 195.90625 260.367188 196.535156 259.828125 196.972656 C 259.289062 197.40625 258.601562 197.609375 257.914062 197.535156 C 257.226562 197.460938 256.59375 197.117188 256.164062 196.578125 C 255.734375 196.035156 255.53125 195.347656 255.609375 194.660156 C 255.816406 192.722656 255.359375 190.675781 254.359375 189.003906 C 253.359375 187.332031 251.769531 185.953125 249.964844 185.222656 C 247.417969 184.183594 244.25 184.417969 241.875 185.8125 C 240.382812 186.691406 239.105469 188.046875 238.324219 189.597656 C 237.542969 191.144531 237.21875 192.953125 237.398438 194.675781 C 237.480469 195.417969 237.246094 196.15625 236.75 196.707031 C 236.25 197.261719 235.542969 197.570312 234.796875 197.566406 L 234.796875 197.5625 " fill-opacity="1" fill-rule="nonzero"/><path fill="#231f20" d="M 121.558594 197.5625 C 120.226562 197.546875 119.125 196.527344 119.007812 195.199219 C 118.722656 192.46875 119.222656 189.699219 120.464844 187.246094 C 121.699219 184.792969 123.632812 182.75 126 181.355469 C 129.832031 179.101562 134.574219 178.753906 138.6875 180.425781 C 141.5625 181.59375 143.992188 183.675781 145.582031 186.335938 C 147.175781 188.996094 147.871094 192.132812 147.542969 195.21875 C 147.46875 195.90625 147.125 196.535156 146.59375 196.96875 C 146.054688 197.402344 145.363281 197.609375 144.675781 197.535156 C 143.992188 197.460938 143.359375 197.113281 142.929688 196.574219 C 142.496094 196.035156 142.292969 195.347656 142.371094 194.660156 C 142.578125 192.722656 142.121094 190.675781 141.121094 189.003906 C 140.125 187.332031 138.535156 185.953125 136.730469 185.222656 C 134.179688 184.183594 131.007812 184.417969 128.640625 185.8125 C 127.144531 186.691406 125.871094 188.046875 125.089844 189.597656 C 124.308594 191.144531 123.980469 192.953125 124.160156 194.675781 C 124.246094 195.417969 124.007812 196.15625 123.511719 196.707031 C 123.011719 197.261719 122.300781 197.570312 121.558594 197.566406 L 121.558594 197.5625 " fill-opacity="1" fill-rule="nonzero"/><path fill="#f3637a" d="M 138.535156 220.179688 C 138.535156 223.347656 136.695312 226.378906 133.421875 228.617188 C 130.152344 230.855469 125.71875 232.109375 121.089844 232.109375 C 116.460938 232.109375 112.027344 230.855469 108.753906 228.617188 C 105.480469 226.378906 103.648438 223.347656 103.648438 220.179688 C 103.648438 217.019531 105.480469 213.980469 108.753906 211.742188 C 112.027344 209.507812 116.460938 208.246094 121.089844 208.246094 C 125.71875 208.246094 130.152344 209.507812 133.421875 211.742188 C 136.695312 213.980469 138.535156 217.019531 138.535156 220.179688 " fill-opacity="1" fill-rule="nonzero"/><path fill="#f3637a" d="M 276.5625 220.179688 C 276.5625 223.347656 274.722656 226.378906 271.449219 228.617188 C 268.179688 230.855469 263.746094 232.109375 259.113281 232.109375 C 254.488281 232.109375 250.050781 230.855469 246.78125 228.617188 C 243.507812 226.378906 241.671875 223.347656 241.671875 220.179688 C 241.671875 217.019531 243.507812 213.980469 246.78125 211.742188 C 250.050781 209.507812 254.488281 208.246094 259.113281 208.246094 C 263.746094 208.246094 268.179688 209.507812 271.449219 211.742188 C 274.722656 213.980469 276.5625 217.019531 276.5625 220.179688 " fill-opacity="1" fill-rule="nonzero"/></svg>