<svg xmlns="http://www.w3.org/2000/svg" xmlns:xlink="http://www.w3.org/1999/xlink" width="512" zoomAndPan="magnify" viewBox="0 0 384 383.999986" height="512" preserveAspectRatio="xMidYMid meet" version="1.0"><path fill="#000000" d="M 349.714844 145.460938 C 338.777344 127.730469 324.246094 112.429688 309.332031 98.011719 C 300.085938 89.097656 290.722656 80.574219 280.765625 72.703125 C 272.125 63.640625 260.648438 57.214844 250.253906 50.546875 C 249.675781 50.191406 249.136719 50.042969 248.609375 50.066406 C 245.058594 48.363281 241.339844 46.964844 237.5 45.863281 C 204.859375 30.941406 169.128906 25.238281 132.917969 24.417969 C 88.800781 23.414062 45.496094 34.042969 7.359375 56.113281 C 6.820312 56.210938 6.265625 56.296875 5.726562 56.394531 C 4.390625 56.675781 3.714844 57.570312 3.554688 58.578125 C 1.957031 60.6875 4.058594 64.082031 6.707031 63.421875 C 6.832031 63.445312 6.941406 63.457031 7.066406 63.480469 C 22.113281 64.734375 32.585938 85.566406 29.480469 99.320312 C 28.582031 100.144531 28.449219 101.320312 28.839844 102.351562 C 29.085938 103.675781 30.054688 104.914062 31.75 105.074219 C 49.695312 106.863281 65.285156 120.507812 79.242188 130.820312 C 91.6875 140.015625 112.210938 149.078125 114.503906 166.183594 C 114.554688 166.476562 114.640625 166.746094 114.738281 166.992188 C 114.46875 168.035156 114.691406 169.210938 115.414062 169.972656 C 116.066406 171.527344 117.820312 172.59375 119.671875 171.429688 C 119.980469 171.222656 120.273438 170.988281 120.570312 170.804688 C 140.382812 171.050781 158.867188 180.257812 176.0625 189.480469 C 175.867188 189.480469 150.496094 234.734375 148.175781 238.84375 C 143.449219 247.179688 138.710938 255.519531 133.960938 263.855469 C 131.578125 268.023438 129.113281 272.15625 126.828125 276.351562 C 125.699219 278.421875 124.238281 283.328125 121.832031 284.296875 C 120.988281 284.625 120.015625 283.84375 119.28125 283.902344 C 108.847656 284.625 105.582031 295.917969 101.566406 304.21875 C 97.175781 313.316406 92.976562 322.648438 86.691406 330.644531 C 80 339.164062 71.800781 340.328125 63.199219 333.449219 C 52.433594 324.832031 64.167969 310.523438 70.425781 303.421875 C 71.742188 301.941406 71.285156 300.089844 70.195312 299.007812 C 70.035156 298.652344 69.765625 298.324219 69.394531 298.039062 C 59.859375 290.402344 50.996094 299.660156 47.351562 308.746094 C 41.839844 322.527344 42.292969 340.046875 54.210938 350.335938 C 67.234375 361.566406 87.671875 359.101562 99.972656 348.628906 C 108.160156 341.667969 113.4375 332.113281 117.992188 322.5625 C 120.273438 317.792969 122.363281 312.9375 124.632812 308.167969 C 126.546875 304.121094 131.003906 298.222656 129.933594 293.539062 C 129.703125 292.558594 128.757812 291.503906 128.597656 290.660156 C 128.117188 288.257812 129.933594 284.074219 130.820312 281.792969 C 132.488281 277.476562 135.667969 273.285156 137.976562 269.261719 C 142.886719 260.65625 147.78125 252.046875 152.65625 243.417969 C 162.277344 226.433594 171.878906 209.402344 181.488281 192.398438 C 197.914062 201.433594 213.011719 211.378906 220.828125 229.363281 C 220.867188 229.414062 220.890625 229.449219 220.902344 229.5 C 221.1875 231.09375 222.757812 232.578125 224.636719 232.285156 C 225.652344 232.429688 226.722656 232.125 227.421875 231.265625 C 243.796875 224.851562 262.21875 234.441406 277.046875 241.097656 C 293.765625 248.589844 311.011719 254.058594 324.589844 266.921875 C 324.773438 267.289062 325.042969 267.621094 325.347656 267.890625 C 326.085938 269.277344 327.71875 270.144531 329.425781 268.992188 C 341.675781 260.59375 358.109375 258.597656 372.089844 263.523438 C 372.582031 263.980469 373.160156 264.210938 373.734375 264.222656 C 373.957031 264.308594 374.164062 264.335938 374.386719 264.335938 C 374.902344 264.433594 375.382812 264.394531 375.785156 264.222656 C 375.882812 264.210938 375.96875 264.210938 376.082031 264.1875 C 377.371094 264.089844 378.792969 263.339844 379.0625 261.929688 C 382.304688 244.570312 377.039062 225.527344 374.066406 208.398438 C 370.203125 186.191406 361.558594 164.601562 349.714844 145.460938 " fill-opacity="1" fill-rule="nonzero"/><path fill="#8c6239" d="M 120.226562 292.683594 C 125.96875 294.523438 122.679688 299.019531 120.65625 302.394531 C 116.199219 309.886719 113.375 318.441406 109.167969 326.09375 C 101.210938 340.636719 89.316406 353.792969 71.164062 350.910156 C 56.152344 348.542969 49.386719 337.152344 50.234375 322.773438 C 50.492188 317.902344 55.796875 297.5 63.835938 301.632812 C 57.832031 308.632812 50.886719 318.0625 53.023438 327.34375 C 55.292969 337.289062 64.644531 344.375 74.761719 344.609375 C 84.136719 344.828125 91.171875 335.460938 95.714844 328.546875 C 101.925781 319.15625 106 308.597656 111.277344 298.714844 C 113.21875 295.121094 115.449219 291.136719 120.226562 292.683594 " fill-opacity="1" fill-rule="nonzero"/><path fill="#93278f" d="M 157.527344 46.84375 C 159.898438 45.875 161.1875 45.226562 161.125 44.992188 C 161.039062 44.769531 159.628906 44.980469 157.113281 45.570312 C 154.570312 46.082031 150.988281 47.234375 146.628906 48.855469 C 142.355469 50.679688 137.214844 52.960938 132.195312 56.675781 C 130.917969 57.585938 129.605469 58.492188 128.414062 59.59375 C 127.199219 60.660156 125.898438 61.742188 124.667969 62.894531 C 122.335938 65.332031 119.859375 67.796875 117.722656 70.65625 C 117.402344 71.035156 117.121094 71.414062 116.8125 71.78125 C 112.824219 67.382812 108.625 63.542969 104.5625 60.355469 C 102.230469 58.652344 100.035156 57.03125 97.8125 55.734375 C 95.6875 54.324219 93.578125 53.257812 91.648438 52.261719 C 83.808594 48.402344 78.664062 47.417969 78.515625 47.726562 C 78.296875 48.265625 83.316406 50.105469 90.507812 54.335938 C 92.300781 55.425781 94.289062 56.605469 96.289062 58.0625 C 98.363281 59.410156 100.425781 61.101562 102.597656 62.820312 C 106.882812 66.398438 111.339844 70.65625 115.597656 75.558594 L 116.960938 77.140625 L 118.296875 75.472656 C 118.984375 74.589844 119.710938 73.707031 120.433594 72.824219 C 128.78125 61.777344 139.4375 54.960938 147.625 51.097656 C 151.746094 49.246094 155.121094 47.761719 157.527344 46.84375 Z M 211.648438 42.378906 C 201.105469 42.367188 190.621094 43.804688 181.109375 46.304688 C 156.804688 52.742188 135.078125 67.589844 117.269531 85.109375 C 110.148438 73.121094 91.453125 65.027344 80.027344 60.464844 C 62.753906 53.585938 43.914062 51.980469 25.414062 53.5625 C 82.0625 26.503906 151.625 22.457031 211.648438 42.378906 " fill-opacity="1" fill-rule="nonzero"/><path fill="#0071bc" d="M 92.695312 73.609375 C 93.699219 74.160156 94.792969 74.761719 95.921875 75.375 C 76.257812 83.101562 55.402344 87.292969 36.15625 95.972656 C 36.941406 82.585938 29.269531 67.28125 17.535156 60.625 C 34.867188 58.246094 52.59375 58.675781 69.582031 63.296875 C 77.707031 65.492188 85.328125 69.589844 92.695312 73.609375 " fill-opacity="1" fill-rule="nonzero"/><path fill="#0071bc" d="M 146.75 125.769531 C 152.605469 119.871094 155.589844 115.765625 155.292969 115.519531 C 154.914062 115.199219 151.417969 118.730469 145.191406 124.101562 C 139.496094 129.164062 131.089844 135.6875 123.121094 144.933594 C 122.902344 144.457031 122.679688 143.976562 122.421875 143.523438 C 121.648438 142.320312 120.988281 141.011719 120.101562 139.859375 C 115.621094 133.46875 110.050781 128.601562 104.746094 124.679688 C 99.421875 120.753906 94.289062 117.773438 89.894531 115.496094 C 81.070312 110.957031 75.277344 108.960938 75.089844 109.351562 C 74.882812 109.84375 80.308594 112.613281 88.703125 117.628906 C 92.878906 120.152344 97.773438 123.28125 102.808594 127.214844 C 107.839844 131.140625 113.105469 135.886719 117.242188 141.832031 C 118.089844 142.910156 118.691406 144.101562 119.402344 145.214844 C 120.066406 146.367188 120.570312 147.558594 121.144531 148.710938 L 122.421875 151.1875 L 124.09375 149.101562 C 132.035156 139.097656 140.96875 131.703125 146.75 125.769531 Z M 158.535156 103.148438 C 163.164062 105.121094 167.679688 107.316406 172.171875 109.558594 C 155.738281 128.332031 140.847656 149.238281 120.1875 163.644531 C 116.507812 146.894531 99.921875 137.921875 86.753906 128.699219 C 72.328125 118.597656 57.945312 105.550781 40.683594 100.660156 C 60.667969 91.929688 82.320312 87.722656 102.476562 79.273438 C 106.980469 82.277344 111.15625 85.894531 113.007812 90.335938 C 112.921875 91.132812 113.21875 91.917969 113.734375 92.554688 C 113.523438 94.578125 115.019531 96.699219 117.390625 95.730469 C 130.304688 90.457031 146.664062 98.058594 158.535156 103.148438 " fill-opacity="1" fill-rule="nonzero"/><path fill="#39b54a" d="M 196.425781 121.550781 C 201.265625 123.746094 205.988281 126.113281 210.667969 128.601562 C 201.4375 144.664062 192.277344 160.761719 183.171875 176.886719 C 177.121094 173.625 171.351562 170.253906 165.679688 167.296875 C 159.566406 164.085938 153.5625 161.523438 147.808594 159.734375 C 150.972656 156.816406 153.90625 154.105469 156.683594 151.761719 C 159.933594 148.992188 162.671875 146.28125 164.929688 144.1875 C 169.128906 139.6875 171.238281 136.941406 171.054688 136.753906 C 170.835938 136.511719 168.28125 138.925781 163.753906 143.058594 C 161.335938 144.96875 158.621094 147.347656 155.183594 149.996094 C 151.785156 152.609375 148.066406 155.796875 144.015625 159.339844 L 142.125 160.984375 L 144.617188 161.730469 C 150.789062 163.621094 157.34375 166.539062 164.109375 170.214844 C 169.644531 173.171875 175.375 176.582031 181.464844 179.890625 C 180.679688 181.300781 179.882812 182.699219 179.09375 184.097656 C 163.347656 175.597656 146.382812 167.296875 128.488281 165.164062 C 147.5625 150.351562 161.886719 130.429688 177.84375 112.417969 C 184.019531 115.53125 190.144531 118.695312 196.425781 121.550781 " fill-opacity="1" fill-rule="nonzero"/><path fill="#39b54a" d="M 246.089844 150.511719 C 243.441406 163.460938 239.992188 176.296875 237.007812 189.171875 C 234.269531 201.027344 228.539062 211.230469 224.253906 222.300781 C 215.574219 205.75 200.625 195.988281 184.507812 187.050781 C 185.304688 185.640625 186.117188 184.207031 186.914062 182.785156 C 193.46875 186.09375 199.742188 189.195312 205.214844 192.875 C 210.996094 196.714844 215.96875 201.226562 218.375 206.484375 L 219.738281 209.441406 L 221.050781 206.546875 C 226.082031 195.5625 226.660156 185.410156 226.84375 178.640625 C 226.90625 171.796875 226.523438 167.886719 226.230469 167.886719 C 225.875 167.886719 225.691406 171.796875 225.113281 178.554688 C 224.523438 184.636719 223.554688 193.28125 219.625 202.5 C 216.71875 197.609375 212.125 193.5625 207.09375 190.09375 C 201.472656 186.230469 195.078125 183.03125 188.621094 179.769531 C 197.730469 163.679688 206.859375 147.59375 216.066406 131.570312 C 226.402344 137.394531 236.371094 143.792969 246.089844 150.511719 " fill-opacity="1" fill-rule="nonzero"/><path fill="#ffff00" d="M 306.691406 240.277344 L 306.164062 236.636719 C 305.894531 234.894531 305.648438 233.238281 305.402344 231.65625 C 305.132812 230.078125 304.59375 228.652344 304.25 227.292969 C 304.039062 226.617188 303.855469 225.957031 303.648438 225.34375 C 303.402344 224.753906 303.179688 224.152344 302.960938 223.601562 C 302.492188 222.488281 302.0625 221.46875 301.695312 220.535156 C 299.976562 216.945312 298.824219 215.03125 298.554688 215.128906 C 298.269531 215.277344 298.921875 217.433594 300.160156 221.136719 C 300.429688 222.058594 300.726562 223.097656 301.058594 224.238281 C 301.230469 224.792969 301.414062 225.390625 301.574219 225.980469 C 301.71875 226.59375 301.867188 227.230469 302.015625 227.894531 C 302.25 229.230469 302.664062 230.601562 302.824219 232.097656 C 302.875 232.480469 302.910156 232.859375 302.960938 233.25 C 296.996094 228.359375 289.175781 223.882812 280.335938 220.636719 C 269.414062 216.550781 258.90625 214.542969 250.449219 213.082031 C 252.546875 208.25 253.296875 203.984375 253.738281 200.917969 C 254.007812 197.558594 253.910156 195.660156 253.664062 195.621094 C 253.359375 195.621094 252.941406 197.484375 252.242188 200.734375 C 251.296875 203.835938 250.082031 208.484375 247.332031 213.472656 L 246.460938 215.03125 L 248.25 215.449219 C 256.84375 217.398438 267.828125 219.652344 279.121094 223.882812 C 289.078125 227.539062 297.609375 232.515625 303.757812 237.777344 Z M 302.320312 190.472656 C 311.160156 212.101562 319.324219 234.429688 323.078125 257.554688 C 308.730469 246.507812 291.3125 240.769531 274.765625 233.351562 C 260.796875 227.109375 245.269531 220.707031 230.21875 224.066406 C 234.148438 214.125 239.476562 204.988281 242.101562 194.347656 C 245.378906 181.105469 248.765625 167.726562 251.589844 154.351562 C 258.242188 159.082031 264.808594 163.976562 271.21875 169.027344 C 277.144531 173.660156 285.089844 179.683594 286.316406 187.554688 C 286.339844 187.617188 286.351562 187.675781 286.375 187.738281 C 286.070312 189.722656 287.617188 192.003906 290.121094 191.246094 C 294.257812 189.957031 298.34375 189.785156 302.320312 190.472656 " fill-opacity="1" fill-rule="nonzero"/><path fill="#f7931e" d="M 366.582031 254.367188 C 366.617188 254.820312 366.765625 255.273438 367.007812 255.726562 C 354.550781 253.199219 340.890625 255.273438 329.867188 261.476562 C 326.578125 237.726562 318.769531 214.945312 309.847656 192.742188 C 321.027344 197.535156 330.957031 207.785156 338.386719 215.878906 C 349.101562 227.5625 358.394531 240.730469 366.582031 254.367188 " fill-opacity="1" fill-rule="nonzero"/><path fill="#f7931e" d="M 356.476562 213.78125 C 356.6875 213.71875 356.417969 212.050781 355.042969 209.464844 C 353.679688 206.902344 351.359375 203.382812 348.105469 199.363281 C 344.867188 195.351562 340.730469 190.792969 335.609375 186.21875 C 333.058594 183.9375 330.246094 181.65625 327.117188 179.535156 C 323.972656 177.4375 320.511719 175.425781 316.363281 174.359375 C 314.757812 173.96875 312.988281 173.785156 311.222656 174.054688 C 311.980469 168.082031 312.460938 162.34375 312.597656 157.109375 C 312.78125 151.113281 312.511719 145.730469 312.066406 141.269531 C 311.121094 132.316406 309.550781 127.15625 309.183594 127.15625 C 308.65625 127.214844 309.453125 132.648438 309.761719 141.414062 C 309.90625 145.828125 309.90625 151.089844 309.550781 156.988281 C 309.171875 162.859375 308.484375 169.347656 307.476562 176.210938 L 307 179.414062 L 309.96875 177.976562 C 311.492188 177.253906 313.503906 177.242188 315.566406 177.734375 C 318.992188 178.589844 322.269531 180.417969 325.226562 182.367188 C 328.222656 184.328125 330.984375 186.476562 333.511719 188.621094 C 338.59375 192.9375 342.839844 197.242188 346.253906 200.96875 C 349.679688 204.695312 352.242188 207.90625 353.886719 210.1875 C 355.570312 212.445312 356.234375 213.84375 356.476562 213.78125 Z M 371.183594 228.691406 C 372.644531 237.113281 374.265625 245.820312 373.773438 254.414062 C 363.988281 237.726562 352.574219 221.835938 339.292969 207.796875 C 328.183594 196.074219 312.289062 182.761719 295.265625 184.023438 C 307.378906 162.308594 305.527344 132.230469 299.867188 109.265625 C 298.210938 102.472656 295.816406 95.902344 292.675781 89.710938 C 310.175781 105.035156 326 122.558594 338.960938 140.496094 C 351.726562 158.152344 360.246094 178.246094 365.757812 199.238281 C 368.285156 208.914062 369.453125 218.871094 371.183594 228.691406 " fill-opacity="1" fill-rule="nonzero"/><path fill="#ff0000" d="M 168.699219 64.78125 C 170.050781 64.15625 170.796875 63.703125 170.710938 63.480469 C 170.652344 63.261719 169.804688 63.261719 168.316406 63.480469 C 166.820312 63.605469 164.722656 64.328125 162.121094 65.285156 C 157.039062 67.34375 150.765625 71.539062 144.199219 76.171875 C 142.542969 77.363281 140.898438 78.417969 139.3125 79.507812 L 135.273438 82.277344 L 140.074219 82.621094 C 143.363281 82.867188 146.421875 83.1875 149.144531 83.578125 C 151.84375 83.984375 154.191406 84.558594 156.128906 85.136719 C 159.996094 86.324219 162.21875 87.515625 162.488281 87.109375 C 162.695312 86.816406 160.84375 84.953125 156.925781 83.074219 C 154.976562 82.179688 152.507812 81.308594 149.699219 80.671875 C 148.210938 80.339844 146.652344 80.058594 145.007812 79.8125 C 145.402344 79.542969 145.792969 79.300781 146.175781 79.015625 C 152.839844 74.308594 158.621094 69.992188 163.1875 67.492188 C 165.421875 66.363281 167.261719 65.308594 168.699219 64.78125 Z M 288.4375 155.441406 C 288.476562 145.4375 288.082031 135.886719 287.015625 127.242188 C 285.972656 118.597656 284.300781 110.871094 282.328125 104.582031 C 280.351562 98.28125 278.117188 93.410156 276.359375 90.136719 C 274.570312 86.9375 273.378906 85.296875 273.195312 85.394531 C 272.949219 85.503906 273.746094 87.390625 275.171875 90.738281 C 276.484375 94.109375 278.335938 99.003906 279.96875 105.257812 C 281.601562 111.507812 282.964844 119.085938 283.824219 127.585938 C 284.71875 136.09375 285.003906 145.523438 284.976562 155.441406 C 284.941406 157.132812 284.917969 158.753906 284.902344 160.417969 C 279.796875 155.039062 274.226562 150.746094 268.960938 147.164062 C 262.589844 142.972656 256.648438 139.710938 251.6875 137.039062 C 241.734375 131.742188 235.753906 128.492188 235.484375 128.859375 C 235.253906 129.214844 240.898438 133.199219 250.535156 139.035156 C 255.347656 141.964844 261.101562 145.425781 267.242188 149.691406 C 273.28125 154.042969 279.699219 159.242188 285.234375 165.902344 L 288.144531 169.433594 L 288.265625 164.847656 C 288.351562 161.792969 288.414062 158.640625 288.4375 155.441406 Z M 293.925781 110.882812 C 299.621094 131.59375 300.875 160.003906 290.355469 180.074219 C 285.40625 169.945312 272.910156 162.589844 264.652344 156.324219 C 244.261719 140.925781 222.695312 127.15625 199.558594 116.230469 C 185.796875 109.757812 172.515625 102.289062 158.449219 96.453125 C 148.125 92.171875 135.078125 86.691406 123.207031 87.96875 C 139.398438 72.480469 158.167969 60.160156 179.660156 53.171875 C 196.183594 47.8125 216.878906 46.488281 234.785156 51.492188 C 240.1875 53.96875 245.503906 56.640625 250.65625 59.582031 C 258.355469 63.910156 265.914062 68.863281 273.304688 74.222656 C 274.285156 75.105469 275.28125 75.988281 276.238281 76.921875 C 285.703125 86.019531 290.539062 98.5 293.925781 110.882812 " fill-opacity="1" fill-rule="nonzero"/><path fill="#000000" d="M 95.921875 75.375 C 94.792969 74.761719 93.699219 74.160156 92.695312 73.609375 C 85.328125 69.589844 77.707031 65.492188 69.582031 63.296875 C 52.59375 58.675781 34.867188 58.246094 17.535156 60.625 C 29.269531 67.28125 36.941406 82.585938 36.15625 95.972656 C 55.402344 87.292969 76.257812 83.101562 95.921875 75.375 Z M 120.65625 302.394531 C 122.679688 299.019531 125.96875 294.523438 120.226562 292.683594 C 115.449219 291.136719 113.21875 295.121094 111.277344 298.714844 C 106 308.597656 101.925781 319.15625 95.714844 328.546875 C 91.171875 335.460938 84.136719 344.828125 74.761719 344.609375 C 64.644531 344.375 55.292969 337.289062 53.023438 327.34375 C 50.886719 318.0625 57.832031 308.632812 63.835938 301.632812 C 55.796875 297.5 50.492188 317.902344 50.234375 322.773438 C 49.386719 337.152344 56.152344 348.542969 71.164062 350.910156 C 89.316406 353.792969 101.210938 340.636719 109.167969 326.09375 C 113.375 318.441406 116.199219 309.886719 120.65625 302.394531 Z M 172.171875 109.558594 C 167.679688 107.316406 163.164062 105.121094 158.535156 103.148438 C 146.664062 98.058594 130.304688 90.457031 117.390625 95.730469 C 115.019531 96.699219 113.523438 94.578125 113.734375 92.554688 C 113.21875 91.917969 112.921875 91.132812 113.007812 90.335938 C 111.15625 85.894531 106.980469 82.277344 102.476562 79.273438 C 82.320312 87.722656 60.667969 91.929688 40.683594 100.660156 C 57.945312 105.550781 72.328125 118.597656 86.753906 128.699219 C 99.921875 137.921875 116.507812 146.894531 120.1875 163.644531 C 140.847656 149.238281 155.738281 128.332031 172.171875 109.558594 Z M 210.667969 128.601562 C 205.988281 126.113281 201.265625 123.746094 196.425781 121.550781 C 190.144531 118.695312 184.019531 115.53125 177.84375 112.417969 C 161.886719 130.429688 147.5625 150.351562 128.488281 165.164062 C 146.382812 167.296875 163.347656 175.597656 179.09375 184.097656 C 179.882812 182.699219 180.679688 181.300781 181.464844 179.890625 C 175.375 176.582031 169.644531 173.171875 164.109375 170.214844 C 157.34375 166.539062 150.789062 163.621094 144.617188 161.730469 L 142.125 160.984375 L 144.015625 159.339844 C 148.066406 155.796875 151.785156 152.609375 155.183594 149.996094 C 158.621094 147.347656 161.335938 144.96875 163.753906 143.058594 C 168.28125 138.925781 170.835938 136.511719 171.054688 136.753906 C 171.238281 136.941406 169.128906 139.6875 164.929688 144.1875 C 162.671875 146.28125 159.933594 148.992188 156.683594 151.761719 C 153.90625 154.105469 150.972656 156.816406 147.808594 159.734375 C 153.5625 161.523438 159.566406 164.085938 165.679688 167.296875 C 171.351562 170.253906 177.121094 173.625 183.171875 176.886719 C 192.277344 160.761719 201.4375 144.664062 210.667969 128.601562 Z M 181.109375 46.304688 C 190.621094 43.804688 201.105469 42.367188 211.648438 42.378906 C 151.625 22.457031 82.0625 26.503906 25.414062 53.5625 C 43.914062 51.980469 62.753906 53.585938 80.027344 60.464844 C 91.453125 65.027344 110.148438 73.121094 117.269531 85.109375 C 135.078125 67.589844 156.804688 52.742188 181.109375 46.304688 Z M 237.007812 189.171875 C 239.992188 176.296875 243.441406 163.460938 246.089844 150.511719 C 236.371094 143.792969 226.402344 137.394531 216.066406 131.570312 C 206.859375 147.59375 197.730469 163.679688 188.621094 179.769531 C 195.078125 183.03125 201.472656 186.230469 207.09375 190.09375 C 212.125 193.5625 216.71875 197.609375 219.625 202.5 C 223.554688 193.28125 224.523438 184.636719 225.113281 178.554688 C 225.691406 171.796875 225.875 167.886719 226.230469 167.886719 C 226.523438 167.886719 226.90625 171.796875 226.84375 178.640625 C 226.660156 185.410156 226.082031 195.5625 221.050781 206.546875 L 219.738281 209.441406 L 218.375 206.484375 C 215.96875 201.226562 210.996094 196.714844 205.214844 192.875 C 199.742188 189.195312 193.46875 186.09375 186.914062 182.785156 C 186.117188 184.207031 185.304688 185.640625 184.507812 187.050781 C 200.625 195.988281 215.574219 205.75 224.253906 222.300781 C 228.539062 211.230469 234.269531 201.027344 237.007812 189.171875 Z M 290.355469 180.074219 C 300.875 160.003906 299.621094 131.59375 293.925781 110.882812 C 290.539062 98.5 285.703125 86.019531 276.238281 76.921875 C 275.28125 75.988281 274.285156 75.105469 273.304688 74.222656 C 265.914062 68.863281 258.355469 63.910156 250.65625 59.582031 C 245.503906 56.640625 240.1875 53.96875 234.785156 51.492188 C 216.878906 46.488281 196.183594 47.8125 179.660156 53.171875 C 158.167969 60.160156 139.398438 72.480469 123.207031 87.96875 C 135.078125 86.691406 148.125 92.171875 158.449219 96.453125 C 172.515625 102.289062 185.796875 109.757812 199.558594 116.230469 C 222.695312 127.15625 244.261719 140.925781 264.652344 156.324219 C 272.910156 162.589844 285.40625 169.945312 290.355469 180.074219 Z M 323.078125 257.554688 C 319.324219 234.429688 311.160156 212.101562 302.320312 190.472656 C 298.34375 189.785156 294.257812 189.957031 290.121094 191.246094 C 287.617188 192.003906 286.070312 189.722656 286.375 187.738281 C 286.351562 187.675781 286.339844 187.617188 286.316406 187.554688 C 285.089844 179.683594 277.144531 173.660156 271.21875 169.027344 C 264.808594 163.976562 258.242188 159.082031 251.589844 154.351562 C 248.765625 167.726562 245.378906 181.105469 242.101562 194.347656 C 239.476562 204.988281 234.148438 214.125 230.21875 224.066406 C 245.269531 220.707031 260.796875 227.109375 274.765625 233.351562 C 291.3125 240.769531 308.730469 246.507812 323.078125 257.554688 Z M 367.007812 255.726562 C 366.765625 255.273438 366.617188 254.820312 366.582031 254.367188 C 358.394531 240.730469 349.101562 227.5625 338.386719 215.878906 C 330.957031 207.785156 321.027344 197.535156 309.847656 192.742188 C 318.769531 214.945312 326.578125 237.726562 329.867188 261.476562 C 340.890625 255.273438 354.550781 253.199219 367.007812 255.726562 Z M 373.773438 254.414062 C 374.265625 245.820312 372.644531 237.113281 371.183594 228.691406 C 369.453125 218.871094 368.285156 208.914062 365.757812 199.238281 C 360.246094 178.246094 351.726562 158.152344 338.960938 140.496094 C 326 122.558594 310.175781 105.035156 292.675781 89.710938 C 295.816406 95.902344 298.210938 102.472656 299.867188 109.265625 C 305.527344 132.230469 307.378906 162.308594 295.265625 184.023438 C 312.289062 182.761719 328.183594 196.074219 339.292969 207.796875 C 352.574219 221.835938 363.988281 237.726562 373.773438 254.414062 Z M 374.066406 208.398438 C 377.039062 225.527344 382.304688 244.570312 379.0625 261.929688 C 378.792969 263.339844 377.371094 264.089844 376.082031 264.1875 C 375.96875 264.210938 375.898438 264.210938 375.785156 264.222656 C 375.382812 264.394531 374.902344 264.433594 374.386719 264.335938 C 374.164062 264.335938 373.957031 264.308594 373.734375 264.222656 C 373.160156 264.210938 372.582031 263.980469 372.089844 263.523438 C 358.109375 258.597656 341.675781 260.59375 329.425781 268.992188 C 327.71875 270.144531 326.085938 269.277344 325.347656 267.890625 C 325.042969 267.621094 324.773438 267.289062 324.589844 266.921875 C 311.011719 254.058594 293.765625 248.589844 277.046875 241.097656 C 262.21875 234.441406 243.796875 224.851562 227.421875 231.265625 C 226.722656 232.125 225.652344 232.429688 224.636719 232.285156 C 222.757812 232.578125 221.1875 231.09375 220.902344 229.5 C 220.890625 229.449219 220.867188 229.414062 220.828125 229.363281 C 213.011719 211.378906 197.914062 201.433594 181.488281 192.398438 C 171.878906 209.402344 162.277344 226.433594 152.65625 243.417969 C 147.78125 252.046875 142.886719 260.65625 137.976562 269.261719 C 135.667969 273.285156 132.488281 277.476562 130.820312 281.792969 C 129.933594 284.074219 128.117188 288.257812 128.597656 290.660156 C 128.757812 291.503906 129.703125 292.558594 129.933594 293.539062 C 131.003906 298.222656 126.535156 304.121094 124.632812 308.167969 C 122.363281 312.9375 120.273438 317.792969 117.992188 322.5625 C 113.4375 332.113281 108.160156 341.667969 99.972656 348.628906 C 87.671875 359.101562 67.234375 361.566406 54.210938 350.335938 C 42.292969 340.046875 41.839844 322.527344 47.351562 308.746094 C 50.996094 299.660156 59.859375 290.402344 69.394531 298.039062 C 69.765625 298.324219 70.035156 298.652344 70.195312 299.007812 C 71.285156 300.089844 71.742188 301.941406 70.425781 303.421875 C 64.167969 310.523438 52.433594 324.832031 63.199219 333.449219 C 71.800781 340.328125 80 339.164062 86.691406 330.644531 C 92.976562 322.648438 97.175781 313.316406 101.566406 304.21875 C 105.582031 295.917969 108.847656 284.625 119.28125 283.902344 C 120.015625 283.84375 120.988281 284.625 121.832031 284.296875 C 124.238281 283.328125 125.699219 278.421875 126.828125 276.351562 C 129.113281 272.15625 131.578125 268.023438 133.960938 263.855469 C 138.710938 255.519531 143.449219 247.179688 148.175781 238.84375 C 150.496094 234.734375 175.867188 189.480469 176.0625 189.480469 C 158.867188 180.257812 140.382812 171.050781 120.570312 170.804688 C 120.273438 170.988281 119.980469 171.222656 119.671875 171.429688 C 117.820312 172.59375 116.078125 171.527344 115.414062 169.972656 C 114.691406 169.210938 114.46875 168.035156 114.738281 166.992188 C 114.628906 166.746094 114.554688 166.476562 114.503906 166.183594 C 112.210938 149.078125 91.6875 140.015625 79.242188 130.820312 C 65.285156 120.507812 49.695312 106.863281 31.738281 105.074219 C 30.054688 104.914062 29.085938 103.675781 28.839844 102.351562 C 28.449219 101.320312 28.582031 100.144531 29.480469 99.320312 C 32.585938 85.566406 22.113281 64.734375 7.066406 63.480469 C 6.941406 63.457031 6.832031 63.445312 6.707031 63.421875 C 4.058594 64.082031 1.957031 60.6875 3.554688 58.578125 C 3.714844 57.570312 4.390625 56.675781 5.726562 56.394531 C 6.265625 56.296875 6.820312 56.210938 7.359375 56.113281 C 45.496094 34.042969 88.800781 23.414062 132.917969 24.417969 C 169.128906 25.238281 204.859375 30.941406 237.5 45.863281 C 241.339844 46.964844 245.058594 48.363281 248.609375 50.066406 C 249.136719 50.042969 249.675781 50.191406 250.253906 50.546875 C 260.648438 57.214844 272.125 63.652344 280.765625 72.703125 C 290.722656 80.574219 300.085938 89.097656 309.332031 98.011719 C 324.230469 112.429688 338.777344 127.730469 349.714844 145.460938 C 361.558594 164.601562 370.203125 186.191406 374.066406 208.398438 " fill-opacity="1" fill-rule="nonzero"/><path fill="#000000" d="M 355.042969 209.464844 C 356.417969 212.050781 356.6875 213.71875 356.476562 213.78125 C 356.234375 213.84375 355.570312 212.445312 353.886719 210.1875 C 352.242188 207.90625 349.679688 204.695312 346.253906 200.96875 C 342.839844 197.242188 338.59375 192.9375 333.511719 188.621094 C 330.984375 186.476562 328.222656 184.328125 325.226562 182.367188 C 322.269531 180.417969 318.992188 178.589844 315.566406 177.734375 C 313.503906 177.242188 311.492188 177.253906 309.96875 177.976562 L 307 179.414062 L 307.476562 176.210938 C 308.484375 169.347656 309.171875 162.859375 309.550781 156.988281 C 309.90625 151.089844 309.90625 145.828125 309.761719 141.414062 C 309.453125 132.648438 308.65625 127.214844 309.183594 127.15625 C 309.550781 127.15625 311.121094 132.316406 312.066406 141.269531 C 312.511719 145.730469 312.78125 151.113281 312.597656 157.109375 C 312.460938 162.34375 311.980469 168.082031 311.222656 174.054688 C 312.988281 173.785156 314.757812 173.96875 316.363281 174.359375 C 320.511719 175.425781 323.972656 177.4375 327.117188 179.535156 C 330.246094 181.65625 333.058594 183.9375 335.609375 186.21875 C 340.730469 190.792969 344.867188 195.351562 348.105469 199.363281 C 351.359375 203.382812 353.679688 206.902344 355.042969 209.464844 " fill-opacity="1" fill-rule="nonzero"/><path fill="#000000" d="M 306.164062 236.636719 L 306.691406 240.277344 L 303.757812 237.777344 C 297.609375 232.515625 289.078125 227.539062 279.121094 223.882812 C 267.828125 219.652344 256.84375 217.398438 248.25 215.449219 L 246.460938 215.03125 L 247.332031 213.472656 C 250.082031 208.484375 251.296875 203.835938 252.242188 200.734375 C 252.941406 197.484375 253.359375 195.621094 253.664062 195.621094 C 253.910156 195.660156 254.007812 197.558594 253.738281 200.917969 C 253.296875 203.984375 252.546875 208.25 250.449219 213.082031 C 258.90625 214.542969 269.414062 216.550781 280.335938 220.636719 C 289.175781 223.882812 296.996094 228.359375 302.960938 233.25 C 302.910156 232.859375 302.875 232.480469 302.824219 232.097656 C 302.664062 230.601562 302.25 229.230469 302.015625 227.894531 C 301.867188 227.230469 301.71875 226.59375 301.574219 225.980469 C 301.414062 225.390625 301.230469 224.792969 301.058594 224.238281 C 300.726562 223.097656 300.429688 222.058594 300.160156 221.136719 C 298.921875 217.433594 298.269531 215.277344 298.554688 215.128906 C 298.824219 215.03125 299.976562 216.945312 301.695312 220.535156 C 302.0625 221.46875 302.492188 222.488281 302.960938 223.601562 C 303.179688 224.152344 303.402344 224.753906 303.648438 225.34375 C 303.855469 225.957031 304.039062 226.617188 304.25 227.292969 C 304.59375 228.652344 305.132812 230.078125 305.402344 231.65625 C 305.648438 233.238281 305.894531 234.894531 306.164062 236.636719 " fill-opacity="1" fill-rule="nonzero"/><path fill="#000000" d="M 287.015625 127.242188 C 288.082031 135.886719 288.476562 145.4375 288.4375 155.441406 C 288.414062 158.640625 288.351562 161.792969 288.265625 164.847656 L 288.144531 169.433594 L 285.234375 165.902344 C 279.699219 159.242188 273.28125 154.042969 267.242188 149.691406 C 261.101562 145.425781 255.347656 141.964844 250.535156 139.035156 C 240.898438 133.199219 235.253906 129.214844 235.484375 128.859375 C 235.753906 128.492188 241.734375 131.742188 251.6875 137.039062 C 256.648438 139.710938 262.589844 142.972656 268.960938 147.164062 C 274.226562 150.746094 279.796875 155.039062 284.902344 160.417969 C 284.917969 158.753906 284.941406 157.132812 284.976562 155.441406 C 285.003906 145.523438 284.71875 136.09375 283.824219 127.585938 C 282.964844 119.085938 281.601562 111.507812 279.96875 105.257812 C 278.335938 99.003906 276.484375 94.109375 275.171875 90.738281 C 273.746094 87.390625 272.949219 85.503906 273.195312 85.394531 C 273.378906 85.296875 274.570312 86.9375 276.359375 90.136719 C 278.117188 93.410156 280.351562 98.28125 282.328125 104.582031 C 284.300781 110.871094 285.972656 118.597656 287.015625 127.242188 " fill-opacity="1" fill-rule="nonzero"/><path fill="#000000" d="M 170.710938 63.480469 C 170.796875 63.703125 170.050781 64.15625 168.699219 64.78125 C 167.261719 65.308594 165.421875 66.363281 163.1875 67.492188 C 158.621094 69.992188 152.839844 74.308594 146.175781 79.015625 C 145.792969 79.300781 145.402344 79.542969 145.007812 79.8125 C 146.652344 80.058594 148.210938 80.339844 149.699219 80.671875 C 152.507812 81.308594 154.976562 82.179688 156.925781 83.074219 C 160.84375 84.953125 162.695312 86.816406 162.488281 87.109375 C 162.21875 87.515625 159.996094 86.324219 156.128906 85.136719 C 154.191406 84.558594 151.84375 83.984375 149.144531 83.578125 C 146.421875 83.1875 143.363281 82.867188 140.074219 82.621094 L 135.273438 82.277344 L 139.3125 79.507812 C 140.898438 78.417969 142.542969 77.363281 144.199219 76.171875 C 150.765625 71.539062 157.039062 67.34375 162.121094 65.285156 C 164.722656 64.328125 166.820312 63.605469 168.316406 63.480469 C 169.804688 63.261719 170.652344 63.261719 170.710938 63.480469 " fill-opacity="1" fill-rule="nonzero"/><path fill="#000000" d="M 161.125 44.992188 C 161.1875 45.226562 159.898438 45.875 157.527344 46.84375 C 155.121094 47.761719 151.746094 49.246094 147.625 51.097656 C 139.4375 54.960938 128.78125 61.777344 120.433594 72.824219 C 119.710938 73.707031 118.984375 74.589844 118.296875 75.472656 L 116.960938 77.140625 L 115.597656 75.558594 C 111.339844 70.65625 106.882812 66.398438 102.597656 62.820312 C 100.425781 61.101562 98.363281 59.410156 96.289062 58.0625 C 94.289062 56.605469 92.300781 55.425781 90.507812 54.335938 C 83.316406 50.105469 78.296875 48.265625 78.515625 47.726562 C 78.664062 47.417969 83.808594 48.402344 91.648438 52.261719 C 93.578125 53.257812 95.6875 54.324219 97.8125 55.734375 C 100.035156 57.03125 102.230469 58.652344 104.5625 60.355469 C 108.625 63.542969 112.824219 67.382812 116.8125 71.78125 C 117.121094 71.414062 117.402344 71.035156 117.722656 70.65625 C 119.859375 67.796875 122.335938 65.332031 124.667969 62.894531 C 125.898438 61.742188 127.199219 60.660156 128.414062 59.59375 C 129.605469 58.492188 130.917969 57.585938 132.195312 56.675781 C 137.214844 52.960938 142.355469 50.679688 146.628906 48.855469 C 150.988281 47.234375 154.570312 46.082031 157.113281 45.570312 C 159.628906 44.980469 161.039062 44.769531 161.125 44.992188 " fill-opacity="1" fill-rule="nonzero"/><path fill="#000000" d="M 155.292969 115.519531 C 155.589844 115.765625 152.605469 119.871094 146.75 125.769531 C 140.96875 131.703125 132.035156 139.097656 124.09375 149.101562 L 122.421875 151.1875 L 121.144531 148.710938 C 120.570312 147.558594 120.066406 146.367188 119.402344 145.214844 C 118.691406 144.101562 118.089844 142.910156 117.242188 141.832031 C 113.105469 135.886719 107.839844 131.140625 102.808594 127.214844 C 97.773438 123.28125 92.878906 120.152344 88.703125 117.628906 C 80.308594 112.613281 74.882812 109.84375 75.089844 109.351562 C 75.277344 108.960938 81.070312 110.957031 89.894531 115.496094 C 94.289062 117.773438 99.421875 120.753906 104.746094 124.679688 C 110.050781 128.601562 115.621094 133.46875 120.101562 139.859375 C 120.988281 141.011719 121.648438 142.320312 122.421875 143.523438 C 122.679688 143.976562 122.902344 144.457031 123.121094 144.933594 C 131.089844 135.6875 139.496094 129.164062 145.191406 124.101562 C 151.417969 118.730469 154.914062 115.199219 155.292969 115.519531 " fill-opacity="1" fill-rule="nonzero"/></svg>