<svg xmlns="http://www.w3.org/2000/svg" xmlns:xlink="http://www.w3.org/1999/xlink" width="512" zoomAndPan="magnify" viewBox="0 0 384 383.999986" height="512" preserveAspectRatio="xMidYMid meet" version="1.0"><path fill="#222f37" d="M 320.269531 382.449219 L 21.351562 348.875 C 8.929688 347.480469 -0.0117188 336.277344 1.382812 323.855469 L 34.960938 24.933594 C 36.355469 12.515625 47.554688 3.574219 59.980469 4.96875 L 358.898438 38.542969 C 371.320312 39.941406 380.261719 51.140625 378.867188 63.5625 L 345.289062 362.484375 C 343.894531 374.90625 332.691406 383.84375 320.269531 382.449219 " fill-opacity="1" fill-rule="nonzero"/><path fill="#5c7d9c" d="M 124.605469 38.359375 L 53.160156 30.335938 L 54.3125 20.074219 L 125.757812 28.101562 L 124.605469 38.359375 " fill-opacity="1" fill-rule="nonzero"/><path fill="#3f5b70" d="M 76.285156 316.015625 C 78.109375 277.832031 68.523438 215.789062 51.785156 191.199219 C 64.207031 165.871094 58.523438 137.21875 49.691406 119.304688 C 59.460938 109.988281 69.941406 102.953125 81.867188 97.359375 C 97.25 90.136719 110.042969 90.605469 127.34375 89.472656 C 144.761719 88.332031 163.316406 81.992188 174.089844 66.589844 L 227.417969 72.578125 C 234.503906 89.988281 251.191406 100.289062 267.921875 105.261719 C 284.542969 110.207031 297.117188 112.585938 310.519531 123.039062 C 320.90625 131.140625 329.5625 140.328125 337.023438 151.578125 C 324.4375 167.085938 312.535156 193.765625 319.03125 221.21875 C 297.257812 241.480469 274.140625 299.847656 267.449219 337.484375 L 76.285156 316.015625 " fill-opacity="1" fill-rule="nonzero"/><path fill="#9fd7ed" d="M 206.683594 139.09375 L 179.554688 136.046875 C 176.914062 135.753906 175.019531 133.328125 175.320312 130.640625 L 176.789062 117.582031 C 177.09375 114.890625 179.476562 112.949219 182.113281 113.246094 L 209.242188 116.292969 C 211.882812 116.589844 213.777344 119.011719 213.472656 121.703125 L 212.007812 134.761719 C 211.703125 137.449219 209.320312 139.390625 206.683594 139.09375 " fill-opacity="1" fill-rule="nonzero"/><path fill="#9fd7ed" d="M 209.722656 112.019531 L 182.59375 108.972656 C 179.957031 108.675781 178.0625 106.253906 178.363281 103.5625 L 179.832031 90.503906 C 180.132812 87.8125 182.515625 85.875 185.152344 86.171875 L 212.285156 89.21875 C 214.921875 89.511719 216.816406 91.9375 216.515625 94.625 L 215.046875 107.683594 C 214.746094 110.375 212.359375 112.3125 209.722656 112.019531 " fill-opacity="1" fill-rule="nonzero"/><path fill="#9fd7ed" d="M 188.339844 302.375 L 161.210938 299.328125 C 158.574219 299.03125 156.679688 296.609375 156.984375 293.921875 L 158.449219 280.863281 C 158.753906 278.171875 161.132812 276.230469 163.773438 276.527344 L 190.902344 279.574219 C 193.542969 279.871094 195.433594 282.289062 195.132812 284.984375 L 193.667969 298.039062 C 193.363281 300.730469 190.980469 302.671875 188.339844 302.375 " fill-opacity="1" fill-rule="nonzero"/><path fill="#9fd7ed" d="M 191.382812 275.296875 L 164.253906 272.253906 C 161.617188 271.953125 159.722656 269.535156 160.023438 266.84375 L 161.492188 253.785156 C 161.792969 251.09375 164.175781 249.152344 166.816406 249.453125 L 193.945312 252.496094 C 196.585938 252.792969 198.476562 255.214844 198.171875 257.90625 L 196.707031 270.964844 C 196.40625 273.652344 194.023438 275.59375 191.382812 275.296875 " fill-opacity="1" fill-rule="nonzero"/><path fill="#9fd7ed" d="M 208.277344 166.8125 L 171.847656 162.71875 C 168.851562 162.382812 166.703125 159.636719 167.046875 156.582031 L 168.367188 144.839844 C 168.707031 141.785156 171.414062 139.582031 174.410156 139.917969 L 210.839844 144.011719 C 213.835938 144.347656 215.984375 147.09375 215.640625 150.148438 L 214.324219 161.890625 C 213.980469 164.945312 211.273438 167.148438 208.277344 166.8125 " fill-opacity="1" fill-rule="nonzero"/><path fill="#9fd7ed" d="M 205.222656 194.007812 L 168.792969 189.914062 C 165.796875 189.578125 163.648438 186.832031 163.992188 183.777344 L 165.308594 172.035156 C 165.652344 168.980469 168.359375 166.777344 171.355469 167.113281 L 207.785156 171.207031 C 210.78125 171.542969 212.929688 174.292969 212.585938 177.347656 L 211.269531 189.085938 C 210.925781 192.140625 208.21875 194.34375 205.222656 194.007812 " fill-opacity="1" fill-rule="nonzero"/><path fill="#9fd7ed" d="M 202.167969 221.203125 L 165.738281 217.109375 C 162.742188 216.773438 160.59375 214.023438 160.9375 210.96875 L 162.253906 199.230469 C 162.597656 196.175781 165.304688 193.972656 168.300781 194.308594 L 204.730469 198.402344 C 207.726562 198.738281 209.875 201.484375 209.53125 204.539062 L 208.214844 216.28125 C 207.871094 219.335938 205.164062 221.539062 202.167969 221.203125 " fill-opacity="1" fill-rule="nonzero"/><path fill="#9fd7ed" d="M 199.113281 248.398438 L 162.683594 244.304688 C 159.6875 243.96875 157.539062 241.222656 157.882812 238.167969 L 159.199219 226.425781 C 159.542969 223.371094 162.25 221.167969 165.246094 221.503906 L 201.675781 225.597656 C 204.671875 225.933594 206.820312 228.683594 206.476562 231.738281 L 205.160156 243.476562 C 204.816406 246.53125 202.109375 248.734375 199.113281 248.398438 " fill-opacity="1" fill-rule="nonzero"/><path fill="#9fd7ed" d="M 212.183594 161.121094 C 212.027344 161.105469 211.871094 161.085938 211.714844 161.066406 C 209.117188 160.738281 207.324219 157.921875 207.703125 154.777344 C 208.082031 151.65625 210.46875 149.378906 213.042969 149.667969 C 213.183594 149.6875 213.324219 149.707031 213.460938 149.71875 C 222.617188 150.75 230.96875 146.902344 235.847656 139.378906 C 239.851562 133.214844 239.667969 123.304688 235.417969 116.324219 C 233.898438 113.832031 234.402344 110.234375 236.539062 108.292969 C 238.679688 106.355469 241.644531 106.804688 243.167969 109.300781 C 249.902344 120.367188 249.933594 135.878906 243.238281 146.191406 C 236.246094 156.964844 224.664062 162.523438 212.183594 161.121094 " fill-opacity="1" fill-rule="nonzero"/><path fill="#9fd7ed" d="M 209.539062 188.839844 C 206.976562 188.554688 205.15625 185.828125 205.464844 182.710938 C 205.769531 179.554688 208.132812 177.191406 210.738281 177.433594 C 229.46875 179.144531 243.441406 175.324219 251.148438 166.382812 C 256.738281 159.902344 259.851562 151.382812 259.480469 143.585938 C 259.152344 136.699219 256.199219 130.761719 250.9375 126.417969 C 248.816406 124.667969 248.351562 121.113281 249.898438 118.480469 C 251.441406 115.851562 254.414062 115.128906 256.535156 116.886719 C 264.0625 123.105469 268.480469 132.183594 268.96875 142.449219 C 269.507812 153.78125 265.359375 165.453125 257.585938 174.46875 C 247.773438 185.847656 231.1875 190.820312 209.621094 188.847656 C 209.59375 188.847656 209.566406 188.84375 209.539062 188.839844 " fill-opacity="1" fill-rule="nonzero"/><path fill="#9fd7ed" d="M 223.535156 220.519531 C 217.191406 219.804688 211.101562 218.375 205.683594 216.722656 C 203.164062 215.953125 201.730469 212.84375 202.476562 209.773438 C 203.222656 206.707031 205.875 204.84375 208.382812 205.613281 C 221.140625 209.507812 244.800781 213.9375 260.035156 199.839844 C 274.613281 186.351562 279.050781 163.527344 270.355469 146.757812 C 268.996094 144.125 269.707031 140.570312 271.949219 138.816406 C 274.191406 137.0625 277.113281 137.765625 278.480469 140.394531 C 289.765625 162.171875 284.234375 191.582031 265.617188 208.808594 C 253.425781 220.09375 237.828125 222.125 223.535156 220.519531 " fill-opacity="1" fill-rule="nonzero"/><path fill="#9fd7ed" d="M 236.027344 258.839844 C 224.910156 257.589844 213.40625 252.332031 200.527344 242.820312 C 198.332031 241.203125 197.722656 237.6875 199.164062 234.972656 C 200.601562 232.257812 203.550781 231.371094 205.742188 232.988281 C 224.316406 246.707031 239.355469 250.570312 254.507812 245.5 C 263.402344 242.527344 272.355469 232.878906 276.789062 221.492188 C 279.804688 213.75 280.261719 206.527344 278.074219 201.160156 C 276.9375 198.371094 277.933594 194.902344 280.296875 193.414062 C 282.664062 191.925781 285.503906 192.976562 286.640625 195.765625 C 290.097656 204.253906 289.644531 214.984375 285.363281 225.984375 C 279.667969 240.617188 268.410156 252.605469 256.683594 256.527344 C 249.789062 258.828125 242.984375 259.621094 236.027344 258.839844 " fill-opacity="1" fill-rule="nonzero"/><path fill="#9fd7ed" d="M 253.949219 283.058594 C 238.878906 281.003906 218.207031 267.929688 210.320312 248.972656 C 209.15625 246.171875 211.453125 245.628906 213.910156 244.058594 C 216.359375 242.496094 219.386719 243.449219 220.679688 246.195312 C 230.359375 266.738281 252.089844 274.625 262.03125 272.539062 C 273.394531 270.152344 281.023438 256.9375 280.585938 240.40625 C 280.5 237.25 282.679688 234.527344 285.449219 234.316406 C 288.207031 234.109375 290.527344 236.496094 290.609375 239.652344 C 291.207031 262.164062 280.261719 279.144531 263.707031 282.621094 C 261.226562 283.144531 256.992188 283.472656 253.949219 283.058594 " fill-opacity="1" fill-rule="nonzero"/><path fill="#9fd7ed" d="M 235.5 310.753906 C 220.238281 303.269531 220.011719 278.089844 220.855469 264.21875 C 221.042969 261.164062 223.121094 260.683594 225.839844 260.316406 C 228.558594 259.945312 230.71875 262.125 230.667969 265.183594 C 230.390625 282.460938 231.226562 299.523438 244.558594 301.695312 C 255.828125 303.539062 263.378906 289.359375 264.777344 286.5 C 266.15625 283.6875 269.136719 282.351562 271.464844 283.492188 C 271.484375 283.5 271.503906 283.507812 271.523438 283.519531 C 273.859375 284.714844 274.625 287.984375 273.238281 290.820312 C 267.3125 302.929688 255.957031 315.050781 241.859375 312.742188 C 239.484375 312.351562 237.375 311.671875 235.5 310.753906 " fill-opacity="1" fill-rule="nonzero"/><path fill="#9fd7ed" d="M 169.304688 156.304688 C 169.460938 156.324219 169.617188 156.335938 169.773438 156.355469 C 172.378906 156.609375 174.753906 154.261719 175.074219 151.113281 C 175.398438 147.984375 173.578125 145.238281 171.003906 144.949219 C 170.863281 144.933594 170.722656 144.921875 170.585938 144.902344 C 161.425781 143.875 154.140625 138.273438 151.050781 129.855469 C 148.515625 122.957031 150.890625 113.332031 156.582031 107.472656 C 158.617188 105.375 158.925781 101.753906 157.269531 99.390625 C 155.617188 97.027344 152.625 96.808594 150.585938 98.902344 C 141.566406 108.199219 138.09375 123.320312 142.332031 134.859375 C 146.761719 146.914062 156.824219 154.902344 169.304688 156.304688 " fill-opacity="1" fill-rule="nonzero"/><path fill="#9fd7ed" d="M 165.734375 183.917969 C 168.296875 184.207031 170.671875 181.953125 171.066406 178.84375 C 171.464844 175.703125 169.683594 172.875 167.09375 172.53125 C 148.449219 170.042969 135.671875 163.21875 130.140625 152.792969 C 126.128906 145.234375 124.980469 136.230469 127.074219 128.714844 C 128.921875 122.074219 133.117188 116.941406 139.210938 113.867188 C 141.667969 112.628906 142.914062 109.269531 141.988281 106.359375 C 141.066406 103.453125 138.328125 102.09375 135.871094 103.332031 C 127.148438 107.726562 120.832031 115.597656 118.074219 125.5 C 115.03125 136.433594 116.488281 148.730469 122.070312 159.246094 C 129.113281 172.519531 144.183594 181.046875 165.648438 183.910156 C 165.675781 183.914062 165.703125 183.917969 165.734375 183.917969 " fill-opacity="1" fill-rule="nonzero"/><path fill="#9fd7ed" d="M 145.054688 211.703125 C 151.402344 212.414062 157.65625 212.371094 163.308594 211.960938 C 165.929688 211.769531 168.019531 209.054688 167.972656 205.902344 C 167.925781 202.746094 165.753906 200.335938 163.136719 200.53125 C 149.835938 201.5 125.777344 200.570312 114.054688 183.441406 C 102.832031 167.054688 103.566406 143.816406 115.765625 129.390625 C 117.679688 127.128906 117.773438 123.507812 115.976562 121.292969 C 114.175781 119.085938 111.167969 119.128906 109.257812 121.390625 C 93.421875 140.117188 92.289062 170.023438 106.621094 190.953125 C 116.003906 204.65625 130.761719 210.097656 145.054688 211.703125 " fill-opacity="1" fill-rule="nonzero"/><path fill="#9fd7ed" d="M 124.375 246.296875 C 135.492188 247.546875 147.878906 244.972656 162.542969 238.554688 C 165.039062 237.460938 166.417969 234.167969 165.617188 231.203125 C 164.8125 228.238281 162.136719 226.722656 159.640625 227.8125 C 138.484375 237.066406 122.964844 237.496094 109.3125 229.191406 C 101.300781 224.320312 94.710938 212.925781 92.914062 200.839844 C 91.691406 192.617188 92.851562 185.476562 96.171875 180.726562 C 97.898438 178.261719 97.699219 174.65625 95.722656 172.679688 C 93.746094 170.703125 90.742188 171.101562 89.015625 173.570312 C 83.761719 181.078125 81.824219 191.644531 83.554688 203.320312 C 85.863281 218.847656 94.183594 233.035156 104.746094 239.460938 C 110.957031 243.238281 117.417969 245.515625 124.375 246.296875 " fill-opacity="1" fill-rule="nonzero"/><path fill="#9fd7ed" d="M 101.523438 265.9375 C 116.675781 267.277344 139.734375 259.113281 151.632812 242.378906 C 153.386719 239.90625 151.265625 238.867188 149.222656 236.792969 C 147.179688 234.722656 144.015625 234.984375 142.144531 237.371094 C 128.148438 255.257812 105.210938 258.125 95.976562 253.886719 C 85.429688 249.039062 80.921875 234.460938 85.015625 218.4375 C 85.796875 215.382812 84.28125 212.242188 81.625 211.421875 C 78.984375 210.609375 76.1875 212.421875 75.40625 215.480469 C 69.832031 237.300781 76.738281 256.285156 92.109375 263.347656 C 94.410156 264.40625 98.464844 265.667969 101.523438 265.9375 " fill-opacity="1" fill-rule="nonzero"/><path fill="#9fd7ed" d="M 113.371094 297.035156 C 129.917969 293.121094 135.722656 268.621094 137.972656 254.910156 C 138.46875 251.890625 136.550781 250.960938 133.984375 249.996094 C 131.414062 249.035156 128.820312 250.679688 128.191406 253.667969 C 124.628906 270.582031 120.03125 287.035156 106.546875 286.191406 C 95.152344 285.492188 90.933594 269.992188 90.203125 266.890625 C 89.484375 263.839844 86.875 261.878906 84.351562 262.476562 C 84.332031 262.480469 84.308594 262.484375 84.289062 262.488281 C 81.746094 263.132812 80.273438 266.152344 80.996094 269.230469 C 84.085938 282.351562 92.46875 296.6875 106.730469 297.5625 C 109.128906 297.710938 111.34375 297.515625 113.371094 297.035156 " fill-opacity="1" fill-rule="nonzero"/><path fill="#46a2c7" d="M 182.800781 107.125 C 181.167969 106.941406 179.988281 105.4375 180.175781 103.769531 L 181.640625 90.707031 C 181.828125 89.042969 183.3125 87.835938 184.949219 88.019531 L 212.078125 91.066406 C 213.710938 91.25 214.890625 92.753906 214.703125 94.421875 L 213.234375 107.480469 C 213.046875 109.148438 211.566406 110.355469 209.929688 110.171875 Z M 179.757812 134.199219 C 178.125 134.015625 176.949219 132.511719 177.136719 130.84375 L 178.601562 117.785156 C 178.789062 116.117188 180.273438 114.910156 181.90625 115.09375 L 209.035156 118.140625 C 210.671875 118.324219 211.847656 119.832031 211.660156 121.496094 L 210.195312 134.558594 C 210.007812 136.222656 208.523438 137.433594 206.886719 137.25 Z M 172.058594 160.875 C 170.066406 160.648438 168.628906 158.816406 168.855469 156.785156 L 169.121094 154.453125 L 167.433594 154.152344 C 156.507812 152.203125 147.980469 144.929688 144.039062 134.199219 C 140.039062 123.308594 143.335938 109.011719 151.878906 100.207031 C 152.507812 99.5625 153.265625 99.253906 154.019531 99.335938 C 154.695312 99.414062 155.324219 99.816406 155.785156 100.476562 C 156.925781 102.105469 156.699219 104.714844 155.289062 106.167969 C 149.128906 112.511719 146.570312 122.976562 149.34375 130.511719 C 152.402344 138.84375 159.222656 144.628906 168.054688 146.378906 L 169.898438 146.746094 L 170.210938 144.851562 C 170.527344 142.90625 172.28125 141.550781 174.199219 141.769531 L 210.632812 145.859375 C 212.554688 146.074219 213.960938 147.785156 213.839844 149.753906 L 213.71875 151.667969 L 215.601562 151.722656 C 224.601562 151.96875 232.535156 147.84375 237.367188 140.402344 C 241.738281 133.667969 241.570312 122.894531 236.96875 115.339844 C 235.917969 113.609375 236.273438 111.019531 237.75 109.679688 C 238.34375 109.140625 239.046875 108.886719 239.726562 108.960938 C 240.476562 109.046875 241.148438 109.519531 241.617188 110.289062 C 247.996094 120.769531 248.039062 135.4375 241.71875 145.171875 C 235.496094 154.761719 225.566406 159.960938 214.480469 159.4375 L 212.773438 159.355469 L 212.511719 161.6875 C 212.28125 163.71875 210.476562 165.1875 208.488281 164.964844 Z M 169 188.066406 C 167.007812 187.84375 165.574219 186.011719 165.800781 183.980469 L 166.015625 182.078125 L 164.277344 181.820312 C 144.273438 178.832031 130.234375 170.71875 123.675781 158.355469 C 118.320312 148.261719 116.914062 136.46875 119.828125 126 C 122.441406 116.613281 128.421875 109.15625 136.671875 104.996094 C 137.101562 104.78125 137.535156 104.695312 137.96875 104.746094 C 138.984375 104.859375 139.859375 105.699219 140.253906 106.9375 C 140.894531 108.964844 140.050781 111.375 138.410156 112.203125 C 131.835938 115.515625 127.3125 121.050781 125.320312 128.214844 C 123.101562 136.1875 124.304688 145.707031 128.535156 153.679688 C 134.152344 164.265625 146.765625 171.324219 165.007812 174.097656 L 166.882812 174.378906 L 167.121094 172.238281 C 167.347656 170.207031 169.15625 168.738281 171.148438 168.960938 L 207.578125 173.054688 C 209.570312 173.277344 211.003906 175.113281 210.777344 177.140625 L 210.535156 179.285156 L 212.425781 179.421875 C 230.828125 180.769531 244.691406 176.683594 252.515625 167.605469 C 258.410156 160.769531 261.695312 151.753906 261.300781 143.488281 C 260.949219 136.0625 257.765625 129.65625 252.085938 124.972656 C 250.671875 123.800781 250.382812 121.261719 251.460938 119.429688 C 252.121094 118.308594 253.160156 117.683594 254.175781 117.796875 C 254.605469 117.847656 255.015625 118.023438 255.382812 118.332031 C 262.503906 124.214844 266.683594 132.8125 267.148438 142.546875 C 267.664062 153.402344 263.683594 164.589844 256.21875 173.246094 C 247.082031 183.84375 231.589844 188.640625 211.425781 187.117188 L 209.671875 186.984375 L 209.457031 188.882812 C 209.226562 190.914062 207.425781 192.382812 205.433594 192.160156 Z M 165.945312 215.261719 C 164.238281 215.074219 162.894531 213.671875 162.738281 211.933594 L 162.582031 210.160156 L 160.835938 210.25 C 155.378906 210.535156 150.140625 210.402344 145.261719 209.855469 C 128.390625 207.960938 115.894531 201.238281 108.117188 189.882812 C 94.246094 169.628906 95.328125 140.703125 110.636719 122.601562 C 111.285156 121.832031 112.125 121.445312 112.945312 121.539062 C 113.558594 121.605469 114.121094 121.9375 114.570312 122.484375 C 115.796875 124 115.714844 126.609375 114.386719 128.183594 C 101.660156 143.230469 100.875 167.449219 112.554688 184.511719 C 119.355469 194.441406 130.734375 200.371094 146.371094 202.125 C 151.371094 202.6875 156.695312 202.800781 162.203125 202.457031 L 163.738281 202.359375 L 164.066406 199.433594 C 164.292969 197.402344 166.101562 195.933594 168.09375 196.15625 L 204.523438 200.25 C 206.511719 200.472656 207.949219 202.304688 207.722656 204.335938 L 207.390625 207.265625 L 208.867188 207.695312 C 214.160156 209.253906 219.382812 210.328125 224.378906 210.886719 C 240.015625 212.644531 252.421875 209.390625 261.257812 201.214844 C 276.4375 187.167969 281.039062 163.378906 271.96875 145.882812 C 271.023438 144.054688 271.519531 141.488281 273.058594 140.285156 C 273.613281 139.851562 274.234375 139.652344 274.847656 139.722656 C 275.667969 139.8125 276.402344 140.378906 276.863281 141.269531 C 287.773438 162.320312 282.414062 190.761719 264.394531 207.4375 C 254.292969 216.785156 240.617188 220.5625 223.746094 218.671875 C 218.867188 218.121094 213.730469 217.089844 208.46875 215.601562 L 206.789062 215.125 L 206.242188 216.816406 C 205.707031 218.480469 204.082031 219.546875 202.378906 219.355469 Z M 164.460938 270.402344 C 162.828125 270.21875 161.648438 268.714844 161.835938 267.046875 L 163.304688 253.988281 C 163.488281 252.320312 164.972656 251.113281 166.605469 251.296875 L 193.734375 254.347656 C 195.371094 254.53125 196.550781 256.035156 196.363281 257.703125 L 194.894531 270.761719 C 194.707031 272.425781 193.226562 273.636719 191.589844 273.453125 Z M 161.417969 297.480469 C 159.785156 297.296875 158.605469 295.789062 158.792969 294.125 L 160.261719 281.0625 C 160.449219 279.398438 161.929688 278.191406 163.566406 278.375 L 190.695312 281.421875 C 192.328125 281.605469 193.507812 283.109375 193.320312 284.777344 L 191.855469 297.835938 C 191.667969 299.503906 190.183594 300.710938 188.550781 300.527344 Z M 243.160156 311.046875 C 242.828125 311.007812 242.492188 310.960938 242.15625 310.90625 C 240.03125 310.558594 238.058594 309.941406 236.296875 309.078125 C 225.992188 304.023438 221.273438 288.742188 222.644531 264.886719 L 222.691406 264.074219 L 222.136719 263.488281 C 217.816406 258.941406 214.484375 253.984375 212.230469 248.769531 L 211.996094 248.21875 L 211.484375 247.917969 C 209.605469 246.796875 207.585938 245.503906 205.492188 244.070312 L 203.867188 242.960938 L 202.890625 244.699219 C 202.164062 245.984375 200.765625 246.710938 199.320312 246.550781 L 162.890625 242.457031 C 161.449219 242.296875 160.246094 241.277344 159.824219 239.859375 L 159.257812 237.949219 L 157.425781 238.671875 C 155.066406 239.605469 152.8125 240.417969 150.726562 241.09375 L 150.164062 241.277344 L 149.8125 241.757812 C 146.457031 246.347656 142.109375 250.4375 136.886719 253.914062 L 136.21875 254.359375 L 136.082031 255.160156 C 132.128906 278.730469 124.136719 292.585938 112.964844 295.226562 C 111.058594 295.675781 109 295.839844 106.847656 295.707031 C 106.507812 295.6875 106.171875 295.65625 105.835938 295.621094 C 93.152344 294.195312 85.605469 280.824219 82.769531 268.789062 C 82.289062 266.742188 83.183594 264.683594 84.722656 264.292969 C 85 264.226562 85.253906 264.210938 85.507812 264.242188 C 86.835938 264.390625 88.039062 265.660156 88.429688 267.335938 C 89.1875 270.542969 93.566406 286.621094 105.699219 287.988281 C 105.941406 288.015625 106.183594 288.035156 106.429688 288.046875 C 119.734375 288.878906 125.042969 274.546875 128.179688 261.96875 L 129.058594 258.4375 L 125.742188 259.789062 C 117.503906 263.144531 108.738281 264.710938 101.691406 264.085938 L 101.339844 264.050781 C 98.535156 263.734375 94.882812 262.582031 92.863281 261.65625 C 78.210938 254.921875 71.90625 236.550781 77.171875 215.941406 C 77.628906 214.152344 79.105469 212.933594 80.613281 213.105469 C 80.773438 213.121094 80.933594 213.15625 81.089844 213.203125 C 82.820312 213.734375 83.789062 215.878906 83.25 217.980469 C 78.929688 234.894531 83.851562 250.355469 95.222656 255.582031 C 97.035156 256.414062 99.242188 256.980469 101.773438 257.265625 C 109.773438 258.164062 122.351562 256.210938 133.664062 248.046875 L 138.761719 244.363281 L 132.53125 244.675781 C 129.792969 244.808594 127.117188 244.734375 124.585938 244.449219 C 117.929688 243.703125 111.746094 241.546875 105.6875 237.863281 C 95.566406 231.710938 87.589844 218.035156 85.359375 203.035156 C 83.695312 191.839844 85.523438 181.757812 90.5 174.644531 C 91.164062 173.695312 92.109375 173.191406 93.03125 173.292969 C 93.542969 173.355469 94.03125 173.601562 94.441406 174.007812 C 95.78125 175.347656 95.894531 177.933594 94.691406 179.652344 C 91.089844 184.796875 89.820312 192.421875 91.109375 201.125 C 92.984375 213.726562 99.921875 225.648438 108.375 230.789062 C 113.777344 234.078125 119.355469 236.007812 125.417969 236.6875 C 135.199219 237.785156 146.421875 235.53125 159.71875 229.789062 L 160.703125 229.367188 L 161.011719 226.628906 C 161.238281 224.597656 163.046875 223.128906 165.039062 223.351562 L 201.46875 227.445312 C 203.460938 227.667969 204.894531 229.5 204.667969 231.53125 L 204.359375 234.269531 L 205.226562 234.902344 C 216.921875 243.449219 227.363281 248.136719 237.140625 249.234375 C 243.207031 249.917969 249.074219 249.273438 255.070312 247.265625 C 264.453125 244.128906 273.863281 234.046875 278.484375 222.171875 C 281.675781 213.972656 282.128906 206.253906 279.757812 200.441406 C 278.964844 198.496094 279.648438 196 281.25 194.992188 C 281.742188 194.683594 282.269531 194.550781 282.785156 194.609375 C 283.707031 194.710938 284.519531 195.414062 284.953125 196.484375 C 288.230469 204.527344 287.773438 214.761719 283.667969 225.308594 C 278.167969 239.445312 267.351562 251.003906 256.121094 254.761719 C 249.394531 257.007812 242.886719 257.738281 236.234375 256.992188 C 233.699219 256.707031 231.078125 256.1875 228.433594 255.445312 L 222.429688 253.761719 L 226.585938 258.480469 C 235.800781 268.957031 247.632812 273.648438 255.632812 274.546875 C 258.164062 274.832031 260.441406 274.769531 262.394531 274.359375 C 274.640625 271.785156 282.871094 257.800781 282.40625 240.347656 C 282.351562 238.179688 283.769531 236.308594 285.574219 236.171875 C 285.738281 236.160156 285.902344 236.160156 286.0625 236.179688 C 287.570312 236.347656 288.742188 237.867188 288.789062 239.710938 C 289.351562 260.976562 279.125 277.488281 263.347656 280.800781 C 261.175781 281.261719 257.355469 281.574219 254.550781 281.261719 L 254.199219 281.21875 C 247.191406 280.261719 238.988281 276.789062 231.699219 271.691406 L 228.765625 269.636719 L 228.84375 273.273438 C 229.109375 286.234375 231.105469 301.386719 244.265625 303.53125 C 244.507812 303.570312 244.746094 303.605469 244.988281 303.632812 C 257.125 304.992188 264.960938 290.285156 266.40625 287.324219 C 267.164062 285.78125 268.617188 284.808594 269.945312 284.957031 C 270.199219 284.984375 270.441406 285.054688 270.667969 285.167969 C 272.113281 285.902344 272.53125 288.109375 271.605469 289.996094 C 266.171875 301.109375 255.847656 312.46875 243.160156 311.046875 " fill-opacity="1" fill-rule="nonzero"/><path fill="#5c7d9c" d="M 365.269531 89.15625 L 351.28125 87.582031 C 350.09375 87.449219 349.265625 86.144531 349.429688 84.664062 C 349.59375 83.1875 350.691406 82.097656 351.882812 82.230469 L 365.867188 83.800781 C 367.058594 83.933594 367.886719 85.242188 367.71875 86.71875 C 367.554688 88.199219 366.457031 89.289062 365.269531 89.15625 " fill-opacity="1" fill-rule="nonzero"/><path fill="#5c7d9c" d="M 362.8125 111.015625 L 348.824219 109.441406 C 347.636719 109.308594 346.808594 108.003906 346.972656 106.523438 C 347.140625 105.046875 348.238281 103.957031 349.425781 104.089844 L 363.414062 105.660156 C 364.601562 105.792969 365.429688 107.101562 365.265625 108.578125 C 365.101562 110.058594 364 111.148438 362.8125 111.015625 " fill-opacity="1" fill-rule="nonzero"/><path fill="#5c7d9c" d="M 360.355469 132.871094 L 346.371094 131.300781 C 345.179688 131.167969 344.351562 129.863281 344.519531 128.382812 C 344.683594 126.90625 345.785156 125.816406 346.972656 125.949219 L 360.960938 127.519531 C 362.148438 127.652344 362.976562 128.960938 362.808594 130.4375 C 362.644531 131.917969 361.546875 133.007812 360.355469 132.871094 " fill-opacity="1" fill-rule="nonzero"/><path fill="#5c7d9c" d="M 357.902344 154.734375 L 343.914062 153.160156 C 342.726562 153.027344 341.898438 151.722656 342.066406 150.242188 C 342.230469 148.765625 343.328125 147.675781 344.515625 147.808594 L 358.503906 149.378906 C 359.691406 149.511719 360.519531 150.820312 360.355469 152.296875 C 360.1875 153.777344 359.089844 154.867188 357.902344 154.734375 " fill-opacity="1" fill-rule="nonzero"/><path fill="#5c7d9c" d="M 355.445312 176.59375 L 341.460938 175.019531 C 340.269531 174.886719 339.441406 173.582031 339.609375 172.101562 C 339.773438 170.625 340.875 169.535156 342.058594 169.667969 L 356.046875 171.238281 C 357.238281 171.371094 358.066406 172.675781 357.898438 174.15625 C 357.730469 175.632812 356.636719 176.726562 355.445312 176.59375 " fill-opacity="1" fill-rule="nonzero"/><path fill="#5c7d9c" d="M 352.992188 198.449219 L 339.003906 196.878906 C 337.816406 196.746094 336.988281 195.441406 337.152344 193.960938 C 337.320312 192.484375 338.417969 191.394531 339.605469 191.527344 L 353.589844 193.097656 C 354.78125 193.230469 355.609375 194.539062 355.445312 196.015625 C 355.277344 197.496094 354.179688 198.582031 352.992188 198.449219 " fill-opacity="1" fill-rule="nonzero"/><path fill="#5c7d9c" d="M 350.535156 220.308594 L 336.550781 218.738281 C 335.359375 218.605469 334.53125 217.296875 334.699219 215.820312 C 334.863281 214.339844 335.960938 213.253906 337.152344 213.386719 L 351.136719 214.957031 C 352.328125 215.089844 353.15625 216.398438 352.988281 217.875 C 352.820312 219.355469 351.722656 220.445312 350.535156 220.308594 " fill-opacity="1" fill-rule="nonzero"/><path fill="#5c7d9c" d="M 348.082031 242.167969 L 334.09375 240.597656 C 332.90625 240.464844 332.078125 239.160156 332.242188 237.679688 C 332.410156 236.203125 333.507812 235.113281 334.695312 235.246094 L 348.683594 236.816406 C 349.871094 236.949219 350.699219 238.253906 350.53125 239.734375 C 350.367188 241.210938 349.269531 242.300781 348.082031 242.167969 " fill-opacity="1" fill-rule="nonzero"/><path fill="#5c7d9c" d="M 345.625 264.027344 L 331.636719 262.457031 C 330.449219 262.324219 329.621094 261.019531 329.789062 259.539062 C 329.953125 258.0625 331.050781 256.96875 332.242188 257.101562 L 346.226562 258.675781 C 347.414062 258.808594 348.242188 260.117188 348.078125 261.59375 C 347.914062 263.070312 346.8125 264.160156 345.625 264.027344 " fill-opacity="1" fill-rule="nonzero"/><path fill="#5c7d9c" d="M 343.167969 285.886719 L 329.183594 284.316406 C 327.996094 284.183594 327.167969 282.875 327.332031 281.398438 C 327.496094 279.917969 328.597656 278.828125 329.785156 278.964844 L 343.769531 280.535156 C 344.960938 280.667969 345.789062 281.972656 345.625 283.453125 C 345.457031 284.933594 344.359375 286.023438 343.167969 285.886719 " fill-opacity="1" fill-rule="nonzero"/><path fill="#5c7d9c" d="M 340.714844 307.746094 L 326.726562 306.175781 C 325.539062 306.042969 324.710938 304.734375 324.878906 303.257812 C 325.042969 301.78125 326.140625 300.691406 327.328125 300.824219 L 341.316406 302.394531 C 342.503906 302.527344 343.332031 303.832031 343.167969 305.3125 C 343 306.789062 341.90625 307.878906 340.714844 307.746094 " fill-opacity="1" fill-rule="nonzero"/><path fill="#5c7d9c" d="M 338.257812 329.605469 L 324.273438 328.035156 C 323.082031 327.902344 322.253906 326.597656 322.421875 325.117188 C 322.589844 323.636719 323.683594 322.546875 324.875 322.679688 L 338.859375 324.253906 C 340.050781 324.386719 340.878906 325.691406 340.710938 327.171875 C 340.546875 328.648438 339.449219 329.738281 338.257812 329.605469 " fill-opacity="1" fill-rule="nonzero"/><path fill="#5c7d9c" d="M 335.804688 351.464844 L 321.820312 349.894531 C 320.628906 349.761719 319.800781 348.453125 319.964844 346.976562 C 320.132812 345.496094 321.230469 344.40625 322.417969 344.539062 L 336.40625 346.113281 C 337.59375 346.246094 338.425781 347.550781 338.257812 349.03125 C 338.089844 350.507812 336.992188 351.597656 335.804688 351.464844 " fill-opacity="1" fill-rule="nonzero"/></svg>